<?xml version="1.0" encoding="utf-8"?>
<!-- Generator: Adobe Illustrator 27.5.0, SVG Export Plug-In . SVG Version: 6.00 Build 0)  -->
<svg version="1.1" xmlns="http://www.w3.org/2000/svg" xmlns:xlink="http://www.w3.org/1999/xlink" x="0px" y="0px"
	 viewBox="0 0 500 500" style="enable-background:new 0 0 500 500;" xml:space="preserve">
<g id="Background_Complete">
	<g>
		<rect y="382.398" style="fill:#EBEBEB;" width="500" height="0.25"/>
		<rect x="396.833" y="398.494" style="fill:#EBEBEB;" width="53.068" height="0.25"/>
		<rect x="272.556" y="395.361" style="fill:#EBEBEB;" width="58.665" height="0.25"/>
		<rect x="380.195" y="393.917" style="fill:#EBEBEB;" width="19.192" height="0.25"/>
		<rect x="100.473" y="390.888" style="fill:#EBEBEB;" width="43.193" height="0.25"/>
		<rect x="79.459" y="390.888" style="fill:#EBEBEB;" width="15.444" height="0.25"/>
		<rect x="131.471" y="395.111" style="fill:#EBEBEB;" width="54.195" height="0.25"/>
		<path style="fill:#EBEBEB;" d="M237.014,337.8H43.915c-3.147,0-5.708-2.561-5.708-5.708V60.66c0-3.147,2.561-5.708,5.708-5.708
			h193.099c3.146,0,5.707,2.561,5.707,5.708v271.432C242.721,335.239,240.16,337.8,237.014,337.8z M43.915,55.203
			c-3.01,0-5.458,2.448-5.458,5.458v271.432c0,3.01,2.448,5.458,5.458,5.458h193.099c3.009,0,5.457-2.448,5.457-5.458V60.66
			c0-3.009-2.448-5.458-5.457-5.458H43.915z"/>
		<path style="fill:#EBEBEB;" d="M453.31,337.8H260.212c-3.147,0-5.707-2.561-5.707-5.708V60.66c0-3.147,2.561-5.708,5.707-5.708
			H453.31c3.148,0,5.708,2.561,5.708,5.708v271.432C459.019,335.239,456.458,337.8,453.31,337.8z M260.212,55.203
			c-3.009,0-5.457,2.448-5.457,5.458v271.432c0,3.01,2.448,5.458,5.457,5.458H453.31c3.01,0,5.458-2.448,5.458-5.458V60.66
			c0-3.009-2.448-5.458-5.458-5.458H260.212z"/>
	</g>
	<g>
		<g>
			
				<rect x="266.712" y="248.909" transform="matrix(-1 -1.224647e-16 1.224647e-16 -1 543.933 622.8486)" style="fill:#F0F0F0;" width="10.509" height="125.03"/>
			
				<rect x="64.745" y="373.94" transform="matrix(-1 -1.224647e-16 1.224647e-16 -1 337.9307 756.2121)" style="fill:#F0F0F0;" width="208.44" height="8.333"/>
			<rect x="60.709" y="248.909" style="fill:#F5F5F5;" width="206.002" height="125.03"/>
			
				<rect x="269.185" y="241.028" transform="matrix(-1 -1.224647e-16 1.224647e-16 -1 549.2296 489.9375)" style="fill:#E0E0E0;" width="10.861" height="7.881"/>
			<rect x="57.886" y="241.028" style="fill:#EBEBEB;" width="211.299" height="7.881"/>
			<path style="fill:#FFFFFF;" d="M250.67,301.745H76.751c-4.296,0-7.778-3.482-7.778-7.778V266.39c0-4.296,3.482-7.778,7.778-7.778
				H250.67c4.296,0,7.778,3.482,7.778,7.778v27.576C258.448,298.262,254.966,301.745,250.67,301.745z"/>
			<path style="fill:#FFFFFF;" d="M250.67,357.751H76.751c-4.296,0-7.778-3.482-7.778-7.778v-27.576
				c0-4.296,3.482-7.778,7.778-7.778H250.67c4.296,0,7.778,3.482,7.778,7.778v27.576
				C258.448,354.269,254.966,357.751,250.67,357.751z"/>
			<path style="fill:#F5F5F5;" d="M118.928,263.218h89.565c0.972,0,1.767-0.795,1.767-1.767v-2.382c0-0.972-0.795-1.767-1.767-1.767
				h-89.565c-0.972,0-1.767,0.795-1.767,1.767v2.382C117.162,262.423,117.957,263.218,118.928,263.218z"/>
			<path style="fill:#F5F5F5;" d="M118.928,319.225h89.565c0.972,0,1.767-0.795,1.767-1.767v-2.382c0-0.972-0.795-1.767-1.767-1.767
				h-89.565c-0.972,0-1.767,0.795-1.767,1.767v2.382C117.162,318.43,117.957,319.225,118.928,319.225z"/>
		</g>
		<g>
			<g>
				<g>
					<rect x="415.492" y="289.925" style="fill:#E6E6E6;" width="31.696" height="6.063"/>
					
						<rect x="391.2" y="175.003" transform="matrix(-1 -1.224647e-16 1.224647e-16 -1 788.2515 557.4012)" style="fill:#E6E6E6;" width="5.852" height="207.396"/>
					
						<rect x="370.933" y="289.925" transform="matrix(-1 -1.224647e-16 1.224647e-16 -1 786.4259 585.913)" style="fill:#F5F5F5;" width="44.559" height="6.063"/>
					<rect x="415.492" y="345.729" style="fill:#E6E6E6;" width="31.696" height="6.063"/>
					
						<rect x="370.933" y="345.729" transform="matrix(-1 -1.224647e-16 1.224647e-16 -1 786.4259 697.5204)" style="fill:#F5F5F5;" width="44.559" height="6.063"/>
					<rect x="415.492" y="178.318" style="fill:#E6E6E6;" width="31.696" height="6.063"/>
					
						<rect x="370.933" y="178.318" transform="matrix(-1 -1.224647e-16 1.224647e-16 -1 786.4259 362.6984)" style="fill:#F5F5F5;" width="44.559" height="6.063"/>
					<rect x="415.492" y="234.122" style="fill:#E6E6E6;" width="31.696" height="6.063"/>
					
						<rect x="370.933" y="234.122" transform="matrix(-1 -1.224647e-16 1.224647e-16 -1 786.4259 474.3058)" style="fill:#F5F5F5;" width="44.559" height="6.063"/>
				</g>
			</g>
			
				<rect x="435.759" y="175.003" transform="matrix(-1 -1.224647e-16 1.224647e-16 -1 877.3697 557.4012)" style="fill:#E6E6E6;" width="5.852" height="207.396"/>
			
				<rect x="409.641" y="175.003" transform="matrix(-1 -1.224647e-16 1.224647e-16 -1 825.1334 557.4012)" style="fill:#F5F5F5;" width="5.852" height="207.396"/>
			
				<rect x="370.933" y="175.003" transform="matrix(-1 -1.224647e-16 1.224647e-16 -1 747.7183 557.4012)" style="fill:#F5F5F5;" width="5.852" height="207.396"/>
		</g>
		<g>
			<g>
				
					<rect x="87.882" y="83.368" transform="matrix(-1 -1.224647e-16 1.224647e-16 -1 439.9657 307.0069)" style="fill:#E0E0E0;" width="264.202" height="140.271"/>
				
					<rect x="81.22" y="83.368" transform="matrix(-1 -1.224647e-16 1.224647e-16 -1 429.5382 307.0069)" style="fill:#F5F5F5;" width="267.099" height="140.271"/>
				
					<rect x="155.688" y="29.525" transform="matrix(-1.836970e-16 1 -1 -1.836970e-16 368.2727 -61.2657)" style="fill:#FFFFFF;" width="118.163" height="247.956"/>
			</g>
		</g>
	</g>
</g>
<g id="Background_Simple" style="display:none;">
	<g style="display:inline;">
		<g style="opacity:0.9;">
			<path style="fill:#407BFF;" d="M61.28,245.371c-34.462-89.02,77.546-140.476,142.157-130.628
				c25.661,3.911,35.985,12.013,61.354,2.438c18.432-6.956,27.805-28.551,48.167-33.31c44.646-10.436,91.753,30.912,102.474,68.749
				c11.124,39.261,0.349,79.881-34.632,94.137c-25.596,10.431-51.708-2.948-66.684,3.492
				c-30.773,13.233-29.413,34.194-47.597,56.522C199.781,388.715,92.577,326.22,61.28,245.371z"/>
		</g>
		<g style="opacity:0.9;">
			<path style="fill:#FFFFFF;" d="M61.28,245.371c-34.462-89.02,77.546-140.476,142.157-130.628
				c25.661,3.911,35.985,12.013,61.354,2.438c18.432-6.956,27.805-28.551,48.167-33.31c44.646-10.436,91.753,30.912,102.474,68.749
				c11.124,39.261,0.349,79.881-34.632,94.137c-25.596,10.431-51.708-2.948-66.684,3.492
				c-30.773,13.233-29.413,34.194-47.597,56.522C199.781,388.715,92.577,326.22,61.28,245.371z"/>
		</g>
	</g>
</g>
<g id="Shadow_1_">
	<ellipse id="_x3C_Path_x3E__261_" style="fill:#F5F5F5;" cx="250" cy="416.238" rx="193.889" ry="11.323"/>
</g>
<g id="Desk">
	<g>
		<g>
			<g>
				<g>
					<path style="fill:#407BFF;" d="M387.818,264.222H110.539c-1.832,0-3.33-1.499-3.33-3.33l0,0c0-1.831,1.499-3.33,3.33-3.33
						h277.279c1.832,0,3.33,1.499,3.33,3.33l0,0C391.148,262.724,389.649,264.222,387.818,264.222z"/>
					<path style="opacity:0.3;fill:#263238;" d="M387.818,264.222h-64.911c-1.832,0-3.33-1.499-3.33-3.33l0,0
						c0-1.831,1.499-3.33,3.33-3.33h64.911c1.832,0,3.33,1.499,3.33,3.33l0,0C391.148,262.724,389.649,264.222,387.818,264.222z"/>
				</g>
				<g>
					<g>
						<rect x="167.535" y="272.569" style="fill:#263238;" width="213.253" height="23.209"/>
						<rect x="167.535" y="272.569" style="opacity:0.1;fill:#FFFFFF;" width="213.253" height="23.209"/>
					</g>
					<g>
						<polygon style="fill:#263238;" points="377.674,411.622 384.061,411.622 383.796,264.222 374.958,264.222 						"/>
						<polygon style="opacity:0.1;fill:#FFFFFF;" points="377.674,411.622 384.061,411.622 383.796,264.222 374.958,264.222 						
							"/>
					</g>
					<g>
						<polygon style="fill:#263238;" points="318.877,411.622 312.49,411.622 326.929,264.222 335.767,264.222 						"/>
						<polygon style="opacity:0.2;fill:#FFFFFF;" points="318.877,411.622 312.49,411.622 326.929,264.222 335.767,264.222 						
							"/>
					</g>
					<g>
						<polygon style="fill:#263238;" points="165.307,411.622 171.694,411.622 171.428,264.222 162.591,264.222 						"/>
						<polygon style="opacity:0.1;fill:#FFFFFF;" points="165.307,411.622 171.694,411.622 171.428,264.222 162.591,264.222 						
							"/>
					</g>
					<g>
						<polygon style="fill:#263238;" points="106.509,411.622 100.123,411.622 114.561,264.222 123.399,264.222 						"/>
						<polygon style="opacity:0.2;fill:#FFFFFF;" points="106.509,411.622 100.123,411.622 114.561,264.222 123.399,264.222 						
							"/>
					</g>
				</g>
			</g>
		</g>
		<g>
			<polygon style="fill:#263238;" points="286.111,257.562 271.392,257.562 265.497,228.778 280.216,228.778 			"/>
			<path style="fill:#263238;" d="M305.644,251.631h-63.869c-2.118,0-3.745-1.732-3.618-3.85l2.439-40.431
				c0.128-2.117,1.965-3.85,4.082-3.85h63.869c2.117,0,3.745,1.732,3.618,3.85l-2.439,40.431
				C309.599,249.898,307.762,251.631,305.644,251.631z"/>
			<path style="fill:#407BFF;" d="M304.644,251.631h-63.869c-2.118,0-3.745-1.732-3.618-3.85l2.439-40.431
				c0.128-2.117,1.965-3.85,4.082-3.85h63.869c2.117,0,3.745,1.732,3.618,3.85l-2.439,40.431
				C308.599,249.898,306.762,251.631,304.644,251.631z"/>
			<path style="fill:#FFFFFF;" d="M240.775,249.631c-0.466,0-0.889-0.178-1.192-0.499c-0.305-0.324-0.457-0.761-0.429-1.23
				l2.439-40.432c0.064-1.067,1.02-1.97,2.086-1.97h63.869c0.466,0,0.889,0.178,1.192,0.499c0.305,0.324,0.457,0.761,0.429,1.231
				l-2.439,40.432c-0.065,1.067-1.02,1.97-2.086,1.97H240.775z"/>
			<polygon style="opacity:0.2;" points="268.82,203.5 272.97,217.71 285.29,203.5 			"/>
		</g>
	</g>
</g>
<g id="Character_1_">
	<g>
		<g>
			<path style="fill:#263238;" d="M169.553,169.02c0.095,0.767,0.58,1.353,1.083,1.308c0.503-0.045,0.834-0.703,0.739-1.47
				s-0.58-1.353-1.083-1.308C169.789,167.595,169.458,168.253,169.553,169.02z"/>
			<path style="fill:#A02724;" d="M170.395,170.147c0,0,1.709,3.759,3.458,5.553c-1.102,1.11-3.109,0.657-3.109,0.657
				L170.395,170.147z"/>
			<path style="fill:#263238;" d="M167.039,166.065c-0.074,0.009-0.151,0-0.225-0.03c-0.232-0.094-0.344-0.359-0.25-0.591
				c0.933-2.298,3.004-2.677,3.091-2.691c0.229-0.063,0.481,0.123,0.524,0.37c0.042,0.247-0.123,0.481-0.37,0.524
				c-0.086,0.016-1.672,0.333-2.404,2.138C167.341,165.944,167.198,166.046,167.039,166.065z"/>
			<path style="fill:#B55B52;" d="M146.889,181.067l6.012,4.601l8.186,6.273c-0.298,0.319-0.663,1.882-0.8,2.989
				c-0.284,2.302-0.574,4.052,4.529,5.414c1.092,0.292,2.017,1.148,2.184,2.267c0.204,1.357-0.632,3.039-5.351,3.814
				c-5.466,0.898-9.866-0.613-13.327-2.276c-2-0.961-2.052-2.195-1.164-4.229C149.673,194.158,148.448,186.8,146.889,181.067z"/>
			<path style="fill:#407BFF;" d="M140.012,201.75c2-3.917,2.833-6.917,2.833-6.917s15.208-0.833,20.229,0.667s8.136,8,8.136,8
				L140.012,201.75z"/>
			<g>
				<path style="fill:#B55B52;" d="M146.363,213.056c-0.376,1.121-0.788,2.491-1.176,3.756l-1.125,3.893
					c-0.707,2.606-1.378,5.214-1.916,7.814c-0.564,2.597-1.004,5.179-1.287,7.703c-0.294,2.509-0.409,4.983-0.223,7.166
					c0.066,1.107,0.249,2.087,0.464,2.951c0.063,0.201,0.111,0.424,0.176,0.614c0.072,0.175,0.138,0.354,0.199,0.536l0.011,0.034
					c0.004,0.013,0.016,0.039-0.022-0.034c-0.052-0.096-0.108-0.189-0.169-0.279c-0.142-0.198-0.207-0.293-0.325-0.422
					c-0.195-0.219-0.346-0.339-0.445-0.411c-0.2-0.137-0.227-0.113-0.186-0.068c0.118,0.104,0.487,0.333,0.939,0.529
					c0.452,0.204,0.984,0.406,1.548,0.596c1.135,0.374,2.388,0.725,3.669,1.063c5.167,1.305,10.792,2.312,16.281,3.482l-0.178,6.932
					c-2.978,0.402-5.876,0.631-8.84,0.725c-2.957,0.098-5.93,0.085-8.995-0.15c-1.538-0.109-3.095-0.275-4.735-0.575
					c-0.823-0.148-1.668-0.326-2.571-0.57c-0.902-0.251-1.867-0.545-3.011-1.111c-0.584-0.299-1.22-0.653-1.969-1.247
					c-0.374-0.3-0.781-0.67-1.205-1.163c-0.224-0.273-0.414-0.498-0.64-0.854c-0.107-0.167-0.21-0.336-0.308-0.508l-0.127-0.24
					l-0.692-1.411c-0.209-0.469-0.374-0.929-0.557-1.397c-0.659-1.849-1.106-3.669-1.356-5.401
					c-0.951-6.952-0.213-13.145,0.826-19.175c0.557-3.004,1.218-5.952,2.014-8.854c0.391-1.453,0.813-2.895,1.269-4.33
					c0.456-1.462,0.922-2.809,1.503-4.378L146.363,213.056z"/>
				<g>
					<path style="fill:#407BFF;" d="M137.108,200.508c9.456-2.494,15.06,5.242,11.86,18.035c-3.2,12.793-4.267,13.235-4.267,13.235
						l-19.495-3.252C127.609,215.949,127.424,203.061,137.108,200.508z"/>
				</g>
				<path style="fill:#B55B52;" d="M167.639,249.26l-1.471-0.135c-4.18,0-4.893,1.145-7.466,3.534l-0.958,5.258
					c6.749,3.458,10.37-0.332,10.371-0.333h6.254l-2.204-5.054C171.366,250.695,169.632,249.442,167.639,249.26z"/>
			</g>
			<path style="fill:#B55B52;" d="M144.312,171.118c1.7,9.11,2.232,14.537,7.447,18.6c7.845,6.111,18.645,0.305,19.698-9.178
				c0.949-8.535-1.99-22-11.419-24.389C150.748,153.796,142.612,162.007,144.312,171.118z"/>
			<path style="fill:#263238;" d="M162.362,174.302c6.501-0.523,4.602-7.369,2.589-8.807c3.049-1.151,5.154-5.983,2.215-9.32
				c1.721-4.487-3.193-9.895-11.822-9.09c-6.303,0.588-7.018,3.912-7.018,3.912s-7.558-0.793-10.692,5.444
				c-2.682,5.337,0.567,8.19,0.567,8.19s-5.638,1.639-4.085,9.032c1.668,7.939,7.766,6.098,7.766,6.098s-1.369,7.273,6.876,7.378
				c7.131,0.091,7.218-5.25,7.218-5.25S165.238,180.981,162.362,174.302z"/>
			<path style="fill:#B55B52;" d="M157.523,174.832c0.778,2.117,2.372,3.725,3.954,4.535c2.38,1.219,4.199-1.312,3.779-3.902
				c-0.377-2.332-2.41-5.325-4.915-5.465C157.873,169.861,156.633,172.411,157.523,174.832z"/>
			<g>
				<g>
					<g>
						<g>
							<g>
								<polygon style="fill:#B55B52;" points="254.47,400.171 263.359,396.564 257.082,375.206 248.193,378.814 								"/>
								<polygon style="opacity:0.2;" points="251.236,389.167 260.217,385.873 257.082,375.206 248.193,378.814 								"/>
								<path style="fill:#263238;" d="M262.587,392.946l-10.164,3.538c-0.37,0.129-0.559,0.483-0.456,0.851l2.306,8.213
									c0.239,0.852,1.297,1.369,2.144,1.058c3.517-1.293,4.931-2,9.277-3.873c2.674-1.152,9.054-3.938,12.518-5.979
									c3.388-1.996,1.346-5.41-0.304-4.853c-3.907,1.318-10.317,2.177-13.57,1.06
									C263.752,392.758,263.128,392.758,262.587,392.946z"/>
								<g>
									<path style="fill:#263238;" d="M183.068,276.948c0,0,67.192,6.052,68.914,25.385c3.502,39.327,8.864,77.25,8.864,77.25
										l-13.667,5c0,0-16.732-43.208-16.512-74.028c-19.376-5.47-70.333,2.56-78.667-12.389
										c-7.358-13.198-0.901-22.672-0.901-22.672L183.068,276.948z"/>
								</g>
								<polygon style="fill:#407BFF;" points="246.181,387.692 263.199,381.943 262.456,374.186 243.273,380.368 								"/>
								<path style="fill:#407BFF;" d="M266.342,393.406c-0.835,0.291-1.82,0.44-2.523,0.516c-0.087,0.01-0.173-0.033-0.216-0.11
									c-0.044-0.077-0.039-0.172,0.012-0.243c0.219-0.301,2.171-2.943,3.426-2.894c0.291,0.011,0.533,0.158,0.699,0.426
									c0.274,0.442,0.319,0.857,0.134,1.236C267.639,392.818,267.043,393.162,266.342,393.406z M264.292,393.414
									c1.73-0.241,2.905-0.706,3.181-1.273c0.115-0.235,0.078-0.498-0.113-0.805c-0.088-0.142-0.195-0.21-0.336-0.215
									C266.349,391.095,265.109,392.381,264.292,393.414z"/>
								<path style="fill:#407BFF;" d="M263.869,393.91c-0.033,0.012-0.069,0.015-0.105,0.01c-0.076-0.011-0.141-0.06-0.172-0.13
									c-0.047-0.107-1.156-2.638-0.549-3.836c0.163-0.323,0.43-0.526,0.791-0.605c0.434-0.095,0.785,0.038,0.987,0.372
									c0.552,0.914-0.14,3.272-0.854,4.122C263.94,393.875,263.906,393.897,263.869,393.91z M263.829,389.813
									c-0.175,0.061-0.303,0.174-0.388,0.343c-0.363,0.714,0.082,2.23,0.406,3.08c0.555-0.938,0.954-2.685,0.591-3.285
									c-0.068-0.114-0.189-0.237-0.509-0.167C263.894,389.792,263.86,389.802,263.829,389.813z"/>
							</g>
							<g>
								<polygon style="fill:#B55B52;" points="206.895,406.522 216.397,406.072 217.953,383.637 208.451,384.086 								"/>
								<path style="fill:#263238;" d="M216.615,404.447l-10.756-0.34c-0.391-0.012-0.695,0.25-0.731,0.631l-0.791,8.494
									c-0.082,0.881,0.72,1.743,1.622,1.756c3.747,0.054,5.543-0.11,10.273,0.04c2.91,0.092,8.635,0.525,12.624,0.023
									c3.902-0.491,3.379-4.435,1.643-4.577c-4.11-0.337-9.618-3.177-12.255-5.385
									C217.77,404.689,217.188,404.465,216.615,404.447z"/>
								<path style="fill:#407BFF;" d="M219.956,406.222c-0.884-0.028-1.857-0.241-2.541-0.423c-0.085-0.022-0.149-0.093-0.163-0.18
									c-0.014-0.087,0.025-0.174,0.098-0.222c0.313-0.203,3.081-1.97,4.236-1.474c0.268,0.115,0.441,0.338,0.5,0.648
									c0.097,0.511-0.009,0.915-0.318,1.202C221.377,406.138,220.698,406.245,219.956,406.222z M218.039,405.495
									c1.702,0.395,2.965,0.382,3.426-0.048c0.191-0.178,0.251-0.437,0.184-0.792c-0.031-0.164-0.107-0.266-0.237-0.321
									C220.791,404.067,219.172,404.823,218.039,405.495z"/>
								<path style="fill:#407BFF;" d="M217.466,405.806c-0.035-0.001-0.07-0.01-0.101-0.028c-0.067-0.037-0.11-0.106-0.114-0.184
									c-0.006-0.117-0.134-2.878,0.862-3.778c0.268-0.243,0.59-0.337,0.956-0.282c0.439,0.067,0.719,0.316,0.788,0.701
									c0.188,1.051-1.303,3.004-2.275,3.542C217.545,405.798,217.506,405.807,217.466,405.806z M218.897,401.967
									c-0.185-0.006-0.345,0.053-0.485,0.181c-0.595,0.537-0.723,2.111-0.725,3.021c0.855-0.677,1.853-2.165,1.73-2.855
									c-0.023-0.131-0.092-0.289-0.415-0.338C218.965,401.971,218.93,401.968,218.897,401.967z"/>
								<g>
									<polygon style="opacity:0.2;" points="208.448,384.093 217.955,383.643 217.06,396.472 207.586,396.456 									"/>
								</g>
								<path style="fill:#263238;" d="M160.755,275.934c0,0,72.397,11.06,71.247,27.733c-2.069,30.01-12.13,88.633-12.13,88.633
									l-14.258,0.201c0,0-3.37-60.139,1.972-82.056c-17.801,0-68.041-0.623-74.9-9.778c-7.575-10.111,0.217-26,0.217-26
									L160.755,275.934z"/>
								<polygon style="fill:#407BFF;" points="203.932,393.617 221.19,393.349 222.039,384.225 203.102,384.969 								"/>
							</g>
							<path style="fill:#407BFF;" d="M173.501,199.497c-5.826-1.133-32.123-0.809-32.123-0.809
								c-5.433-0.137-10.101,3.88-10.714,9.28c-0.921,8.11,4.225,26.23,4.404,35.476c0.22,11.35-1.949,15.95-2.164,31.222
								l50.164,2.282c0-30.726-1.333-56.171-2.552-68.369C180.092,204.34,179.327,200.631,173.501,199.497z"/>
							<path style="opacity:0.3;fill:#FFFFFF;" d="M173.501,199.497c-5.826-1.133-32.123-0.809-32.123-0.809
								c-5.433-0.137-10.101,3.88-10.714,9.28c-0.921,8.11,4.225,26.23,4.404,35.476c0.22,11.35-1.949,15.95-2.164,31.222
								l50.164,2.282c0-30.726-1.333-56.171-2.552-68.369C180.092,204.34,179.327,200.631,173.501,199.497z"/>
							<g>
								<path style="fill:#B55B52;" d="M180.372,209.183c1.571,5.398,3.149,10.944,4.781,16.37
									c1.629,5.436,3.295,10.868,5.181,16.022c0.457,1.31,0.955,2.53,1.438,3.788l0.768,1.768l0.096,0.222l0.048,0.111
									l0.024,0.056l0.011,0.025l-0.039-0.073c-0.228-0.408-0.476-0.683-0.635-0.843c-0.347-0.331-0.477-0.358-0.501-0.354
									c-0.008,0.043,0.332,0.269,0.754,0.469c0.424,0.206,0.952,0.415,1.513,0.61c1.13,0.388,2.395,0.74,3.689,1.088
									c5.226,1.332,10.935,2.353,16.502,3.539l-0.178,6.932c-3.02,0.409-5.96,0.635-8.967,0.73
									c-3.001,0.096-6.018,0.074-9.133-0.174c-1.564-0.115-3.147-0.301-4.826-0.622c-0.842-0.16-1.708-0.351-2.649-0.627
									c-0.942-0.281-1.946-0.616-3.196-1.319c-0.638-0.376-1.359-0.834-2.202-1.693c-0.41-0.421-0.872-0.991-1.279-1.713
									l-0.341-0.633l-1.13-2.14c-0.665-1.4-1.378-2.813-1.966-4.204c-1.239-2.802-2.315-5.582-3.39-8.371
									c-1.013-2.795-2.017-5.586-2.935-8.388c-1.847-5.623-3.516-11.2-4.969-16.984L180.372,209.183z"/>
								<g>
									<path style="fill:#407BFF;" d="M166.123,203.608c6.861-6.969,15.627-3.174,19.4,9.462
										c3.773,12.636,3.081,13.56,3.081,13.56l-18.427,7.147C165.83,221.735,159.097,210.744,166.123,203.608z"/>
								</g>
								<path style="fill:#B55B52;" d="M218.865,249.26l-1.471-0.135c-4.18,0-4.893,1.145-7.466,3.534l-0.958,5.258
									c6.75,3.458,10.37-0.332,10.371-0.333h6.254l-2.204-5.054C222.592,250.695,220.857,249.442,218.865,249.26z"/>
							</g>
						</g>
					</g>
				</g>
			</g>
		</g>
		<g>
			<path style="fill:#407BFF;" d="M135.101,314.091h64.082c1.402,0,2.548-1.147,2.548-2.548v-4.12c0-1.402-1.147-2.548-2.548-2.548
				h-64.082c-1.401,0-2.548,1.147-2.548,2.548v4.12C132.553,312.945,133.7,314.091,135.101,314.091z"/>
			<g>
				<polygon style="fill:#407BFF;" points="135.391,416.754 132.553,416.754 135.819,314.091 139.746,314.091 				"/>
				<polygon style="opacity:0.4;fill:#FFFFFF;" points="135.391,416.754 132.553,416.754 135.819,314.091 139.746,314.091 				"/>
			</g>
			<g>
				<polygon style="fill:#407BFF;" points="161.514,416.754 164.351,416.754 161.085,314.091 157.158,314.091 				"/>
				<polygon style="opacity:0.4;fill:#FFFFFF;" points="161.514,416.754 164.351,416.754 161.085,314.091 157.158,314.091 				"/>
			</g>
			<g>
				<polygon style="fill:#407BFF;" points="172.77,416.754 169.933,416.754 173.199,314.091 177.126,314.091 				"/>
				<polygon style="opacity:0.4;fill:#FFFFFF;" points="172.77,416.754 169.933,416.754 173.199,314.091 177.126,314.091 				"/>
			</g>
			<g>
				<polygon style="fill:#407BFF;" points="198.894,416.754 201.731,416.754 198.465,314.091 194.538,314.091 				"/>
				<polygon style="opacity:0.4;fill:#FFFFFF;" points="198.894,416.754 201.731,416.754 198.465,314.091 194.538,314.091 				"/>
			</g>
			<g style="opacity:0.3;">
				<polygon style="fill:#407BFF;" points="135.817,314.088 139.748,314.088 139.565,318.452 135.677,318.452 				"/>
				<polygon style="fill:#407BFF;" points="161.223,318.452 157.343,318.452 157.16,314.088 161.084,314.088 				"/>
				<polygon style="fill:#407BFF;" points="177.124,314.088 176.941,318.452 173.061,318.452 173.2,314.088 				"/>
				<polygon style="fill:#407BFF;" points="198.607,318.452 194.719,318.452 194.536,314.088 198.467,314.088 				"/>
			</g>
		</g>
	</g>
</g>
<g id="Telecommuting">
	<g>
		<g>
			<path style="fill:#407BFF;" d="M388.957,188.611H228.826c-5.309,0-9.39-4.344-9.07-9.652l6.115-101.368
				c0.32-5.309,4.926-9.652,10.235-9.652h160.131c5.309,0,9.39,4.344,9.07,9.652l-6.115,101.368
				C398.871,184.267,394.265,188.611,388.957,188.611z"/>
			<polygon style="fill:#407BFF;" points="250.26,167.175 265.033,217.713 308.853,167.175 			"/>
			<path style="opacity:0.1;fill:#FFFFFF;" d="M381.191,147.821h-89.762c-2.976,0-5.264-2.435-5.084-5.411l3.428-56.822
				c0.18-2.976,2.761-5.411,5.737-5.411h89.762c2.976,0,5.264,2.435,5.084,5.411l-3.428,56.822
				C386.749,145.386,384.167,147.821,381.191,147.821z"/>
			<path style="opacity:0.1;fill:#FFFFFF;" d="M333.165,172.329h-89.762c-2.976,0-5.264-2.435-5.084-5.411l3.428-56.822
				c0.179-2.976,2.761-5.411,5.737-5.411h89.762c2.976,0,5.264,2.435,5.084,5.411l-3.428,56.822
				C338.723,169.894,336.141,172.329,333.165,172.329z"/>
			<g style="opacity:0.5;">
				<path style="fill:#FFFFFF;" d="M242.214,76.758c-0.118,1.642-1.403,2.974-2.871,2.974c-1.467,0-2.562-1.331-2.444-2.974
					c0.118-1.642,1.403-2.974,2.87-2.974S242.332,75.116,242.214,76.758z"/>
				<path style="fill:#FFFFFF;" d="M252.038,76.758c-0.118,1.642-1.403,2.974-2.871,2.974c-1.467,0-2.562-1.331-2.444-2.974
					c0.118-1.642,1.403-2.974,2.871-2.974C251.062,73.785,252.156,75.116,252.038,76.758z"/>
				<path style="fill:#FFFFFF;" d="M261.863,76.758c-0.118,1.642-1.403,2.974-2.871,2.974c-1.468,0-2.562-1.331-2.444-2.974
					c0.118-1.642,1.403-2.974,2.871-2.974C260.887,73.785,261.981,75.116,261.863,76.758z"/>
			</g>
			<path style="opacity:0.3;fill:#263238;" d="M387.763,187.667H227.632c-2.634,0-5.057-1.032-6.822-2.908
				c-1.77-1.88-2.657-4.369-2.497-7.009l6.115-101.368c0.329-5.452,5.032-9.888,10.484-9.888h160.13
				c2.634,0,5.057,1.032,6.822,2.908c1.77,1.88,2.657,4.369,2.498,7.009l-6.115,101.368
				C397.918,183.231,393.215,187.667,387.763,187.667z M234.911,66.994c-5.192,0-9.672,4.225-9.985,9.417l-6.115,101.368
				c-0.151,2.502,0.688,4.858,2.362,6.638c1.67,1.773,3.963,2.75,6.458,2.75h160.131c5.192,0,9.672-4.225,9.985-9.417l6.115-101.368
				c0.151-2.502-0.688-4.858-2.362-6.637c-1.67-1.774-3.964-2.751-6.458-2.751H234.911z"/>
		</g>
		<g>
			<path style="fill:#263238;" d="M301.051,128.408c-0.679,1.447-1.304,2.669-1.994,3.972c-0.674,1.28-1.395,2.532-2.113,3.784
				c-1.472,2.485-2.987,4.948-4.647,7.339c-0.822,1.2-1.677,2.385-2.538,3.568c-0.908,1.162-1.771,2.336-2.737,3.472
				c-1.832,2.311-3.927,4.505-6.11,6.643c-0.554,0.532-1.156,1.045-1.733,1.565c-0.58,0.519-1.152,1.038-1.817,1.514l-1.925,1.447
				c0,0-0.344,0.252-0.587,0.405c-0.256,0.17-0.532,0.311-0.806,0.449c-0.553,0.269-1.135,0.47-1.726,0.61
				c-1.183,0.271-2.399,0.273-3.563,0.021c-1.163-0.251-2.283-0.762-3.242-1.507c-0.477-0.374-0.915-0.798-1.293-1.263l-0.273-0.355
				l-0.129-0.179l-0.047-0.08l-0.186-0.323l-0.72-1.299c-0.212-0.423-0.366-0.818-0.547-1.228c-0.7-1.631-1.137-3.139-1.542-4.653
				c-0.741-3.003-1.17-5.9-1.461-8.792c-0.276-2.904-0.429-5.719-0.375-8.676c0.035-1.903,1.605-3.417,3.508-3.382
				c1.553,0.028,2.847,1.08,3.251,2.5l0.032,0.116c1.45,5.108,2.961,10.433,4.91,14.972c0.5,1.096,0.999,2.199,1.546,3.037
				c0.135,0.204,0.265,0.441,0.396,0.618c0.133,0.152,0.259,0.305,0.379,0.46l0.089,0.117l0.021,0.03l-0.049-0.077
				c-0.035-0.052-0.072-0.103-0.112-0.151c-0.156-0.199-0.337-0.39-0.542-0.551c-0.406-0.329-0.875-0.56-1.361-0.676
				c-0.486-0.117-0.996-0.128-1.507-0.022c-0.257,0.05-0.511,0.136-0.757,0.247c-0.125,0.052-0.24,0.125-0.359,0.189
				c-0.101,0.053-0.293,0.207-0.17,0.098l1.255-1.217c0.422-0.382,0.83-0.837,1.241-1.283c0.409-0.45,0.828-0.871,1.229-1.338
				c3.203-3.768,6.149-8.053,8.915-12.506c1.373-2.234,2.721-4.505,4.025-6.802l1.931-3.458l1.83-3.389l0.095-0.175
				c1.811-3.352,5.995-4.601,9.347-2.791C301.316,121.154,302.584,125.123,301.051,128.408z"/>
			<path style="fill:#FFC3BD;" d="M259.873,134.426l-4.877-2.781l5.242-5.357c0,0,2.189,1.563,4.248,3.83
				c1.297,1.428,0.909,3.688-0.798,4.493l0,0C262.475,135.182,261.052,135.114,259.873,134.426z"/>
			<path style="fill:#FFC3BD;" d="M253.894,125.906l2.645-1.891c0.719-0.513,1.715-0.36,2.247,0.345l1.452,1.928l-5.242,5.357
				l-1.647-3.761C253.041,127.178,253.268,126.353,253.894,125.906z"/>
			<path style="fill:#FFFFFF;" d="M290.564,123.934c0.777-2.657,3.048-4.651,5.777-5.154c2.142-0.374,3.14-0.699,5.888-0.903
				c4.732-0.338,12.515-0.025,17.888,0.328c3.122,0.206,6.309,0.646,8.848,1.064l0.091,0.015c2.801,0.46,4.72,3.133,4.24,5.907
				c-1.249,7.223-4.92,19.778-5.318,31.631c-0.523,15.556-0.287,24.516-0.562,28.267l-40.05-0.771
				C284.58,146.276,288.049,132.538,290.564,123.934z"/>
			<path style="fill:#263238;" d="M330.125,118.682l-0.095-0.012c-2.678-0.442-6.034-0.906-9.326-1.126
				c-0.574-0.042-1.168-0.074-1.784-0.107c-1.751,7.246-12.177,19.419-15.34,37.887c-1.219-15.431-2.163-31.563-0.373-37.857
				c-1.084-0.02-6.293,0.341-8.457,0.716c-2.873,0.531-5.299,2.817-6.344,5.896c-2.459,7.242-7.152,23.462-4.264,63.337h44.506
				c0.295-3.963-0.745-12.4,0.859-25.322c1.555-12.527,3.779-29.562,5.093-37.177C335.102,121.988,333.079,119.171,330.125,118.682z
				"/>
			<path style="opacity:0.2;fill:#FFFFFF;" d="M302.598,185.355c-0.137,0-0.254-0.106-0.266-0.245
				c-0.945-11.247,0.815-27.403,0.833-27.566c0.016-0.147,0.151-0.253,0.295-0.236c0.147,0.017,0.253,0.148,0.236,0.295
				c-0.018,0.161-1.773,16.267-0.833,27.462c0.013,0.147-0.097,0.276-0.244,0.289C302.613,185.354,302.606,185.355,302.598,185.355z
				"/>
			<path style="opacity:0.3;" d="M328.562,134.515c-1.655,7.475-0.772,17.836,0.983,27.29c1.317-10.611,3.105-24.381,4.413-32.905
				C332.14,127.683,329.872,128.542,328.562,134.515z"/>
			<path style="fill:#FFC3BD;" d="M303.078,117.828c5.195-1.135,6.088-4.334,5.717-7.874c-0.079-0.861-0.233-1.755-0.43-2.64
				l6.486-5.292l4.765-3.881c-1.293,5.738-2.728,16.205,1.191,20.117c0,0-3.193,5.255-12.099,4.611
				C301.186,122.326,303.078,117.828,303.078,117.828z"/>
			<polygon style="fill:#E0E0E0;" points="310.969,121.545 309.53,122.913 314.125,124.639 313.529,122.892 			"/>
			<path style="fill:#F5F5F5;" d="M314.486,127.08c0,0-1.805-4.575-3.517-5.536c5.995-1.611,8.906-4.933,8.906-4.933l2.734,1.085
				C322.609,117.697,323.47,122.949,314.486,127.08z"/>
			<polygon style="fill:#E0E0E0;" points="308.446,121.195 309.53,122.913 304.689,123.331 305.662,121.801 			"/>
			<path style="fill:#F5F5F5;" d="M302.258,125.792c0,0,2.554-2.867,6.188-4.597c-2.63-0.785-2.787-4.407-2.787-4.407l-2.548,0.487
				C303.111,117.275,298.427,121.829,302.258,125.792z"/>
			<path style="opacity:0.2;" d="M308.365,107.315c0.196,0.884,0.35,1.779,0.43,2.64c2.428-0.444,5.661-2.974,5.986-5.45
				c0.122-0.931,0.138-1.833,0.07-2.481L308.365,107.315z"/>
			<path style="fill:#263238;" d="M300.498,81.137c-2.319,2.857-2.096,13.16,2.812,13.284
				C308.218,94.544,304.716,75.941,300.498,81.137z"/>
			<path style="fill:#FFC3BD;" d="M321.65,88.642c-0.493,7.808-0.387,12.398-4.326,16.437c-5.926,6.076-15.528,2.584-17.37-5.19
				c-1.658-6.997-0.573-18.59,7.053-21.76C314.52,75.005,322.143,80.834,321.65,88.642z"/>
			<path style="fill:#263238;" d="M317.813,82.136c-4.911,4.875,1.47,8.444-1.024,11.069c4.631,2.417,2.933,4.199,2.933,4.199
				s-0.778,1.874,0.049,4.119c5.214-1.346,14.904-18.679,4.333-21.346C317.735,83.011,317.813,82.136,317.813,82.136z"/>
			<path style="fill:#263238;" d="M319.819,85.636c-4.652,0.723-10.5-1.5-14.125-3.375s-4.163,1.667-2.827,2.75
				c-2.325,0.083-5.278-1.765-4.547-5.875c0.667-3.75,5.583-7.292,12.576-4.125c4.946,2.24,11.049-0.708,13.424,1.875
				C326.693,79.469,322.924,85.153,319.819,85.636z"/>
			<path style="fill:#263238;" d="M322.985,80.552c3.125-0.417,3.257-2.378,2.382-5.836c3.375,4.792,2.025,6.261-0.007,7.42
				C323.152,81.386,322.985,80.552,322.985,80.552z"/>
			<path style="fill:#FFC3BD;" d="M323.746,94.627c-0.763,1.688-2.118,2.915-3.403,3.492c-1.932,0.868-2.914-0.91-2.391-3.003
				c0.471-1.885,2.043-4.607,3.988-4.588C323.857,90.547,324.618,92.697,323.746,94.627z"/>
			<path style="fill:#263238;" d="M309.461,90.999c-0.001,0.635-0.338,1.153-0.753,1.157c-0.414,0.004-0.749-0.509-0.748-1.144
				c0.001-0.635,0.338-1.153,0.752-1.157C309.127,89.852,309.462,90.364,309.461,90.999z"/>
			<path style="fill:#263238;" d="M302.297,91.06c-0.001,0.635-0.338,1.153-0.753,1.157c-0.414,0.004-0.749-0.509-0.748-1.144
				c0.001-0.635,0.338-1.153,0.753-1.157C301.963,89.913,302.298,90.425,302.297,91.06z"/>
			<path style="fill:#ED847E;" d="M304.951,91.282c0,0-1.449,3.678-3.039,5.46c1.119,1.04,3.027,0.544,3.027,0.544L304.951,91.282z"
				/>
			<path style="fill:#263238;" d="M307.525,98.975c2.47-0.317,3.617-2.041,3.668-2.121c0.056-0.085,0.03-0.201-0.056-0.259
				c-0.087-0.058-0.202-0.035-0.257,0.05c-0.013,0.019-1.316,1.985-4.103,2.006c-0.104,0-0.183,0.085-0.18,0.188
				c0.003,0.103,0.089,0.186,0.192,0.185C307.046,99.022,307.291,99.005,307.525,98.975z"/>
			<path style="fill:#263238;" d="M312.933,88.474c0.06-0.008,0.119-0.031,0.171-0.069c0.163-0.122,0.193-0.356,0.067-0.522
				c-1.245-1.643-2.965-1.527-3.038-1.521c-0.195-0.004-0.354,0.195-0.332,0.401c0.021,0.205,0.204,0.358,0.408,0.343
				c0.071-0.004,1.395-0.072,2.372,1.219C312.667,88.438,312.803,88.491,312.933,88.474z"/>
			<path style="fill:#263238;" d="M299.401,88.777c0.118-0.015,0.225-0.087,0.28-0.201c0.732-1.512,2.099-1.712,2.112-1.714
				c0.204-0.027,0.342-0.215,0.31-0.419c-0.032-0.204-0.222-0.347-0.424-0.321c-0.001,0-0.002,0-0.002,0
				c-0.072,0.01-1.768,0.258-2.667,2.114c-0.089,0.184-0.011,0.408,0.175,0.502C299.255,88.774,299.33,88.786,299.401,88.777z"/>
			<path style="fill:#263238;" d="M335.763,123.197c1.214,2.571,2.239,4.976,3.234,7.507c1.001,2.501,1.897,5.046,2.779,7.601
				c1.698,5.143,3.184,10.382,4.233,15.872c0.231,1.39,0.494,2.753,0.658,4.184l0.137,1.061l0.068,0.53l0.034,0.27l0.032,0.371
				c0.082,0.986,0.097,2.022-0.014,3.102c-0.214,2.148-0.993,4.454-2.271,6.331c-1.263,1.895-2.921,3.28-4.54,4.249
				c-1.628,0.979-3.247,1.608-4.822,2.034c-1.574,0.429-3.1,0.694-4.6,0.824c-1.497,0.144-2.964,0.168-4.412,0.111
				c-1.474-0.059-2.816-0.2-4.384-0.463c-1.874-0.314-3.138-2.088-2.823-3.962c0.239-1.425,1.322-2.497,2.651-2.791l0.361-0.079
				c1.039-0.228,2.304-0.508,3.425-0.808c1.147-0.306,2.265-0.651,3.322-1.032c2.099-0.76,4.005-1.774,5.048-2.803
				c0.519-0.514,0.772-0.985,0.87-1.32c0.089-0.349,0.064-0.617,0.01-1.069c-0.021-0.221-0.075-0.494-0.152-0.8l-0.358-1.626
				c-0.226-1.149-0.563-2.325-0.857-3.488c-0.626-2.344-1.326-4.7-2.126-7.052c-0.754-2.359-1.62-4.714-2.485-7.064
				c-0.872-2.355-1.792-4.698-2.721-7.04c-0.94-2.311-1.913-4.723-2.84-6.906l-0.044-0.104c-1.489-3.507,0.146-7.557,3.653-9.046
				C330.247,118.342,334.187,119.872,335.763,123.197z"/>
			<path style="fill:#FFC3BD;" d="M318.676,172.876l-4.405,2.095l7.622,2.705c0,0,5.077-1.617,2.612-4.435l-1.365-0.429
				C320.94,172.12,319.859,172.199,318.676,172.876z"/>
			<path style="fill:#FFC3BD;" d="M314.861,180.381l3.349,0.636c0.982,0.186,1.972-0.276,2.459-1.149l1.224-2.192l-7.622-2.705
				l-1.051,2.086C312.527,178.435,313.346,180.093,314.861,180.381z"/>
		</g>
	</g>
</g>
</svg>
