<?xml version="1.0" encoding="utf-8"?>
<!-- Generator: Adobe Illustrator 27.5.0, SVG Export Plug-In . SVG Version: 6.00 Build 0)  -->
<svg version="1.1" xmlns="http://www.w3.org/2000/svg" xmlns:xlink="http://www.w3.org/1999/xlink" x="0px" y="0px"
	 viewBox="0 0 750 500" style="enable-background:new 0 0 750 500;" xml:space="preserve">
<g id="Background_complete">
	<g>
		<g>
			<g>
				<g>
					<g>
						<g>
							<path style="fill:#E0E0E0;" d="M673.734,321.85H492.988c-3.232,0-5.862-2.63-5.862-5.862V52.714
								c0-3.232,2.63-5.862,5.862-5.862h180.746c3.232,0,5.862,2.629,5.862,5.862v263.273
								C679.596,319.22,676.966,321.85,673.734,321.85z M492.988,47.102c-3.095,0-5.612,2.518-5.612,5.612v263.273
								c0,3.095,2.518,5.612,5.612,5.612h180.746c3.095,0,5.612-2.518,5.612-5.612V52.714c0-3.094-2.518-5.612-5.612-5.612H492.988z
								"/>
						</g>
					</g>
					<g>
						<g>
							<path style="fill:#E0E0E0;" d="M465.306,321.85H284.56c-3.232,0-5.862-2.63-5.862-5.862V52.714
								c0-3.232,2.629-5.862,5.862-5.862h180.747c3.232,0,5.862,2.629,5.862,5.862v263.273
								C471.168,319.22,468.538,321.85,465.306,321.85z M284.56,47.102c-3.094,0-5.612,2.518-5.612,5.612v263.273
								c0,3.095,2.518,5.612,5.612,5.612h180.747c3.095,0,5.612-2.518,5.612-5.612V52.714c0-3.094-2.518-5.612-5.612-5.612H284.56z"
								/>
						</g>
					</g>
				</g>
				<g>
					<g>
						<g>
							<path style="fill:#E0E0E0;" d="M257.012,321.85H76.266c-3.232,0-5.862-2.63-5.862-5.862V52.714
								c0-3.232,2.629-5.862,5.862-5.862h180.746c3.232,0,5.862,2.629,5.862,5.862v263.273
								C262.875,319.22,260.245,321.85,257.012,321.85z M76.266,47.102c-3.094,0-5.612,2.518-5.612,5.612v263.273
								c0,3.095,2.518,5.612,5.612,5.612h180.746c3.095,0,5.612-2.518,5.612-5.612V52.714c0-3.094-2.518-5.612-5.612-5.612H76.266z"
								/>
						</g>
					</g>
				</g>
			</g>
			<g>
				<g>
					<rect y="382.919" style="fill:#E0E0E0;" width="750" height="0.12"/>
				</g>
			</g>
		</g>
		<g>
			<rect x="653.626" y="412.295" style="fill:#EBEBEB;" width="55.729" height="0.421"/>
			<rect x="495.044" y="416.861" style="fill:#EBEBEB;" width="14.627" height="0.421"/>
			<rect x="40.645" y="399.498" style="fill:#EBEBEB;" width="72.674" height="0.421"/>
			<rect x="128.299" y="399.498" style="fill:#EBEBEB;" width="10.656" height="0.421"/>
			<rect x="173.586" y="406.602" style="fill:#EBEBEB;" width="157.613" height="0.421"/>
		</g>
	</g>
	<g>
		<g>
			<path style="fill:#EBEBEB;" d="M385.383,451.173l-11.964-58.159h-21.351h-2.366H328.35l-11.965,58.159
				c-0.884,4.299,1.963,8.418,5.819,8.418h27.497h2.366h27.497C383.42,459.591,386.268,455.471,385.383,451.173z"/>
			<g>
				<path style="fill:#E6E6E6;" d="M352.067,393.013h-24.858c-1.353,0-2.449-1.097-2.449-2.449l0,0c0-1.353,1.097-2.449,2.449-2.449
					h24.858V393.013z"/>
				<path style="fill:#E6E6E6;" d="M349.702,393.013h24.858c1.353,0,2.449-1.097,2.449-2.449l0,0c0-1.353-1.097-2.449-2.449-2.449
					h-24.858V393.013z"/>
			</g>
			<path style="fill:#F0F0F0;" d="M370.816,393.013h-39.699l-11.103,57.568c-0.494,2.561,1.208,4.988,3.498,4.988h26.413h2.084
				h26.413c2.29,0,3.992-2.427,3.498-4.988L370.816,393.013z"/>
			<path style="opacity:0.3;fill:#FFFFFF;" d="M337.689,390.88h-8.916c-0.446,0-0.807-0.361-0.807-0.807l0,0
				c0-0.446,0.361-0.807,0.807-0.807h8.916c0.446,0,0.807,0.361,0.807,0.807l0,0C338.496,390.519,338.135,390.88,337.689,390.88z"/>
			<path style="opacity:0.3;fill:#FFFFFF;" d="M340.866,390.88h-0.905c-0.446,0-0.807-0.361-0.807-0.807l0,0
				c0-0.446,0.361-0.807,0.807-0.807h0.905c0.446,0,0.807,0.361,0.807,0.807l0,0C341.674,390.519,341.312,390.88,340.866,390.88z"/>
			<path style="fill:#E0E0E0;" d="M381.919,450.582l-5.289-27.422l-51.388,0.315l-5.228,27.107
				c-0.494,2.561,1.208,4.988,3.498,4.988h26.413h2.084h26.413C380.711,455.569,382.413,453.142,381.919,450.582z"/>
			<ellipse style="fill:#E6E6E6;" cx="350.994" cy="423.474" rx="25.752" ry="1.414"/>
		</g>
		<g style="opacity:0.3;">
			<path style="fill:#FFFFFF;" d="M339.387,402.568c1.54,0.79,1.113,2.897,0.982,3.742c-0.937,6.069-1.235,10.553-2.508,16.592
				c-0.393,1.863-1.07,3.747-2.387,5.123c-1.317,1.376-3.645,1.985-5.144,0.81c-1.625-1.273-1.456-3.738-1.133-5.776
				c0.669-4.217,1.339-8.434,2.008-12.65c0.27-1.702,0.551-3.436,1.332-4.972c0.781-1.536,2.16-2.87,3.861-3.147
				C336.398,402.29,338.458,402.091,339.387,402.568z"/>
		</g>
		<path style="opacity:0.3;fill:#FFFFFF;" d="M334.581,441.74c-0.613,2.798-2.683,4.722-4.622,4.297
			c-1.939-0.425-3.014-3.038-2.401-5.837c0.613-2.798,2.683-4.722,4.622-4.297C334.12,436.329,335.195,438.942,334.581,441.74z"/>
	</g>
	<g id="freepik--Plant--inject-111_00000077306128283928103580000007288584615953757576_">
		<path style="fill:#F0F0F0;" d="M86.682,439.278c0.897-11.306,7.103-22.745,17.085-30.51c2.493-1.933,7.729-5.765,3.484-7.79
			c-4.85-2.316-14.154,8.498-15.458,10.497c2.754-8.615,11.098-14.855,20.151-18.429c4.475-1.766,8.741-3.441,3.974-6.065
			c-4.767-2.625-15.082,3.741-17.471,6.473c5.653-6.307,12.798-12.622,20.12-16.396c8.083-4.166,4.433-11.114-3.901-5.74
			c-5.163,3.333-13.653,11.664-13.653,11.664s13.34-21.403,9.314-23.328c-5.215-2.499-14.352,26.661-16.876,32.409
			c0.678-4.766,1.314-16.296-3.129-16.796c-4.057-0.45-3.066,28.26-4.005,33.326c-0.595,2.208-0.866,3.332-1.335,5.557
			c-0.438-3.824-3.129-13.905-7.155-12.739c-3.421,0.983-1.304,8.531-0.417,12.114c2.149,8.673,4.318,17.063,4.339,25.961
			L86.682,439.278z"/>
		<g>
			<path style="fill:#E6E6E6;" d="M79.286,444.201c-0.917-14.768-7.402-29.71-17.823-39.846c-2.596-2.523-8.054-7.531-3.669-10.173
				c5.054-3.018,14.768,11.099,16.116,13.704c-2.862-11.246-11.576-19.391-21.014-24.06c-4.669-2.311-9.118-4.486-4.146-7.916
				c4.972-3.43,15.74,4.889,18.217,8.448c-5.898-8.255-13.346-16.511-20.978-21.409c-8.43-5.43-4.586-14.511,4.063-7.494
				c5.439,4.348,14.282,15.199,14.282,15.199s-13.906-27.94-9.705-30.508c5.394-3.302,14.961,34.856,17.593,42.313
				c-0.697-6.219-1.358-21.281,3.32-21.932c4.229-0.587,3.192,36.892,4.174,43.515c0.624,2.889,0.917,4.339,1.385,7.256
				c0.468-4.99,3.247-18.153,7.476-16.63c3.559,1.284,1.358,11.136,0.431,15.814c-2.247,11.319-4.513,22.28-4.522,33.893
				L79.286,444.201z"/>
		</g>
		<polygon style="fill:#E0E0E0;" points="63.179,436.819 67.945,462.967 96.142,462.967 101.193,436.819 		"/>
		<rect x="59.774" y="429.278" style="fill:#E0E0E0;" width="45.34" height="8.725"/>
	</g>
	<g id="freepik--Plant--inject-111_00000061463920701160648130000015060334975369406373_">
		<path style="fill:#F0F0F0;" d="M662.6,439.278c-0.897-11.306-7.103-22.745-17.085-30.51c-2.493-1.933-7.729-5.765-3.484-7.79
			c4.85-2.316,14.154,8.498,15.457,10.497c-2.753-8.615-11.098-14.855-20.151-18.429c-4.475-1.766-8.74-3.441-3.974-6.065
			c4.767-2.625,15.082,3.741,17.471,6.473c-5.653-6.307-12.798-12.622-20.12-16.396c-8.083-4.166-4.433-11.114,3.901-5.74
			c5.163,3.333,13.653,11.664,13.653,11.664s-13.34-21.403-9.314-23.328c5.215-2.499,14.352,26.661,16.876,32.409
			c-0.678-4.766-1.314-16.296,3.129-16.796c4.057-0.45,3.067,28.26,4.005,33.326c0.595,2.208,0.866,3.332,1.335,5.557
			c0.438-3.824,3.129-13.905,7.155-12.739c3.421,0.983,1.304,8.531,0.417,12.114c-2.149,8.673-4.318,17.063-4.339,25.961
			L662.6,439.278z"/>
		<g>
			<path style="fill:#E6E6E6;" d="M669.997,444.201c0.917-14.768,7.402-29.71,17.823-39.846c2.596-2.523,8.053-7.531,3.669-10.173
				c-5.054-3.018-14.768,11.099-16.116,13.704c2.862-11.246,11.576-19.391,21.015-24.06c4.669-2.311,9.118-4.486,4.146-7.916
				c-4.972-3.43-15.74,4.889-18.217,8.448c5.898-8.255,13.346-16.511,20.978-21.409c8.43-5.43,4.586-14.511-4.064-7.494
				c-5.439,4.348-14.282,15.199-14.282,15.199s13.906-27.94,9.705-30.508c-5.393-3.302-14.961,34.856-17.593,42.313
				c0.697-6.219,1.358-21.281-3.32-21.932c-4.229-0.587-3.192,36.892-4.174,43.515c-0.624,2.889-0.917,4.339-1.385,7.256
				c-0.468-4.99-3.247-18.153-7.476-16.63c-3.559,1.284-1.358,11.136-0.431,15.814c2.247,11.319,4.513,22.28,4.522,33.893
				L669.997,444.201z"/>
		</g>
		<polygon style="fill:#E0E0E0;" points="686.103,436.819 681.338,462.967 653.141,462.967 648.089,436.819 		"/>
		
			<rect x="644.169" y="429.278" transform="matrix(-1 -1.224647e-16 1.224647e-16 -1 1333.6783 867.2801)" style="fill:#E0E0E0;" width="45.34" height="8.725"/>
	</g>
	<g>
		<g>
			
				<polygon style="fill:#FAFAFA;stroke:#F0F0F0;stroke-width:0.75;stroke-linecap:round;stroke-linejoin:round;stroke-miterlimit:10;" points="
				384.376,98.058 384.376,128.191 410.472,143.258 436.568,128.191 436.568,98.058 410.472,82.992 			"/>
			
				<polygon style="fill:#FAFAFA;stroke:#F0F0F0;stroke-width:0.75;stroke-linecap:round;stroke-linejoin:round;stroke-miterlimit:10;" points="
				436.568,98.058 436.568,128.191 462.664,143.258 488.759,128.191 488.759,98.058 462.664,82.992 			"/>
			
				<polygon style="fill:#FAFAFA;stroke:#F0F0F0;stroke-width:0.75;stroke-linecap:round;stroke-linejoin:round;stroke-miterlimit:10;" points="
				489.118,98.058 489.118,128.191 515.214,143.258 541.31,128.191 541.31,98.058 515.214,82.992 			"/>
			
				<polygon style="fill:#FAFAFA;stroke:#F0F0F0;stroke-width:0.75;stroke-linecap:round;stroke-linejoin:round;stroke-miterlimit:10;" points="
				541.31,98.058 541.31,128.191 567.406,143.258 593.501,128.191 593.501,98.058 567.406,82.992 			"/>
			
				<polygon style="fill:#FAFAFA;stroke:#F0F0F0;stroke-width:0.75;stroke-linecap:round;stroke-linejoin:round;stroke-miterlimit:10;" points="
				463.022,52.688 463.022,82.821 489.118,97.887 515.214,82.821 515.214,52.688 489.118,37.622 			"/>
		</g>
		
			<line style="fill:#FAFAFA;stroke:#F0F0F0;stroke-width:0.75;stroke-linecap:round;stroke-linejoin:round;stroke-miterlimit:10;" x1="593.86" y1="98.058" x2="613.446" y2="86.105"/>
		
			<line style="fill:#FAFAFA;stroke:#F0F0F0;stroke-width:0.75;stroke-linecap:round;stroke-linejoin:round;stroke-miterlimit:10;" x1="463.022" y1="52.688" x2="437.953" y2="34.546"/>
		
			<line style="fill:#FAFAFA;stroke:#F0F0F0;stroke-width:0.75;stroke-linecap:round;stroke-linejoin:round;stroke-miterlimit:10;" x1="471.362" y1="57.537" x2="489.95" y2="46.896"/>
		
			<line style="fill:#FAFAFA;stroke:#F0F0F0;stroke-width:0.75;stroke-linecap:round;stroke-linejoin:round;stroke-miterlimit:10;" x1="444.965" y1="102.603" x2="463.553" y2="91.961"/>
		
			<line style="fill:#FAFAFA;stroke:#F0F0F0;stroke-width:0.75;stroke-linecap:round;stroke-linejoin:round;stroke-miterlimit:10;" x1="497.28" y1="102.603" x2="515.869" y2="91.961"/>
		
			<path style="fill:#FAFAFA;stroke:#F0F0F0;stroke-width:0.75;stroke-linecap:round;stroke-linejoin:round;stroke-miterlimit:10;" d="
			M549.351,107.628c0,3.595,0,7.19,0,10.785"/>
		
			<path style="fill:#FAFAFA;stroke:#F0F0F0;stroke-width:0.75;stroke-linecap:round;stroke-linejoin:round;stroke-miterlimit:10;" d="
			M443.424,107.628c0,3.595,0,7.19,0,10.785"/>
	</g>
	<g>
		<g>
			
				<polygon style="fill:#FAFAFA;stroke:#F0F0F0;stroke-width:0.75;stroke-linecap:round;stroke-linejoin:round;stroke-miterlimit:10;" points="
				171.087,297.705 171.087,329.042 198.226,344.71 225.364,329.042 225.364,297.705 198.226,282.037 			"/>
			
				<polygon style="fill:#FAFAFA;stroke:#F0F0F0;stroke-width:0.75;stroke-linecap:round;stroke-linejoin:round;stroke-miterlimit:10;" points="
				225.364,297.705 225.364,329.042 252.503,344.71 279.641,329.042 279.641,297.705 252.503,282.037 			"/>
			
				<polygon style="fill:#FAFAFA;stroke:#F0F0F0;stroke-width:0.75;stroke-linecap:round;stroke-linejoin:round;stroke-miterlimit:10;" points="
				280.014,297.705 280.014,329.042 307.153,344.71 334.291,329.042 334.291,297.705 307.153,282.037 			"/>
			
				<polygon style="fill:#FAFAFA;stroke:#F0F0F0;stroke-width:0.75;stroke-linecap:round;stroke-linejoin:round;stroke-miterlimit:10;" points="
				334.291,297.705 334.291,329.042 361.43,344.71 388.568,329.042 388.568,297.705 361.43,282.037 			"/>
			
				<polygon style="fill:#FAFAFA;stroke:#F0F0F0;stroke-width:0.75;stroke-linecap:round;stroke-linejoin:round;stroke-miterlimit:10;" points="
				252.876,250.818 252.876,282.154 280.014,297.823 307.153,282.154 307.153,250.818 280.014,235.149 			"/>
		</g>
		
			<line style="fill:#FAFAFA;stroke:#F0F0F0;stroke-width:0.75;stroke-linecap:round;stroke-linejoin:round;stroke-miterlimit:10;" x1="388.941" y1="297.705" x2="409.31" y2="285.275"/>
		
			<line style="fill:#FAFAFA;stroke:#F0F0F0;stroke-width:0.75;stroke-linecap:round;stroke-linejoin:round;stroke-miterlimit:10;" x1="252.876" y1="250.522" x2="226.804" y2="231.655"/>
		
			<line style="fill:#FAFAFA;stroke:#F0F0F0;stroke-width:0.75;stroke-linecap:round;stroke-linejoin:round;stroke-miterlimit:10;" x1="261.548" y1="255.565" x2="280.879" y2="244.499"/>
		
			<line style="fill:#FAFAFA;stroke:#F0F0F0;stroke-width:0.75;stroke-linecap:round;stroke-linejoin:round;stroke-miterlimit:10;" x1="234.096" y1="302.431" x2="253.428" y2="291.364"/>
		
			<line style="fill:#FAFAFA;stroke:#F0F0F0;stroke-width:0.75;stroke-linecap:round;stroke-linejoin:round;stroke-miterlimit:10;" x1="288.502" y1="302.431" x2="307.833" y2="291.364"/>
		
			<path style="fill:#FAFAFA;stroke:#F0F0F0;stroke-width:0.75;stroke-linecap:round;stroke-linejoin:round;stroke-miterlimit:10;" d="
			M338.051,311.74c0,3.738,0,7.477,0,11.216"/>
		
			<path style="fill:#FAFAFA;stroke:#F0F0F0;stroke-width:0.75;stroke-linecap:round;stroke-linejoin:round;stroke-miterlimit:10;" d="
			M232.494,307.658c0,3.738,0,7.477,0,11.216"/>
	</g>
	<g>
		<g>
			
				<polygon style="fill:#FAFAFA;stroke:#F0F0F0;stroke-width:0.75;stroke-linecap:round;stroke-linejoin:round;stroke-miterlimit:10;" points="
				186.635,114.751 186.635,146.087 213.774,161.756 240.912,146.087 240.912,114.751 213.774,99.082 			"/>
			
				<polygon style="fill:#FAFAFA;stroke:#F0F0F0;stroke-width:0.75;stroke-linecap:round;stroke-linejoin:round;stroke-miterlimit:10;" points="
				240.912,114.751 240.912,146.087 268.051,161.756 295.189,146.087 295.189,114.751 268.051,99.082 			"/>
			
				<polygon style="fill:#FAFAFA;stroke:#F0F0F0;stroke-width:0.75;stroke-linecap:round;stroke-linejoin:round;stroke-miterlimit:10;" points="
				295.563,114.751 295.563,146.087 322.701,161.756 349.839,146.087 349.839,114.751 322.701,99.082 			"/>
			
				<polygon style="fill:#FAFAFA;stroke:#F0F0F0;stroke-width:0.75;stroke-linecap:round;stroke-linejoin:round;stroke-miterlimit:10;" points="
				350.212,114.751 350.212,146.087 377.351,161.756 404.49,146.087 404.49,114.751 377.351,99.082 			"/>
			
				<polygon style="fill:#FAFAFA;stroke:#F0F0F0;stroke-width:0.75;stroke-linecap:round;stroke-linejoin:round;stroke-miterlimit:10;" points="
				268.051,67.935 268.051,99.272 295.189,114.941 322.328,99.272 322.328,67.935 295.189,52.267 			"/>
		</g>
		
			<line style="fill:#FAFAFA;stroke:#F0F0F0;stroke-width:0.75;stroke-linecap:round;stroke-linejoin:round;stroke-miterlimit:10;" x1="404.49" y1="114.751" x2="424.858" y2="102.32"/>
		
			<line style="fill:#FAFAFA;stroke:#F0F0F0;stroke-width:0.75;stroke-linecap:round;stroke-linejoin:round;stroke-miterlimit:10;" x1="268.424" y1="67.568" x2="242.352" y2="48.701"/>
		
			<line style="fill:#FAFAFA;stroke:#F0F0F0;stroke-width:0.75;stroke-linecap:round;stroke-linejoin:round;stroke-miterlimit:10;" x1="277.096" y1="72.611" x2="296.428" y2="61.544"/>
		
			<line style="fill:#FAFAFA;stroke:#F0F0F0;stroke-width:0.75;stroke-linecap:round;stroke-linejoin:round;stroke-miterlimit:10;" x1="249.645" y1="119.477" x2="268.976" y2="108.41"/>
		
			<line style="fill:#FAFAFA;stroke:#F0F0F0;stroke-width:0.75;stroke-linecap:round;stroke-linejoin:round;stroke-miterlimit:10;" x1="304.051" y1="119.477" x2="323.382" y2="108.41"/>
		
			<path style="fill:#FAFAFA;stroke:#F0F0F0;stroke-width:0.75;stroke-linecap:round;stroke-linejoin:round;stroke-miterlimit:10;" d="
			M358.201,124.703c0,3.739,0,7.477,0,11.216"/>
		
			<path style="fill:#FAFAFA;stroke:#F0F0F0;stroke-width:0.75;stroke-linecap:round;stroke-linejoin:round;stroke-miterlimit:10;" d="
			M248.042,124.703c0,3.739,0,7.477,0,11.216"/>
	</g>
	<g>
		<g>
			
				<polygon style="fill:#FAFAFA;stroke:#F0F0F0;stroke-width:0.75;stroke-linecap:round;stroke-linejoin:round;stroke-miterlimit:10;" points="
				445.748,317.543 445.748,350.706 474.468,367.287 503.188,350.706 503.188,317.543 474.468,300.962 			"/>
			
				<polygon style="fill:#FAFAFA;stroke:#F0F0F0;stroke-width:0.75;stroke-linecap:round;stroke-linejoin:round;stroke-miterlimit:10;" points="
				503.188,317.543 503.188,350.706 531.908,367.287 560.628,350.706 560.628,317.543 531.908,300.962 			"/>
			
				<polygon style="fill:#FAFAFA;stroke:#F0F0F0;stroke-width:0.75;stroke-linecap:round;stroke-linejoin:round;stroke-miterlimit:10;" points="
				474.468,367.264 474.468,400.427 503.188,417.009 531.908,400.427 531.908,367.264 503.188,350.683 			"/>
			
				<polygon style="fill:#FAFAFA;stroke:#F0F0F0;stroke-width:0.75;stroke-linecap:round;stroke-linejoin:round;stroke-miterlimit:10;" points="
				474.468,267.611 474.468,300.773 503.188,317.355 531.908,300.773 531.908,267.611 503.188,251.029 			"/>
		</g>
		
			<line style="fill:#FAFAFA;stroke:#F0F0F0;stroke-width:0.75;stroke-linecap:round;stroke-linejoin:round;stroke-miterlimit:10;" x1="561.023" y1="317.41" x2="582.578" y2="304.255"/>
		
			<line style="fill:#FAFAFA;stroke:#F0F0F0;stroke-width:0.75;stroke-linecap:round;stroke-linejoin:round;stroke-miterlimit:10;" x1="474.863" y1="267.611" x2="447.272" y2="247.644"/>
		
			<line style="fill:#FAFAFA;stroke:#F0F0F0;stroke-width:0.75;stroke-linecap:round;stroke-linejoin:round;stroke-miterlimit:10;" x1="484.041" y1="272.947" x2="504.498" y2="261.236"/>
		
			<line style="fill:#FAFAFA;stroke:#F0F0F0;stroke-width:0.75;stroke-linecap:round;stroke-linejoin:round;stroke-miterlimit:10;" x1="454.989" y1="322.544" x2="475.447" y2="310.833"/>
		
			<line style="fill:#FAFAFA;stroke:#F0F0F0;stroke-width:0.75;stroke-linecap:round;stroke-linejoin:round;stroke-miterlimit:10;" x1="512.565" y1="322.544" x2="533.023" y2="310.833"/>
		
			<path style="fill:#FAFAFA;stroke:#F0F0F0;stroke-width:0.75;stroke-linecap:round;stroke-linejoin:round;stroke-miterlimit:10;" d="
			M453.293,328.075c0,3.956,0,7.913,0,11.869"/>
	</g>
	<g>
		<rect x="175.693" y="359.972" style="fill:#E6E6E6;" width="32.503" height="13.497"/>
		<rect x="191.945" y="373.469" style="fill:#F5F5F5;" width="32.503" height="13.497"/>
	</g>
	<g>
		<rect x="61.138" y="270.253" style="fill:#E6E6E6;" width="32.503" height="13.497"/>
		<rect x="77.389" y="283.75" style="fill:#F5F5F5;" width="32.503" height="13.497"/>
	</g>
	<g>
		<rect x="642.462" y="273.531" style="fill:#E6E6E6;" width="32.503" height="13.497"/>
		<rect x="658.714" y="287.028" style="fill:#F5F5F5;" width="32.503" height="13.497"/>
	</g>
	<g>
		<rect x="56.806" y="81.889" style="fill:#EBEBEB;" width="32.503" height="13.497"/>
		<rect x="74.869" y="68.494" style="fill:#FAFAFA;" width="32.503" height="13.497"/>
		<rect x="75.945" y="95.133" style="fill:#F5F5F5;" width="32.503" height="13.497"/>
	</g>
	<g>
		<rect x="647.516" y="156.051" style="fill:#EBEBEB;" width="32.503" height="13.497"/>
		<rect x="665.579" y="142.656" style="fill:#FAFAFA;" width="32.503" height="13.497"/>
		<rect x="666.655" y="169.295" style="fill:#F5F5F5;" width="32.503" height="13.497"/>
	</g>
	<rect x="591.946" y="61.746" style="fill:#F5F5F5;" width="32.503" height="13.497"/>
	<g>
		<g>
			<path style="fill:#EBEBEB;" d="M523.63,448.043l-16.71-81.229h-29.821h-3.304h-29.821l-16.71,81.229
				c-1.235,6.004,2.742,11.757,8.127,11.757h38.404h3.304h38.404C520.888,459.8,524.865,454.047,523.63,448.043z"/>
			<g>
				<path style="fill:#E6E6E6;" d="M477.099,366.814h-35.69c-1.353,0-2.449-1.097-2.449-2.449v-1.943
					c0-1.353,1.097-2.449,2.449-2.449h35.69V366.814z"/>
				<path style="fill:#E6E6E6;" d="M473.795,366.814h35.69c1.353,0,2.449-1.097,2.449-2.449v-1.943c0-1.353-1.097-2.449-2.449-2.449
					h-35.69V366.814z"/>
			</g>
			<path style="fill:#F0F0F0;" d="M503.285,366.814h-55.446l-15.507,80.404c-0.69,3.577,1.687,6.966,4.885,6.966h36.889h2.91h36.889
				c3.198,0,5.575-3.39,4.885-6.966L503.285,366.814z"/>
			<path style="opacity:0.3;fill:#FFFFFF;" d="M457.338,363.835h-13.092c-0.446,0-0.807-0.361-0.807-0.807v-0.64
				c0-0.446,0.361-0.807,0.807-0.807h13.092c0.446,0,0.807,0.361,0.807,0.807v0.64C458.145,363.474,457.783,363.835,457.338,363.835
				z"/>
			<path style="opacity:0.3;fill:#FFFFFF;" d="M461.775,363.835h-1.905c-0.446,0-0.807-0.361-0.807-0.807v-0.64
				c0-0.446,0.361-0.807,0.807-0.807h1.905c0.446,0,0.807,0.361,0.807,0.807v0.64C462.582,363.474,462.221,363.835,461.775,363.835z
				"/>
			<path style="fill:#E0E0E0;" d="M518.791,447.218l-7.386-38.299l-71.772,0.44l-7.302,37.859c-0.69,3.577,1.687,6.966,4.885,6.966
				h36.889h2.91h36.889C517.104,454.184,519.481,450.794,518.791,447.218z"/>
			<path style="fill:#E6E6E6;" d="M475.6,407.384c-19.864,0-35.966,0.884-35.966,1.975c0,1.09,16.103,1.974,35.966,1.974
				c19.864,0,35.966-0.884,35.966-1.974C511.566,408.268,495.463,407.384,475.6,407.384z"/>
		</g>
		<g style="opacity:0.3;">
			<path style="fill:#FFFFFF;" d="M459.388,380.159c2.15,1.104,1.555,4.046,1.372,5.227c-1.309,8.477-1.725,14.739-3.503,23.174
				c-0.549,2.603-1.495,5.234-3.334,7.155c-1.839,1.921-5.091,2.772-7.185,1.132c-2.269-1.778-2.034-5.221-1.582-8.068
				c0.935-5.889,1.87-11.779,2.805-17.668c0.377-2.377,0.769-4.799,1.86-6.945c1.091-2.146,3.017-4.008,5.393-4.395
				C455.214,379.771,458.091,379.493,459.388,380.159z"/>
		</g>
		<path style="opacity:0.3;fill:#FFFFFF;" d="M452.676,434.869c-0.857,3.908-3.747,6.595-6.455,6.002
			c-2.709-0.594-4.21-4.243-3.353-8.152c0.857-3.908,3.747-6.595,6.455-6.002C452.032,427.311,453.533,430.961,452.676,434.869z"/>
	</g>
</g>
<g id="Background_simple" style="display:none;">
	<g style="display:inline;">
		<path style="fill:#407BFF;" d="M293.432,43.293c-30.107,3.764-59.14,11.778-84.889,24.347
			c-30.348,14.815-61.356,37.894-52.198,68.082c16.908,55.731,98.021,56.746,81.825,94.219
			c-18.344,42.446-6.042,92.235,76.273,106.081C470.791,362.32,659.79,208.446,606.707,123.894
			C573.66,71.256,453.295,23.308,293.432,43.293z"/>
		<path style="opacity:0.9;fill:#FFFFFF;" d="M293.432,43.293c-30.107,3.764-59.14,11.778-84.889,24.347
			c-30.348,14.815-61.356,37.894-52.198,68.082c16.908,55.731,98.021,56.746,81.825,94.219
			c-18.344,42.446-6.042,92.235,76.273,106.081C470.791,362.32,659.79,208.446,606.707,123.894
			C573.66,71.256,453.295,23.308,293.432,43.293z"/>
	</g>
</g>
<g id="Shadow">
	<g>
		<g>
			<ellipse style="fill:#F5F5F5;" cx="375" cy="465.33" rx="315.658" ry="5.164"/>
		</g>
	</g>
</g>
<g id="Flask">
	<g>
		<g>
			<path style="fill:#407BFF;" d="M347.432,446.632l-18.118-88.073H296.98h-3.582h-32.333l-18.118,88.073
				c-1.339,6.51,2.973,12.747,8.812,12.747h41.64h3.582h41.64C344.459,459.38,348.771,453.142,347.432,446.632z"/>
			<g>
				<path style="fill:#407BFF;" d="M296.98,358.559h-37.644c-2.048,0-3.709-1.661-3.709-3.709l0,0c0-2.049,1.661-3.709,3.709-3.709
					h37.644V358.559z"/>
				<path style="fill:#407BFF;" d="M293.398,358.559h37.644c2.048,0,3.709-1.661,3.709-3.709l0,0c0-2.049-1.661-3.709-3.709-3.709
					h-37.644V358.559z"/>
			</g>
			<g style="opacity:0.3;">
				<path style="fill:#FFFFFF;" d="M296.98,358.559h-37.644c-2.048,0-3.709-1.661-3.709-3.709l0,0c0-2.049,1.661-3.709,3.709-3.709
					h37.644V358.559z"/>
				<path style="fill:#FFFFFF;" d="M293.398,358.559h37.644c2.048,0,3.709-1.661,3.709-3.709l0,0c0-2.049-1.661-3.709-3.709-3.709
					h-37.644V358.559z"/>
			</g>
			<path style="opacity:0.3;fill:#FFFFFF;" d="M347.432,446.632l-18.118-88.073H296.98h-3.582h-32.333l-18.118,88.073
				c-1.339,6.51,2.973,12.747,8.812,12.747h41.64h3.582h41.64C344.459,459.38,348.771,453.142,347.432,446.632z"/>
			<path style="opacity:0.3;fill:#FFFFFF;" d="M325.373,358.559h-60.118l-16.813,87.178c-0.748,3.878,1.829,7.553,5.297,7.553
				h39.997h3.155h39.997c3.467,0,6.045-3.675,5.297-7.553L325.373,358.559z"/>
			<polygon style="opacity:0.2;" points="261.065,358.559 260.484,361.385 329.895,361.385 329.314,358.559 			"/>
			<path style="opacity:0.3;fill:#FFFFFF;" d="M275.207,355.329h-13.501c-0.675,0-1.222-0.547-1.222-1.222l0,0
				c0-0.675,0.547-1.222,1.222-1.222h13.501c0.675,0,1.222,0.547,1.222,1.222l0,0C276.43,354.782,275.883,355.329,275.207,355.329z"
				/>
			<path style="opacity:0.3;fill:#FFFFFF;" d="M280.019,355.329h-1.371c-0.675,0-1.222-0.547-1.222-1.222l0,0
				c0-0.675,0.547-1.222,1.222-1.222h1.371c0.675,0,1.222,0.547,1.222,1.222l0,0C281.241,354.782,280.694,355.329,280.019,355.329z"
				/>
			<path style="fill:#407BFF;" d="M342.186,445.737l-8.009-41.526l-77.819,0.477l-7.917,41.049
				c-0.748,3.878,1.829,7.553,5.297,7.553h39.997h3.155h39.997C340.356,453.29,342.934,449.615,342.186,445.737z"/>
			<path style="fill:#407BFF;" d="M295.355,402.547c-21.537,0-38.997,0.959-38.997,2.141c0,1.182,17.459,2.141,38.997,2.141
				c21.537,0,38.997-0.958,38.997-2.141C334.352,403.506,316.892,402.547,295.355,402.547z"/>
			<path style="opacity:0.3;" d="M295.355,402.547c-21.537,0-38.997,0.959-38.997,2.141c0,1.182,17.459,2.141,38.997,2.141
				c21.537,0,38.997-0.958,38.997-2.141C334.352,403.506,316.892,402.547,295.355,402.547z"/>
		</g>
		<g style="opacity:0.3;">
			<path style="fill:#FFFFFF;" d="M277.778,373.029c2.331,1.197,1.685,4.387,1.488,5.667c-1.419,9.191-1.87,15.981-3.798,25.126
				c-0.595,2.822-1.621,5.675-3.615,7.758c-1.994,2.083-5.52,3.006-7.79,1.227c-2.46-1.928-2.205-5.66-1.715-8.747
				c1.014-6.386,2.028-12.771,3.041-19.157c0.409-2.578,0.834-5.204,2.017-7.53c1.183-2.326,3.271-4.346,5.847-4.765
				C273.252,372.608,276.371,372.307,277.778,373.029z"/>
		</g>
		<path style="opacity:0.3;fill:#FFFFFF;" d="M270.501,432.348c-0.929,4.238-4.063,7.151-6.999,6.507
			c-2.937-0.644-4.564-4.601-3.635-8.838c0.929-4.238,4.063-7.151,6.999-6.507C269.802,424.153,271.43,428.111,270.501,432.348z"/>
		<path style="opacity:0.1;" d="M336.842,451.108h-39.997h-3.155h-39.997c-2.72,0-4.884-2.264-5.333-5.112
			c-0.587,3.78,1.944,7.294,5.333,7.294h39.997h3.155h39.997c3.39,0,5.92-3.513,5.333-7.294
			C341.726,448.844,339.562,451.108,336.842,451.108z"/>
	</g>
</g>
<g id="Brain">
	<g>
		<g>
			<g>
				<path style="fill:#407BFF;" d="M437.493,305.953c-2.071,10.58-13.534,37.097-21.021,44.854
					c-2.151,2.229-5.021,4.434-8.042,3.748c-2.157-0.49-3.728-2.355-4.802-4.288c-2.829-5.089-3.291-11.098-4.21-16.848
					c-2.654-16.609-9.67-32.501-20.153-45.654l43.936-12.958L437.493,305.953z"/>
			</g>
			<g style="opacity:0.3;">
				<path d="M437.493,305.953c-2.071,10.58-13.534,37.097-21.021,44.854c-2.151,2.229-5.021,4.434-8.042,3.748
					c-2.157-0.49-3.728-2.355-4.802-4.288c-2.829-5.089-3.291-11.098-4.21-16.848c-2.654-16.609-9.67-32.501-20.153-45.654
					l43.936-12.958L437.493,305.953z"/>
			</g>
			<path style="fill:#407BFF;" d="M295.137,250.668c0,0-63.301,5.874-61.566-62.963c0,0-9.618-33.937,20.495-45.21
				c0,0,4.049-28.923,35.865-30.659c0,0,21.982-28.923,61.317-21.403c0,0,34.465-19.106,66.281,0.562
				c0,0,21.068-7.503,32.637,11.007c0,0,41.071-1.157,52.641,34.708c0,0,26.609,8.098,23.717,35.865
				c0,0,37.553,34.808,15.571,82.821c0,0-14.414,30.559-47.387,32.873c0,0-5.206,30.08-43.385,30.08c0,0-12.325,2.696-23.308-1.134
				c-12.431-4.335-18.322-18.58-13.136-30.681l0,0c0,0-53.219,5.785-71.151,3.471C325.796,287.689,300.343,279.012,295.137,250.668z
				"/>
			<path style="fill:none;stroke:#000000;stroke-width:0.5;stroke-linecap:round;stroke-linejoin:round;stroke-miterlimit:10;" d="
				M296.998,249.345c-1.407-12.569,3.749-25.692,13.335-33.942c9.586-8.25,23.331-11.393,35.55-8.129
				c3.746,1.001,7.67,2.567,11.368,1.402c2.425-0.764,4.334-2.596,6.273-4.241c12.347-10.477,29.557-14.961,45.447-11.843
				c-1.674-9.635,1.624-19.999,8.557-26.895"/>
			<path style="fill:none;stroke:#000000;stroke-width:0.5;stroke-linecap:round;stroke-linejoin:round;stroke-miterlimit:10;" d="
				M258.07,165.391c-12.509,12.269-13.941,33.341-5.318,48.594c8.623,15.253,25.669,24.642,43.083,26.587"/>
			<path style="fill:none;stroke:#000000;stroke-width:0.5;stroke-linecap:round;stroke-linejoin:round;stroke-miterlimit:10;" d="
				M291.327,113.76c-8.931,5.82-13.412,17.695-10.552,27.964s12.835,18.118,23.488,18.484"/>
			<path style="fill:none;stroke:#000000;stroke-width:0.5;stroke-linecap:round;stroke-linejoin:round;stroke-miterlimit:10;" d="
				M357.669,158.958c10.77-2.94,16.008-13.387,15.883-23.36c-0.125-9.973-8.086-19.619-18.02-20.511
				c-5.12-0.46-10.215,1.235-14.788,3.583"/>
			<path style="fill:none;stroke:#000000;stroke-width:0.5;stroke-linecap:round;stroke-linejoin:round;stroke-miterlimit:10;" d="
				M397.742,153.767c-0.318-8.371,3.828-16.783,10.66-21.63c6.832-4.847,16.141-5.98,23.937-2.914
				c-2.072-5.668-1.425-12.264,1.711-17.42c3.135-5.157,8.693-8.767,14.678-9.536"/>
			<path style="fill:none;stroke:#000000;stroke-width:0.5;stroke-linecap:round;stroke-linejoin:round;stroke-miterlimit:10;" d="
				M440.32,155.323c7.376,0.109,14.66,3.28,19.766,8.604c5.106,5.324,7.97,12.734,7.771,20.108"/>
			<path style="fill:none;stroke:#000000;stroke-width:0.5;stroke-linecap:round;stroke-linejoin:round;stroke-miterlimit:10;" d="
				M480.509,152.06c9.576-2.55,20.417,0.395,27.387,7.439c6.97,7.044,9.8,17.916,7.15,27.464c6.109,0.085,11.779,3.988,14.936,9.219
				s4.032,11.599,3.474,17.683c-0.979,10.688-6.325,20.91-14.544,27.811c-8.219,6.901-19.213,10.397-29.909,9.511"/>
			<path style="fill:none;stroke:#000000;stroke-width:0.5;stroke-linecap:round;stroke-linejoin:round;stroke-miterlimit:10;" d="
				M420.783,90.161c-5.624,1.029-10.859,4.069-14.541,8.444c-3.682,4.375-5.783,10.052-5.837,15.769"/>
			<path style="fill:none;stroke:#000000;stroke-width:0.5;stroke-linecap:round;stroke-linejoin:round;stroke-miterlimit:10;" d="
				M327.626,245.832c16.8,6.147,34.133,11.269,51.958,12.775c17.825,1.507,36.267-0.765,52.262-8.777
				c15.995-8.012,29.304-22.16,34.169-39.375"/>
			<path style="fill:none;stroke:#000000;stroke-width:0.5;stroke-linecap:round;stroke-linejoin:round;stroke-miterlimit:10;" d="
				M455.089,231.895c6.786-0.064,13.522,3.251,17.611,8.668"/>
			<path style="fill:none;stroke:#000000;stroke-width:0.5;stroke-linecap:round;stroke-linejoin:round;stroke-miterlimit:10;" d="
				M413.617,288.357c16.016-10.126,36.811-12.285,54.566-5.665"/>
			<path style="fill:none;stroke:#000000;stroke-width:0.5;stroke-linecap:round;stroke-linejoin:round;stroke-miterlimit:10;" d="
				M331.163,205.056c2.738-4.637,3.595-10.348,2.341-15.585c-1.254-5.237-4.607-9.94-9.148-12.833"/>
			<path style="fill:none;stroke:#000000;stroke-width:0.5;stroke-linecap:round;stroke-linejoin:round;stroke-miterlimit:10;" d="
				M353.108,114.63c-0.134-3.359,0.546-6.747,1.965-9.794"/>
			<g style="opacity:0.3;">
				<path d="M463.428,218.566c0.481-0.411,0.962-0.822,1.444-1.233c2.11,12.727-5.74,25.581-16.898,33.232
					c-11.158,7.652-25.11,10.899-38.851,12.67c-13.783,1.777-27.888,2.233-41.559-0.18c-13.67-2.413-26.93-7.829-37.046-16.699
					c0,0,30.185,12.992,71.38,10.087C443.093,253.538,463.428,218.566,463.428,218.566z"/>
			</g>
			<g style="opacity:0.3;">
				<path d="M302.799,223.887c6.198-11.115,11.18-19.788,21.437-24.055c10.257-4.267,22.44-3.605,32.174,1.751
					c6.645-7.163,15.64-12.109,25.248-13.883c9.608-1.774,19.776-0.366,28.541,3.951c-7.956-0.109-15.974-0.213-23.799,1.23
					c-7.825,1.443-15.54,4.554-21.25,10.097c-2.447,2.375-3.424,3.824-6.595,5.079c-4.376,1.732-8.975,0.673-13.456-0.763
					C330.034,202.463,312.735,209.549,302.799,223.887"/>
			</g>
			<g style="opacity:0.3;">
				<path style="fill:#FFFFFF;" d="M294.899,166.921c-3.097-3.603-13.638-5.455-21.367-1.448
					c-7.911,2.819-12.044,11.753-12.767,20.121c-0.54,6.251,0.422,12.81,3.829,18.079c3.407,5.268,9.536,8.994,15.788,8.473
					c6.252-0.52,12.035-5.953,11.962-12.227c-0.05-4.332-2.602-8.829-0.813-12.774c1.242-2.74,4.249-4.275,5.799-6.854
					C299.78,176.218,299.672,172.474,294.899,166.921z"/>
			</g>
			<g style="opacity:0.3;">
				<path style="fill:#FFFFFF;" d="M296.069,128.1c-1.521,0.907-2.462,2.608-2.726,4.359c-0.264,1.751,0.085,3.548,0.69,5.212
					c0.736,2.025,1.904,3.967,3.678,5.189c1.775,1.222,4.23,1.594,6.11,0.541c1.716-0.961,2.689-2.952,2.794-4.916
					c0.106-1.964-0.55-3.901-1.459-5.645c-0.927-1.778-2.174-3.458-3.905-4.47c-1.731-1.012-4.012-1.243-5.725-0.201"/>
			</g>
			<g style="opacity:0.3;">
				<path style="fill:#FFFFFF;" d="M386.37,217.32c-2.052-3.122-6.115-4.387-9.846-4.206c-3.732,0.181-7.331,5.341-10.901,6.441
					c-12.069,3.72-16.361-3.277-35.874,0.418c-4.147,0.751-8.385,1.534-12.048,3.618c-3.663,2.085-6.706,5.756-6.867,9.968
					c-0.162,4.212,3.409,8.546,7.609,8.2c4.984-0.411,7.503-6.167,11.67-8.932c3.802-2.523,8.818-2.366,13.221-1.169
					c4.403,1.198,8.513,3.318,12.919,4.506c7.135,1.923,14.936,1.265,21.647-1.827c3.275-1.508,6.378-3.67,8.23-6.763
					C387.981,224.48,388.349,220.333,386.37,217.32z"/>
			</g>
			
				<ellipse transform="matrix(0.7301 -0.6834 0.6834 0.7301 -36.4452 338.1681)" style="opacity:0.3;fill:#FFFFFF;" cx="409.833" cy="215.217" rx="7.696" ry="7.696"/>
			<g style="opacity:0.3;">
				<path d="M530.001,258.523c-11.898,11.751-27.948,19.21-44.601,20.728c3.046,10.38-1.522,21.995-9.525,29.274
					c-4.942,4.496-10.981,7.522-17.41,9.438c31.693-3.47,36.243-29.695,36.243-29.695c32.973-2.314,47.387-32.873,47.387-32.873
					c4.782-10.444,6.744-20.263,6.891-29.235C545.571,238.335,539.002,249.633,530.001,258.523z"/>
			</g>
			<g style="opacity:0.3;">
				<path style="fill:#FFFFFF;" d="M433.049,141.957c-0.026-2.977-2.369-5.124-4.976-6.06c-0.021-0.008-0.042-0.015-0.063-0.022
					c-4.924-1.732-10.507-0.524-14.372,2.985c-0.757,0.687-1.465,1.459-2.126,2.311c-1.643,2.119-2.811,4.757-2.07,7.523
					c0.22,0.822,0.644,1.596,1.249,2.195c2.503,2.478,6.025,1.205,8.594-0.545c2.181-1.486,4.252-3.377,6.856-3.808
					c2.182-0.361,4.594,0.346,6.209-2.175C432.808,143.649,433.056,142.803,433.049,141.957z"/>
			</g>
			<g style="opacity:0.3;">
				<path d="M534.625,213.09c3.535,11.454-0.133,24.805-9.024,32.845c-8.891,8.04-22.542,10.351-33.584,5.686
					c0,0,16.694-0.911,26.894-9.946C531.339,230.667,534.625,213.09,534.625,213.09z"/>
			</g>
			<g style="opacity:0.3;">
				<path d="M373.533,138.35c-0.194,7.119-3.979,14.05-9.864,18.061c-5.885,4.011-13.72,5-20.417,2.577l1.622,1.017
					c6.396,5.003,16.174,5.084,22.653,0.189C374.006,155.299,376.598,145.87,373.533,138.35z"/>
			</g>
		</g>
		<g>
			<circle style="fill:#407BFF;" cx="540.611" cy="118.804" r="11.79"/>
			<circle style="fill:#407BFF;" cx="369.911" cy="310.144" r="6.865"/>
			<circle style="fill:#407BFF;" cx="282.514" cy="89.821" r="6.865"/>
			<path style="fill:#407BFF;" d="M521.592,108.067c0,3.256-2.639,5.895-5.895,5.895c-3.256,0-5.895-2.639-5.895-5.895
				c0-3.256,2.639-5.895,5.895-5.895C518.953,102.172,521.592,104.812,521.592,108.067z"/>
			<path style="fill:#407BFF;" d="M347.131,308.072c0,1.896-1.537,3.433-3.433,3.433c-1.896,0-3.433-1.537-3.433-3.433
				c0-1.896,1.537-3.433,3.433-3.433C345.594,304.639,347.131,306.176,347.131,308.072z"/>
			<path style="fill:#407BFF;" d="M298.047,75.228c0,1.896-1.537,3.433-3.433,3.433c-1.896,0-3.433-1.537-3.433-3.433
				c0-1.896,1.537-3.433,3.433-3.433C296.51,71.795,298.047,73.332,298.047,75.228z"/>
			<circle style="fill:#407BFF;" cx="529.763" cy="102.198" r="2.388"/>
			<path style="fill:#407BFF;" d="M352.042,321.358c0,0.768-0.622,1.39-1.39,1.39c-0.768,0-1.39-0.622-1.39-1.39
				s0.622-1.39,1.39-1.39C351.419,319.968,352.042,320.59,352.042,321.358z"/>
			<path style="fill:#407BFF;" d="M281.978,73.449c0,1.148-0.931,2.078-2.078,2.078c-1.148,0-2.078-0.931-2.078-2.078
				c0-1.148,0.931-2.078,2.078-2.078C281.048,71.37,281.978,72.301,281.978,73.449z"/>
			<circle style="opacity:0.4;fill:#FFFFFF;" cx="282.514" cy="89.821" r="6.865"/>
			<path style="opacity:0.4;fill:#FFFFFF;" d="M298.047,75.228c0,1.896-1.537,3.433-3.433,3.433c-1.896,0-3.433-1.537-3.433-3.433
				c0-1.896,1.537-3.433,3.433-3.433C296.51,71.795,298.047,73.332,298.047,75.228z"/>
			<path style="opacity:0.4;fill:#FFFFFF;" d="M281.978,73.449c0,1.148-0.931,2.078-2.078,2.078c-1.148,0-2.078-0.931-2.078-2.078
				c0-1.148,0.931-2.078,2.078-2.078C281.048,71.37,281.978,72.301,281.978,73.449z"/>
			<circle style="opacity:0.4;fill:#FFFFFF;" cx="540.611" cy="118.804" r="11.79"/>
			<path style="opacity:0.4;fill:#FFFFFF;" d="M521.592,108.067c0,3.256-2.639,5.895-5.895,5.895c-3.256,0-5.895-2.639-5.895-5.895
				c0-3.256,2.639-5.895,5.895-5.895C518.953,102.172,521.592,104.812,521.592,108.067z"/>
			<circle style="opacity:0.4;fill:#FFFFFF;" cx="529.763" cy="102.198" r="2.388"/>
			<circle style="opacity:0.3;fill:#FFFFFF;" cx="369.911" cy="310.144" r="6.865"/>
			<path style="opacity:0.3;fill:#FFFFFF;" d="M347.131,308.072c0,1.896-1.537,3.433-3.433,3.433c-1.896,0-3.433-1.537-3.433-3.433
				c0-1.896,1.537-3.433,3.433-3.433C345.594,304.639,347.131,306.176,347.131,308.072z"/>
			<path style="opacity:0.3;fill:#FFFFFF;" d="M352.042,321.358c0,0.768-0.622,1.39-1.39,1.39c-0.768,0-1.39-0.622-1.39-1.39
				s0.622-1.39,1.39-1.39C351.419,319.968,352.042,320.59,352.042,321.358z"/>
		</g>
	</g>
</g>
<g id="Speech_Bubble">
	<g>
		<g>
			<g>
				<path style="fill:#407BFF;" d="M200.259,74.307H172.44c-7.134,0-12.917,5.783-12.917,12.917v15.589
					c0,7.134,5.783,12.917,12.917,12.917h6.328l1.011,7.203l7.678-7.203h12.804c7.133,0,12.916-5.783,12.916-12.917V87.223
					C213.176,80.089,207.393,74.307,200.259,74.307z"/>
			</g>
			<g>
				<path style="fill:#FFFFFF;" d="M195.41,94.748c0,1.836,1.488,3.325,3.325,3.325c1.836,0,3.325-1.489,3.325-3.325
					c0-1.837-1.489-3.325-3.325-3.325C196.899,91.423,195.41,92.911,195.41,94.748z"/>
				<circle style="fill:#FFFFFF;" cx="187.408" cy="94.748" r="3.325"/>
				<circle style="fill:#FFFFFF;" cx="175.781" cy="94.748" r="3.325"/>
			</g>
		</g>
		<g>
			<g>
				<path style="fill:#407BFF;" d="M200.977,71.853c-5.882,0-11.763,0-17.645,0c-0.483,0-0.483,0.75,0,0.75
					c5.882,0,11.763,0,17.645,0C201.46,72.603,201.461,71.853,200.977,71.853L200.977,71.853z"/>
			</g>
		</g>
		<g>
			<g>
				<path style="fill:#407BFF;" d="M181.119,71.853c-0.493,0-0.985,0-1.478,0c-0.196,0-0.384,0.172-0.375,0.375
					c0.009,0.203,0.165,0.375,0.375,0.375c0.493,0,0.985,0,1.478,0c0.196,0,0.384-0.173,0.375-0.375
					C181.485,72.025,181.329,71.853,181.119,71.853L181.119,71.853z"/>
			</g>
		</g>
	</g>
</g>
<g id="Character_2">
	<g>
		<g>
			<path style="fill:#263238;" d="M631.651,172.092c-3.916,10.701,6.5,16.079,13.323,31.84c6.822,15.76-9.637,34.573-34.898,34.987
				c-25.261,0.413-26.057-23.793-22.145-41.149c3.912-17.356-4.268-20.188-2.532-33.441c2.282-17.42,27.328-30.619,37.292-14.631
				C631.548,148.862,635.074,162.738,631.651,172.092z"/>
			<path style="fill:#FFC3BD;" d="M614.271,259.582l0.055-1.407c0.026-0.681,0.2-1.349,0.508-1.957l4.401-8.681l5.153-1.034
				c3.643,3.941,0.048,11.776,0.048,11.776v1.285c0,2.112-1.399,3.969-3.43,4.55l-0.701,0.201
				C617.207,265.203,614.147,262.802,614.271,259.582z"/>
		</g>
		<path style="fill:#407BFF;" d="M587.981,196.629c-7.088,7.414-11.77,26.184-12.389,26.631l-9.886,10.753
			c10.035,9.584,14.941,10.504,20.243,2.877c4.859-6.989,16.046-31.2,16.046-31.2L587.981,196.629z"/>
		<path style="fill:#407BFF;" d="M597.772,271.004l21.023,89.375l17.135,80.407l18.969-5.751c0,0-3.551-31.165-9.653-57.22
			c-1.401-6.005-4.448-12.408-5.168-17.265c-0.652-4.253-0.698-15.364-1.185-25.291c-0.574-12-3.339-21.607-7.544-33.053
			c0,0,8.253-16.079,0.117-32.215L597.772,271.004z"/>
		<path style="fill:#407BFF;" d="M615.037,275.004l-32.585-8.662l-5.353,91.603l-3.111,84.122h16.735c0,0,5.452-30.41,7.048-57.117
			c0.36-6.151,0.408-16.562,1.089-21.418c0.594-4.263,1.459-8.839,3.843-18.455c2.871-11.679,3.769-27.045,3.039-39.23
			C605.743,305.847,618.239,292.795,615.037,275.004z"/>
		<g>
			<path style="fill:#263238;" d="M565.548,460.592c1.299-0.772,2.772-1.358,4.348-1.729l0,0c0,0,4.731-3.445,7.179-13.974
				l6.156-1.135c2.116-0.348,4.295,0.329,5.48,1.702c0.164,0.194,0.293,0.403,0.383,0.622c0.28,1.12,0.469,2.252,0.566,3.39
				c0.253,3.868,0.204,7.744-0.146,11.608h-1.151l-0.274-7.291c0-2.477-2.685,0.401-3.453,3.044
				c-0.767,2.643-2.356,5.534-9.517,5.534C566.881,462.391,563.41,462.114,565.548,460.592z"/>
			<path style="fill:#FFC3BD;" d="M577.954,442.067c0,0-1.099,3.859-3.364,9.186c-0.932,2.744-2.55,5.327-4.768,7.61
				c0,0,5.352,0.789,7.727-1.909c2.375-2.698,5.736-11.995,11.162-11.442c-0.408-0.69-1.344-2.847-1.956-3.444H577.954z"/>
		</g>
		<g>
			<path style="fill:#263238;" d="M638.109,460.01c0.911-1.205,2.054-2.304,3.373-3.243l0,0c0,0,3.08-4.977,1.372-15.65l5.272-3.375
				c1.828-1.121,4.102-1.317,5.717-0.493c0.225,0.117,0.423,0.262,0.59,0.432c0.682,0.932,1.285,1.909,1.804,2.925
				c1.695,3.486,3.113,7.094,4.248,10.804l-1.066,0.435l-3.007-6.648c-0.935-2.293-2.335,1.385-2.048,4.122
				c0.287,2.737-0.092,6.014-6.723,8.718C640.023,461.172,636.705,462.226,638.109,460.01z"/>
			<path style="fill:#FFC3BD;" d="M642.649,438.749c0,0,0.229,3.318,0.307,9.199c0.173,2.893-0.35,5.896-1.542,8.846
				c0,0,5.254-1.291,6.434-4.686c1.18-3.395,0.782-13.273,6.015-14.809c-0.638-0.485-1.361-0.892-2.153-1.214L642.649,438.749z"/>
		</g>
		<g style="opacity:0.3;">
			<path d="M587.966,204.742c-1.068,1.825-1.435,2.865-2.104,4.967c-0.669,2.102-1.037,5.927-1.203,7.902l3.609,1.04
				C588.127,213.828,588.106,209.566,587.966,204.742z"/>
		</g>
		<path style="fill:#407BFF;" d="M635.127,219.105l5.15-20.245c-3.756-5.605-21.553-9.913-21.553-9.913l-12.243,0.67
			c0,0-4.706,1.05-8.734,2.364c-5.379,1.754-8.287,3.165-9.569,6.149c0,0-2.244,6.612-0.895,20.238
			c0.371,3.747,1.219,23.521,0.173,29.956l-6.563,16.328c22.371,17.422,51.225-1.994,51.225-1.994
			c-1.006-3.076-4.473-9.336-4.928-12.342c0.328-3.835,1.405-6.354,3.029-13.07C630.533,235.95,634.582,220.365,635.127,219.105z"/>
		<path style="opacity:0.3;enable-background:new    ;" d="M635.127,219.105l5.15-20.245c-3.756-5.605-21.553-9.913-21.553-9.913
			l-12.243,0.67c0,0-4.706,1.05-8.734,2.364c-5.379,1.754-8.287,3.165-9.569,6.149c0,0-2.244,6.612-0.895,20.238
			c0.371,3.747,1.219,23.521,0.173,29.956l-6.563,16.328c22.371,17.422,51.225-1.994,51.225-1.994
			c-1.006-3.076-4.473-9.336-4.928-12.342c0.328-3.835,1.405-6.354,3.029-13.07C630.533,235.95,634.582,220.365,635.127,219.105z"/>
		<g>
			<path style="fill:#407BFF;" d="M579.163,323.838c0,0-10.694,0.112-10.694-4.857c0-4.969,11.185-57.759,12.424-66.765
				c1.239-9.006,7.088-55.587,7.088-55.587c1.963-2.315,5.845-3.493,9.766-4.648L579.163,323.838z"/>
			<path style="opacity:0.8;fill:#FFFFFF;" d="M579.163,323.838c0,0-10.694,0.112-10.694-4.857c0-4.969,11.185-57.759,12.424-66.765
				c1.239-9.006,7.088-55.587,7.088-55.587c1.963-2.315,5.845-3.493,9.766-4.648L579.163,323.838z"/>
		</g>
		<path style="opacity:0.3;" d="M586.842,235.529c0,0-8.588-4.537-9.237-6.485c-0.649-1.948-1.548-7.161,4.418-9.554
			c1.981-0.794,5.467,0.994,5.467,0.994v14.147L586.842,235.529z"/>
		<g>
			<g>
				<g>
					<g>
						<path style="fill:#FFC3BD;" d="M621.609,190.493c0,0-3.634,2.794-8.312,6.826c-0.975,0.84-2.048,1.566-3.184,2.17
							c-3.066,1.628-5.86,2.56-6.617,1.082c-0.168-0.325-0.298-0.677-0.393-1.046c-0.643-2.475-0.379-5.955,1.622-7.547
							c2.256-1.796,3.343-3.332,2.937-5.762c-0.214-1.378-0.712-2.8-1.295-4.182l2.605-1.564l9.284-9.37
							C617.193,176.845,616.719,187.097,621.609,190.493z"/>
					</g>
					<path style="opacity:0.2;" d="M607.736,186.749c2.553-1.516,5.355-4.145,5.019-7.149c-0.15-1.265-0.422-2.463-0.725-3.231
						l-5.186,6.867C607.269,184.342,607.425,185.074,607.736,186.749z"/>
					<path style="fill:#FFC3BD;" d="M620.053,160.536c-0.874,9.539-1.042,13.585-5.965,18.586
						c-7.404,7.524-18.796,4.993-20.757-4.462c-1.765-8.51-0.04-22.68,9.325-26.689
						C611.883,144.021,620.927,150.997,620.053,160.536z"/>
					<path style="fill:#263238;" d="M607.698,163.642c-0.047,1.009-0.594,1.838-1.221,1.851c-0.627,0.013-1.097-0.795-1.051-1.804
						c0.047-1.009,0.594-1.838,1.221-1.851C607.274,161.825,607.744,162.632,607.698,163.642z"/>
					<path style="fill:#263238;" d="M598.29,163.613c-0.047,0.978-0.593,1.781-1.218,1.795c-0.625,0.013-1.094-0.769-1.046-1.747
						c0.048-0.978,0.593-1.781,1.218-1.794C597.869,161.853,598.337,162.635,598.29,163.613z"/>
					<path style="fill:#263238;" d="M609.688,160.126c-0.122,0.014-0.245-0.022-0.339-0.109c-1.47-1.361-3.124-0.883-3.143-0.877
						c-0.245,0.071-0.493-0.067-0.55-0.318c-0.055-0.25,0.1-0.512,0.349-0.588c0.086-0.026,2.163-0.627,3.987,1.062
						c0.182,0.168,0.185,0.467,0.008,0.666C609.914,160.058,609.802,160.114,609.688,160.126z"/>
					<path style="fill:#263238;" d="M595.126,158.826c-0.096-0.032-0.176-0.104-0.218-0.208c-0.087-0.216,0.019-0.491,0.237-0.613
						c2.18-1.226,3.796-0.294,3.865-0.253c0.192,0.114,0.238,0.385,0.103,0.605c-0.134,0.22-0.399,0.306-0.591,0.193
						c-0.063-0.038-1.328-0.739-3.062,0.236C595.348,158.85,595.228,158.86,595.126,158.826z"/>
					<path style="fill:#ED847E;" d="M600.849,163.148c0,0-1.492,3.571-3.176,5.797c-0.294,0.389-0.112,0.957,0.345,1.125
						c1.178,0.434,2.557,0.041,2.557,0.041L600.849,163.148z"/>
				</g>
				<path style="fill:#263238;" d="M607.006,161.88l-2.189-0.517C604.816,161.362,606.014,162.995,607.006,161.88z"/>
				<path style="fill:#263238;" d="M597.469,161.888l-2.189-0.517C595.279,161.371,596.477,163.004,597.469,161.888z"/>
				<path style="fill:#263238;" d="M617.876,166.711c-2.336,1.046-5.41-10.199-4.933-13.02c-4.862,1.346-8.422-0.564-8.205-1.389
					c-3.43,3.343-9.637,5.991-8.943,2.388c0.695-3.603,6.81-10.735,16.404-8.39c9.594,2.344,11.77,12.728,11.683,16.724
					C623.796,167.018,617.876,166.711,617.876,166.711z"/>
				<path style="fill:#FFC3BD;" d="M622.939,168.311c-1.127,1.956-2.958,3.185-4.636,3.606c-2.525,0.633-3.829-3.426-2.967-5.956
					c0.776-2.277,3.257-3.785,5.714-3.288C623.471,163.162,624.227,166.074,622.939,168.311z"/>
			</g>
			
				<path style="opacity:0.2;fill:none;stroke:#000000;stroke-width:0.5;stroke-linecap:round;stroke-linejoin:round;stroke-miterlimit:10;" d="
				M617.603,167.802c0.06-0.903,0.491-1.777,1.172-2.374c0.681-0.597,1.602-0.911,2.506-0.854"/>
			<path style="fill:#263238;" d="M601.574,172.103c0.774,0.868,1.813,2.62,1.813,2.62c0.176-0.065,0.352-0.131,0.523-0.206
				c2.361-0.949,3.143-2.169,3.294-3.234c0.08-0.583-0.036-1.123-0.185-1.542c-0.168-0.486-0.398-0.794-0.398-0.794
				c-0.951,1.251-3.084,2.304-4.247,2.82C601.889,171.987,601.574,172.103,601.574,172.103z"/>
			<path style="fill:#FFFFFF;" d="M602.374,171.767l0.555,0.759c2.222-0.899,3.665-1.83,4.091-2.784
				c-0.168-0.486-0.398-0.794-0.398-0.794C605.67,170.198,603.537,171.251,602.374,171.767z"/>
			<path style="fill:#DE5753;" d="M603.911,174.518c2.361-0.949,3.143-2.169,3.294-3.234c-0.792,0.354-1.708,0.87-2.413,1.573
				C604.251,173.392,604.011,173.98,603.911,174.518z"/>
		</g>
		<g>
			<path style="fill:#407BFF;" d="M624.879,190.711c0,0-6.128,7.058-7.728,16.602c-1.6,9.545-3.555,120.098-3.199,121.342
				c0.356,1.244,33.593-0.711,35.37-4.088c1.777-3.377-5.154-43.901-7.287-51.722c-2.133-7.82-5.556-11.724-6.67-17.952
				c-1.135-6.346,5.561-58.263,5.24-55.755C641.132,198.541,631.273,191.348,624.879,190.711z"/>
			<path style="opacity:0.8;fill:#FFFFFF;" d="M624.879,190.711c0,0-6.128,7.058-7.728,16.602
				c-1.6,9.545-3.555,120.098-3.199,121.342c0.356,1.244,33.593-0.711,35.37-4.088c1.777-3.377-5.154-43.901-7.287-51.722
				c-2.133-7.82-5.556-11.724-6.67-17.952c-1.135-6.346,5.561-58.263,5.24-55.755C641.132,198.541,631.273,191.348,624.879,190.711z
				"/>
		</g>
		<path style="opacity:0.3;enable-background:new    ;" d="M601.449,242.618c0,0,14.799,14.617,24.654,14.688
			c9.856,0.072,9.514-1.197,9.514-1.197l0.002-4.313L601.449,242.618z"/>
		<path style="opacity:0.3;enable-background:new    ;" d="M615.838,232.756l8.301,0.979l1.889-14.449c0,0,1.988,18.343,0.88,18.958
			C625.801,238.859,615.838,232.756,615.838,232.756z"/>
		<path style="opacity:0.3;enable-background:new    ;" d="M579.48,317.203c0,0,6.219,5.204,17.077,0
			c10.857-5.204,9.699-15.087,9.549-18.449c-0.126-2.821-7.902-61.868-7.902-61.868l-2.354-2.966l-8.361,0.712L579.48,317.203z"/>
		<g>
			<g>
				<g>
					<path style="fill:#407BFF;" d="M592.15,316.535l-4.288,0.542c-7.502,0.949-14.353-4.364-15.301-11.866l-14.363-113.596
						c-0.569-4.497,2.616-8.603,7.113-9.172l15.171-1.918c4.497-0.569,8.603,2.616,9.172,7.113l14.363,113.596
						C604.964,308.736,599.652,315.587,592.15,316.535z"/>
					<path style="opacity:0.7;fill:#FFFFFF;" d="M592.15,316.535l-4.288,0.542c-7.502,0.949-14.353-4.364-15.301-11.866
						l-15.392-121.739l31.456-3.977l15.392,121.739C604.964,308.736,599.652,315.587,592.15,316.535z"/>
					<path style="opacity:0.3;fill:#407BFF;" d="M559.713,182.06l15.241,120.541c0.744,5.881,5.889,10.568,12.354,10.774
						c8.491,0.27,14.98-6.466,14.048-13.832l-15.276-120.816L559.713,182.06z"/>
					<path style="fill:#407BFF;" d="M568.651,252.753l6.303,49.848c0.744,5.881,5.889,10.568,12.354,10.774
						c8.491,0.27,14.98-6.466,14.048-13.832l-6.337-50.123L568.651,252.753z"/>
					<path style="opacity:0.3;fill:#FFFFFF;" d="M589.474,311.503c-8.385,0.913-13.993-4.732-14.834-11.39l0.315,2.487
						c0.744,5.881,5.889,10.568,12.354,10.774c8.491,0.27,14.98-6.466,14.048-13.832l-0.349-2.763
						C601.849,303.437,597.629,310.616,589.474,311.503z"/>
					<path style="fill:#407BFF;" d="M591.152,185.986l-33.993,4.298c-1.984,0.251-3.795-1.154-4.046-3.138l-0.143-1.134
						c-0.251-1.984,1.154-3.796,3.138-4.046l33.993-4.298c1.984-0.251,3.795,1.154,4.046,3.138l0.143,1.134
						C594.541,183.924,593.136,185.736,591.152,185.986z"/>
					<path style="opacity:0.7;fill:#FFFFFF;" d="M591.152,185.986l-33.993,4.298c-1.984,0.251-3.795-1.154-4.046-3.138l-0.143-1.134
						c-0.251-1.984,1.154-3.796,3.138-4.046l33.993-4.298c1.984-0.251,3.795,1.154,4.046,3.138l0.143,1.134
						C594.541,183.924,593.136,185.736,591.152,185.986z"/>
					
						<rect x="557.986" y="188.139" transform="matrix(0.9921 -0.1254 0.1254 0.9921 -19.1689 73.4746)" style="opacity:0.3;" width="31.706" height="1.618"/>
					<path style="fill:#407BFF;" d="M595.019,249.419c0.116,0.915-5.693,2.403-12.974,3.324c-7.281,0.921-13.277,0.925-13.393,0.01
						c-0.116-0.915,5.693-2.404,12.974-3.324C588.907,248.508,594.903,248.504,595.019,249.419z"/>
					<path style="opacity:0.3;" d="M595.019,249.419c0.116,0.915-5.693,2.403-12.974,3.324c-7.281,0.921-13.277,0.925-13.393,0.01
						c-0.116-0.915,5.693-2.404,12.974-3.324C588.907,248.508,594.903,248.504,595.019,249.419z"/>
					<path style="opacity:0.4;fill:#FFFFFF;" d="M578.211,275.475l-0.041,0.005c-1.477,0.187-2.814-0.757-2.984-2.108l-3.679-29.099
						c-0.148-1.174,0.637-2.298,1.871-2.678l0.04-0.012c1.612-0.496,3.286,0.467,3.48,2.001l3.68,29.107
						C580.747,274.042,579.688,275.288,578.211,275.475z"/>
					<path style="opacity:0.4;fill:#FFFFFF;" d="M582.417,283.379c0.188,1.483-0.975,2.851-2.597,3.056
						c-1.622,0.205-3.089-0.831-3.276-2.314s0.975-2.851,2.597-3.056C580.763,280.86,582.229,281.896,582.417,283.379z"/>
					<g>
						<path style="fill:#FFFFFF;" d="M593.086,263.647c1.311,9.132,2.469,18.283,3.471,27.454
							C595.245,281.97,594.089,272.818,593.086,263.647L593.086,263.647z"/>
					</g>
				</g>
			</g>
			<g>
				<g>
					<g>
						<path style="fill:#FFC3BD;" d="M563.75,235.224c0,0,9.044,0.889,10.211,2.554c1.167,1.665-1.711,2.032-1.711,2.032
							s3.191-0.21,3.463,1.133c0.327,1.612-2.69,1.983-2.69,1.983s2.613-0.065,2.775,1.146c0.168,1.256-3.207,1.917-3.207,1.917
							s1.848,0.303,1.485,1.208c-0.364,0.905-7.5,2.447-9.854,1.478c-2.354-0.969-3.141-7.284-3.086-9.372
							c0.055-2.088,0.052-4.59,2.25-5.385L563.75,235.224L563.75,235.224z"/>
					</g>
					<g>
						<path style="opacity:0.2;" d="M572.27,239.962c-0.005,0.001-0.009,0.001-0.013,0.001l-5.581,0.1
							c-0.075,0.001-0.139-0.067-0.142-0.151c-0.003-0.085,0.057-0.156,0.129-0.156l5.581-0.099
							c0.075-0.001,0.139,0.067,0.142,0.151C572.389,239.887,572.338,239.954,572.27,239.962z"/>
					</g>
					<g>
						<path style="opacity:0.2;" d="M572.886,243.099c-0.001,0-0.002,0-0.004,0l-5.353,0.522c-0.075,0.007-0.142-0.055-0.151-0.14
							c-0.009-0.085,0.035-0.144,0.119-0.166l5.353-0.522c0.074-0.007,0.142,0.055,0.151,0.14
							C573.01,243.016,572.959,243.089,572.886,243.099z"/>
					</g>
					<g>
						<path style="opacity:0.2;" d="M572.428,246.165l-3.966,0.501c-0.074,0.009-0.143-0.051-0.154-0.136
							c-0.011-0.084,0.041-0.16,0.115-0.17l3.966-0.501c0.075-0.009,0.143,0.051,0.154,0.136
							C572.554,246.08,572.503,246.156,572.428,246.165z"/>
					</g>
				</g>
			</g>
			<g>
				<polygon style="fill:#FFC3BD;" points="597.747,237.024 601.995,239.656 605.467,230.813 601.995,230.429 				"/>
				<path style="fill:#FFC3BD;" d="M601.94,226.018c-1.643-2.541-5.735-4.165-8.098-5.253l0.377,2.982l2.976,1.717
					c-1.256-0.037-11.519-5.621-13.267-5.475c-1.748,0.146-0.544,1.527-0.544,1.527s-2.275-1.313-3.04-0.554
					c-0.199,0.197-0.342,0.978,0.601,1.74c2.121,1.712,6.757,5.075,6.757,5.075c-0.262-0.199-6.281-3.941-7.256-4.384
					c-1.274-0.579-2.17-0.202-2.481,0.547c-0.443,1.067,6.861,5.962,7.025,6.384c0,0-4.111-2.959-5.456-2.316
					c-1.345,0.643,1.142,2.647,3.67,3.997c2.317,1.238,6.539,4.273,9.017,5.303c3.053,1.269,5.388,1.435,7.656-0.679
					c2.267-2.115,2.899-4.501,2.899-4.501S603.584,228.558,601.94,226.018z"/>
				<g>
					<path style="fill:#407BFF;" d="M640.604,199.139c-5.884-5.384-10.679-0.903-13.074,2.257c-3.838,5.09-1.277,19.34-1.277,19.34
						l0.028,0.012c0.106,6.975,0.124,15.939-0.206,16.361l-21.386-8.645l-6.972,13.15c0,0,7.855,3.618,19.935,9.01
						c12.672,5.656,19.686,4.888,22.674-3.908c1.473-4.337,1.835-12.505,1.855-19.127l0.001,0.001
						C642.182,227.589,644.267,202.48,640.604,199.139z"/>
					<path style="opacity:0.8;fill:#FFFFFF;" d="M640.604,199.139c-5.884-5.384-10.679-0.903-13.074,2.257
						c-3.838,5.09-1.277,19.34-1.277,19.34l0.028,0.012c0.106,6.975,0.124,15.939-0.206,16.361l-21.386-8.645l-6.972,13.15
						c0,0,7.855,3.618,19.935,9.01c12.672,5.656,19.686,4.888,22.674-3.908c1.473-4.337,1.835-12.505,1.855-19.127l0.001,0.001
						C642.182,227.589,644.267,202.48,640.604,199.139z"/>
				</g>
			</g>
		</g>
	</g>
</g>
<g id="Character_1">
	<g>
		<g>
			<path style="fill:#407BFF;" d="M148.507,163.494c0,0,8.47,1.899,11.112,11.336c2.897,10.346,10.074,43.034,10.074,43.034H187.7
				l4.068,12.695c0,0-16.515,13.109-27.887,9.208c-11.372-3.901-13.141-15.831-13.141-15.831L148.507,163.494z"/>
			<path style="opacity:0.8;fill:#FFFFFF;" d="M148.507,163.494c0,0,8.47,1.899,11.112,11.336
				c2.897,10.346,10.074,43.034,10.074,43.034H187.7l4.068,12.695c0,0-16.515,13.109-27.887,9.208
				c-11.372-3.901-13.141-15.831-13.141-15.831L148.507,163.494z"/>
		</g>
		<polygon style="opacity:0.2;" points="160.35,232.669 158.664,195.379 167.425,240.492 162.101,239.767 		"/>
		<path style="fill:#407BFF;" d="M99.654,174.988c7.253,32.731,6.327,70.029,7.103,77.025c7.295-0.47,36.833,1.835,51.81,0.842
			c5.18-39.44-3.648-73.81-6.943-84.143c-1.108-3.476-4.106-6.006-7.725-6.47c-6.044-0.774-14.525-1.037-22.286-0.701
			c-5.095,0.22-10.517,1.227-14.924,2.264C101.67,164.983,98.539,169.956,99.654,174.988z"/>
		<g>
			<path style="fill:#263238;" d="M134.614,132.222c6.586,1.174,7.416,0.572,7.501-4.132c0.085-4.704,2.47-12.618-0.858-15.091
				c-2.116-1.573-2.985,0.872-2.985,0.872c-0.477-1.075-1.662-1.668-2.705-1.252c-0.142-0.979-0.297-3.486-2.122-4.209
				c-1.825-0.723-3.432,0.939-3.432,0.939s0.135-3.848-2.466-3.48c-2.601,0.368-3.12,3.051-3.12,3.051s-1.503-2.186-3.529-1.323
				c-2.026,0.863-1.626,3.373-1.626,3.373s-2.158-1.032-3.759,0.141c-1.602,1.174-0.431,3.05-0.431,3.05s-1.459-3.737-4.228-1.667
				c-2.495,1.866-0.237,4.794-0.237,4.794s-2.74-0.444-3.402,0.94c-2.252,4.71,1.983,24.88,8.726,27.435
				C129.081,150.699,134.614,132.222,134.614,132.222z"/>
			<g>
				<g>
					<g>
						<g>
							<g>
								<path style="fill:#E9B376;" d="M116.083,158.919c0,0,1.554-6.145-0.913-17.364c0.001-0.012,0.598-0.231,0.599-0.243
									c-0.338-1.568-0.713-3.022-1.073-4.284c-0.008-0.036-0.007-0.048-0.007-0.048l14.446,10.298
									c-0.585,3.497,0.23,10.383,0.795,13.305c0,0,1.559,5.328-5.377,5.1C119.485,165.515,116.083,158.919,116.083,158.919z"/>
								<path style="opacity:0.2;" d="M129.067,152.244l-8.538-2.524c0.609,2.747,2.784,6.099,8.798,6.756
									C129.327,156.476,128.924,153.42,129.067,152.244z"/>
							</g>
							<g>
								<path style="fill:#E9B376;" d="M115.054,129.657c0.387,9.613,0.411,15.043,5.167,20.029
									c7.153,7.5,18.837,3.456,21.337-6.107c2.25-8.608,1.239-22.883-8.099-26.813
									C124.259,112.894,114.667,120.043,115.054,129.657z"/>
								<path style="fill:#263238;" d="M119.405,139.471c2.246-2.117,0.823-12.242-0.282-15.144
									c5.492,0.523,23.187,0.501,22.517-4.387c-0.67-4.888-7.107-9.04-17.638-5.609c-8.795,2.866-10.969,7.232-11.009,10.808
									C112.911,132.477,119.405,139.471,119.405,139.471z"/>
								<path style="fill:#E9B376;" d="M111.093,137.58c0.715,2.488,2.518,4.403,4.403,5.389c2.835,1.484,3.969-1.626,3.762-4.657
									c-0.187-2.728-0.911-6.061-4.036-6.291C112.144,131.795,110.276,134.735,111.093,137.58z"/>
								<path style="fill:#263238;" d="M128.738,132.719c-0.021,0.983,0.484,1.785,1.127,1.792c0.643,0.007,1.182-0.783,1.203-1.766
									c0.021-0.982-0.484-1.785-1.127-1.792C129.298,130.946,128.759,131.736,128.738,132.719z"/>
								<path style="fill:#263238;" d="M138.37,133.114c-0.021,0.982,0.484,1.785,1.127,1.792c0.643,0.007,1.182-0.783,1.203-1.766
									c0.021-0.983-0.484-1.785-1.127-1.792C138.929,131.341,138.391,132.132,138.37,133.114z"/>
								<path style="fill:#D58745;" d="M135.247,132.503c0,0,3.007,4.947,3.962,6.956c-1.394,1.206-3.737,0.587-3.737,0.587
									L135.247,132.503z"/>
								<path style="fill:#263238;" d="M126.434,128.037c0.147,0.064,0.324,0.049,0.463-0.055c1.651-1.232,3.252-0.679,3.268-0.673
									c0.239,0.086,0.505-0.038,0.593-0.276c0.088-0.238-0.036-0.5-0.273-0.586c-0.084-0.031-2.091-0.725-4.138,0.804
									c-0.205,0.152-0.247,0.44-0.095,0.642C126.301,127.959,126.364,128.007,126.434,128.037z"/>
								
									<path style="fill:none;stroke:#263238;stroke-width:0.75;stroke-linecap:round;stroke-linejoin:round;stroke-miterlimit:10;" d="
									M132.185,143.109c-1.594-0.021-2.813-0.843-4.022-2.055"/>
							</g>
							
								<path style="opacity:0.2;fill:none;stroke:#000000;stroke-width:0.5;stroke-linecap:round;stroke-linejoin:round;stroke-miterlimit:10;" d="
								M113.342,134.972c0.399-0.565,1.192-0.759,1.86-0.58c0.668,0.179,1.215,0.671,1.613,1.237
								c0.477,0.679,0.774,1.485,0.85,2.311"/>
						</g>
						<path style="fill:#263238;" d="M142.71,129.057c0.086-0.017,0.168-0.058,0.235-0.124c0.182-0.179,0.187-0.471,0.01-0.652
							c-1.769-1.818-3.843-1.402-3.938-1.396c-0.248,0.051-0.411,0.295-0.363,0.544c0.048,0.249,0.287,0.409,0.534,0.361
							c0.086-0.021,1.687-0.32,3.107,1.139C142.407,129.043,142.564,129.086,142.71,129.057z"/>
					</g>
				</g>
			</g>
		</g>
		<g>
			<g>
				<g>
					<g>
						<g>
							<polygon style="fill:#E9B376;" points="169.967,427.149 175.081,450.753 182.957,449.392 183.731,425.357 							"/>
						</g>
					</g>
				</g>
			</g>
			<g>
				<g>
					<g>
						<g>
							<g>
								<g>
									<g>
										<g>
											<g>
												<g>
													<g>
														<g>
															<path style="fill:#263238;" d="M174.755,462.16l6.847-0.822c0,0,1.296-0.902,2.121-0.901
																c0.822,0.002,3.706,0.201,3.706,0.201l18.182-2.183c-0.237-0.745-0.498-1.401-0.774-1.979
																c-0.337-0.704-0.701-1.29-1.086-1.778c-1.347-1.703-2.963-2.173-4.647-2.077c-2.565,0.146-11.219-4.24-11.219-4.24
																l-3.661-1.716c-0.028-1.169-0.016-2.712-1.297-3.031c-1.642-0.409-3.04-0.563-3.555,1.244l-0.535,2.158l-1.83-0.064
																c0,0-3.797-1.953-3.378-0.066c0.24,1.077-0.949,6.236-0.075,10.038c0.205,0.886,0.397,1.725,0.565,2.46l0.002,0.001
																C174.496,461.039,174.755,462.16,174.755,462.16z"/>
														</g>
													</g>
												</g>
											</g>
										</g>
									</g>
									<g style="opacity:0.2;">
										<path style="fill:#FFFFFF;" d="M205.611,458.456l-18.182,2.182c0,0-2.884-0.199-3.706-0.201
											c-0.825,0-2.121,0.901-2.121,0.901l-6.847,0.822c0,0-0.259-1.122-0.634-2.755l30.716-2.928
											C205.113,457.055,205.374,457.711,205.611,458.456z"/>
									</g>
									<g>
										<g>
											<g>
												<g>
													<path style="fill:#407BFF;" d="M192.112,449.888c-0.094-0.073-0.225-0.066-0.316,0.011
														c-0.415,0.353-0.743,0.821-0.936,1.382c-0.102,0.296,0.338,0.516,0.441,0.218c0.172-0.498,0.458-0.912,0.821-1.221
														c0.121-0.103,0.121-0.29-0.006-0.387C192.115,449.89,192.114,449.889,192.112,449.888z"/>
												</g>
											</g>
										</g>
									</g>
									<g>
										<g>
											<g>
												<g>
													<path style="fill:#407BFF;" d="M190.564,449.21c-0.094-0.072-0.225-0.066-0.316,0.011
														c-0.415,0.354-0.743,0.821-0.936,1.382c-0.102,0.296,0.338,0.516,0.441,0.218c0.172-0.499,0.458-0.912,0.82-1.221
														c0.121-0.104,0.121-0.29-0.005-0.387C190.567,449.212,190.565,449.211,190.564,449.21z"/>
												</g>
											</g>
										</g>
									</g>
									<g>
										<g>
											<g>
												<g>
													<path style="fill:#407BFF;" d="M188.977,448.593c-0.094-0.073-0.225-0.066-0.316,0.011
														c-0.415,0.353-0.742,0.822-0.936,1.382c-0.102,0.296,0.338,0.516,0.441,0.218c0.172-0.498,0.458-0.912,0.82-1.221
														c0.121-0.103,0.121-0.29-0.005-0.387C188.979,448.595,188.978,448.594,188.977,448.593z"/>
												</g>
											</g>
										</g>
									</g>
								</g>
							</g>
						</g>
					</g>
				</g>
			</g>
		</g>
		<g>
			<g>
				<g>
					<g>
						<g>
							<polygon style="fill:#E9B376;" points="104.164,428.393 109.333,451.985 117.206,450.606 117.923,426.569 							"/>
						</g>
					</g>
				</g>
			</g>
			<g>
				<g>
					<g>
						<g>
							<g>
								<g>
									<g>
										<g>
											<g>
												<g>
													<g>
														<g>
															<path style="fill:#263238;" d="M107.223,463.053l6.896-0.056c0,0,1.388-0.752,2.208-0.66
																c0.817,0.093,3.661,0.611,3.661,0.611l18.312-0.149c-0.153-0.767-0.339-1.448-0.55-2.053
																c-0.257-0.737-0.554-1.36-0.882-1.887c-1.15-1.842-2.703-2.488-4.387-2.581c-2.565-0.14-10.679-5.46-10.679-5.46
																l-3.447-2.112c0.102-1.165,0.285-2.697-0.953-3.157c-1.586-0.589-2.959-0.897-3.671,0.841l-0.771,2.085l-1.811-0.267
																c0,0-3.557-2.363-3.35-0.441c0.118,1.097-1.636,6.092-1.19,9.968c0.105,0.903,0.202,1.758,0.288,2.508l0.002,0.001
																C107.09,461.91,107.223,463.053,107.223,463.053z"/>
														</g>
													</g>
												</g>
											</g>
										</g>
									</g>
									<g style="opacity:0.2;">
										<path style="fill:#FFFFFF;" d="M138.299,462.8l-18.312,0.149c0,0-2.844-0.518-3.661-0.611
											c-0.82-0.092-2.208,0.66-2.208,0.66l-6.896,0.056c0,0-0.133-1.144-0.324-2.808l30.851,0.501
											C137.96,461.352,138.147,462.033,138.299,462.8z"/>
									</g>
									<g>
										<g>
											<g>
												<g>
													<path style="fill:#407BFF;" d="M125.836,452.785c-0.085-0.083-0.216-0.09-0.315-0.024
														c-0.452,0.305-0.829,0.734-1.084,1.27c-0.134,0.283,0.279,0.551,0.414,0.265c0.227-0.476,0.557-0.855,0.951-1.123
														c0.132-0.089,0.152-0.275,0.037-0.385C125.838,452.787,125.837,452.786,125.836,452.785z"/>
												</g>
											</g>
										</g>
									</g>
									<g>
										<g>
											<g>
												<g>
													<path style="fill:#407BFF;" d="M124.372,451.939c-0.086-0.082-0.217-0.09-0.315-0.024
														c-0.451,0.305-0.829,0.734-1.084,1.27c-0.134,0.282,0.279,0.551,0.414,0.266c0.227-0.476,0.557-0.855,0.951-1.123
														c0.132-0.089,0.152-0.275,0.038-0.385C124.375,451.941,124.373,451.94,124.372,451.939z"/>
												</g>
											</g>
										</g>
									</g>
									<g>
										<g>
											<g>
												<g>
													<path style="fill:#407BFF;" d="M122.863,451.15c-0.086-0.083-0.217-0.09-0.315-0.024
														c-0.451,0.305-0.829,0.734-1.084,1.27c-0.134,0.282,0.278,0.551,0.414,0.265c0.226-0.476,0.557-0.855,0.951-1.122
														c0.132-0.089,0.152-0.275,0.037-0.385C122.866,451.152,122.864,451.151,122.863,451.15z"/>
												</g>
											</g>
										</g>
									</g>
								</g>
							</g>
						</g>
					</g>
				</g>
			</g>
		</g>
		<g>
			<path style="fill:#263238;" d="M187.789,441.257l-18.909,3.555c0,0-15.238-59.851-19.69-87.51
				c-1.355-8.414-4.516-20.426-7.392-33.07c-3.632-15.931-8.197-33.159-11.937-46.651c-3.946-14.21-6.876-24.427-6.876-24.427
				l32.532-2.075c0,0,18.791,70.605,21.851,97.86C180.555,377.277,187.789,441.257,187.789,441.257z"/>
			<path style="opacity:0.2;" d="M141.798,319.635c-3.632-16.531-8.197-34.408-11.937-48.408l3.42-7.294
				C141.355,273.6,143.427,303.437,141.798,319.635z"/>
			<path style="fill:#263238;" d="M140.018,252.067c0,0-1.853,75.847-4.51,102.04c-2.911,28.684-12.522,91.093-12.522,91.093
				h-20.541c0,0,1.1-66.426,3.913-94.128c0.397-54.465-0.587-96.832-0.587-96.832L140.018,252.067z"/>
		</g>
		<g>
			<path style="opacity:0.4;" d="M127.769,166.864c0,0-2.958,3.755-3.585,9.125c-7.385-3.474-10.911-11.9-10.911-11.9l2.226-2.385
				C115.499,161.704,123.71,163.29,127.769,166.864z"/>
			<path style="opacity:0.4;" d="M128.505,166.892c0,0,3.286,2.338,6.767,7.938c5.168-3.196,3.453-12.334,3.453-12.334l-4.207-0.826
				C134.518,161.669,132.643,163.41,128.505,166.892z"/>
			<path style="fill:#263238;" d="M128.175,165.694l1.599,0.18l2.68,2.089c0.152,1.334,0.014,2.592-0.547,3.74
				c0,0-2.595,0.628-4.747,0.387c-1.925-1.234-2.396-2.916-2.396-2.916l1.981-2.983L128.175,165.694z"/>
			<path style="fill:#407BFF;" d="M127.54,165.163c0,0-2.328,4.972-3.895,9.904c-7.385-3.474-11.693-11.771-11.693-11.771
				l4.495-5.42C116.447,157.875,123.481,161.589,127.54,165.163z"/>
			<path style="fill:#407BFF;" d="M127.54,165.163c0,0,4.378,3.628,7.991,8.341c5.168-3.196-0.033-11.642-0.033-11.642l-6.357-3.987
				C129.142,157.875,127.882,164.496,127.54,165.163z"/>
			<path style="fill:#263238;" d="M130.66,170.654c0,0,9.02,45.591,12.177,66.727l-3.171,11.472
				c-4.626-10.074-5.251-10.989-5.251-10.989c-0.742-8.621-6.236-67.04-6.236-67.04L130.66,170.654z"/>
		</g>
		<g>
			<g>
				<path style="fill:#407BFF;" d="M153.208,311.313c-1.425-37.585-8.955-114.297-12.486-129.548
					c-2.926-12.64-6.395-19.663-8.869-22.53c-0.668-0.774,4.016,2.253,5.038,2.274c4.301,0.088,10.116,0.385,13.951,3.413
					c6.981,5.512,10.473,47.044,9.508,67.747c6.155,23.349,14.44,73.43,13.556,78.644H153.208z"/>
			</g>
			<g style="opacity:0.8;">
				<path style="fill:#FFFFFF;" d="M153.208,311.313c-1.425-37.585-8.955-114.297-12.486-129.548
					c-2.926-12.64-6.395-19.663-8.869-22.53c-0.668-0.774,4.016,2.253,5.038,2.274c4.301,0.088,10.116,0.385,13.951,3.413
					c6.981,5.512,10.473,47.044,9.508,67.747c6.155,23.349,14.44,73.43,13.556,78.644H153.208z"/>
			</g>
		</g>
		<path style="opacity:0.2;" d="M138.998,161.397c0,0,10.568,21.476,11.048,25.869c0.477,4.365-1.807,18.505-1.807,18.505
			s3.264-14.318,2.944-17.51C150.37,180.164,138.998,161.397,138.998,161.397z"/>
		<g>
			<g>
				<path style="fill:#407BFF;" d="M94.84,173.278c-1.028-7.859,13.314-10.795,17.606-11.574c0.478-0.087,2.874-2.47,2.874-2.47
					s8.367,18.25,10.398,48.282c1.234,18.258,2.371,75.152,1.537,104.756H96.848c0.164-14.663,6.215-71.078,5.071-83.556
					C100.775,216.238,96.022,182.315,94.84,173.278z"/>
				<path style="opacity:0.8;fill:#FFFFFF;" d="M94.84,173.278c-1.028-7.859,13.314-10.795,17.606-11.574
					c0.478-0.087,2.874-2.47,2.874-2.47s8.367,18.25,10.398,48.282c1.234,18.258,2.371,75.152,1.537,104.756H96.848
					c0.164-14.663,6.215-71.078,5.071-83.556C100.775,216.238,96.022,182.315,94.84,173.278z"/>
			</g>
			<path style="opacity:0.2;" d="M104.625,189.378c0.674,4.638,0.937,23.372-3.53,32.373c-0.745-6.189-1.717-13.646-2.671-20.806
				L104.625,189.378z"/>
			<path style="opacity:0.2;" d="M111.633,163.491c0,0,0.279,23.934,1.836,28.07c1.547,4.11,9.975,15.691,9.975,15.691
				s-9.383-11.297-10.54-14.29C109.97,185.371,111.633,163.491,111.633,163.491z"/>
			<polygon style="opacity:0.2;" points="131.788,250.474 130.633,254.258 101.714,246.144 101.916,239.138 			"/>
		</g>
		<g>
			<g>
				<path style="fill:#263238;" d="M126.329,264.606L126.329,264.606c1.579,2.245,5.39,2.305,8.586,0.137l79.797-54.147
					l-5.815-8.268l-79.52,53.959C126.074,258.529,124.697,262.285,126.329,264.606z"/>
				<path style="opacity:0.4;fill:#FFFFFF;" d="M126.329,264.606L126.329,264.606c1.579,2.245,5.39,2.305,8.586,0.137l79.797-54.147
					l-5.815-8.268l-79.52,53.959C126.074,258.529,124.697,262.285,126.329,264.606z"/>
				<polygon style="opacity:0.3;" points="204.17,205.536 210.109,213.719 208.445,214.849 202.577,206.617 				"/>
				<g>
					<path style="fill:#263238;" d="M219.598,133.819c-24.413,17.169-30.286,50.878-13.117,75.29
						c17.169,24.413,50.877,30.285,75.29,13.117c24.413-17.169,30.285-50.878,13.117-75.29
						C277.72,122.522,244.011,116.65,219.598,133.819z M223.236,137.52c21.969-15.45,52.302-10.165,67.752,11.803
						c15.45,21.968,10.165,52.302-11.803,67.752c-21.968,15.45-52.302,10.165-67.751-11.803
						C195.983,183.303,201.267,152.97,223.236,137.52z"/>
				</g>
			</g>
			<g style="opacity:0.4;">
				<path style="fill:#FFFFFF;" d="M219.598,133.819c-24.413,17.169-30.286,50.878-13.117,75.29
					c17.169,24.413,50.877,30.285,75.29,13.117c24.413-17.169,30.285-50.878,13.117-75.29
					C277.72,122.522,244.011,116.65,219.598,133.819z M223.236,137.52c21.969-15.45,52.302-10.165,67.752,11.803
					c15.45,21.968,10.165,52.302-11.803,67.752c-21.968,15.45-52.302,10.165-67.751-11.803
					C195.983,183.303,201.267,152.97,223.236,137.52z"/>
			</g>
			<g>
				<g>
					<g>
						<path style="fill:#E9B376;" d="M201.643,218.798c0,0-8.712-6.297-11.05-5.736c-2.338,0.561-0.076,3.141-0.076,3.141
							s-2.664-2.686-3.957-1.709c-1.552,1.172,0.83,3.865,0.83,3.865s-2.265-2.104-3.357-1.158c-1.133,0.982,1.34,4.211,1.34,4.211
							s-1.875-1.18-2.262-0.093c-0.387,1.087,4.729,8.044,7.574,9.029c2.845,0.985,8.49-3.995,10.077-5.888
							c1.587-1.893,3.55-4.109,2.225-6.534L201.643,218.798L201.643,218.798z"/>
					</g>
					<g>
						<path style="opacity:0.2;" d="M190.38,216.322c0.004,0.004,0.007,0.008,0.011,0.011l4.868,4.46
							c0.066,0.06,0.175,0.05,0.244-0.023c0.069-0.073,0.072-0.183,0.008-0.24l-4.868-4.46c-0.066-0.059-0.175-0.049-0.244,0.023
							C190.333,216.162,190.326,216.261,190.38,216.322z"/>
					</g>
					<g>
						<path style="opacity:0.2;" d="M187.377,218.619c0.001,0.001,0.002,0.002,0.003,0.003l4.335,4.656
							c0.061,0.065,0.169,0.062,0.243-0.006c0.075-0.068,0.081-0.155,0.025-0.241l-4.335-4.656c-0.06-0.065-0.169-0.062-0.243,0.006
							C187.331,218.449,187.32,218.554,187.377,218.619z"/>
					</g>
					<g>
						<path style="opacity:0.2;" d="M185.38,221.695l3.122,3.552c0.059,0.067,0.167,0.067,0.243,0
							c0.075-0.066,0.089-0.174,0.031-0.24l-3.122-3.552c-0.059-0.067-0.167-0.066-0.243,0
							C185.335,221.521,185.321,221.628,185.38,221.695z"/>
					</g>
				</g>
			</g>
			<g>
				<g>
					<g>
						<g>
							<g>
								<g>
									<g>
										<g>
											<g>
												<path style="fill:#E9B376;" d="M139.274,238.822c0,0,3.195-2.353,6.432-1.823c3.238,0.53,5.964,0.091,8.344,0.651
													c2.38,0.56-0.545,2.088-2.266,2.586c-1.72,0.498-3.666,1.079-3.082,2.311c0.583,1.232,10.202,7.928,10.815,9.728
													c0.614,1.8-1.281,1.203-1.281,1.203s2.292,1.689,1.871,2.78c-0.11,0.283-0.824,0.764-1.989,0.158
													c-2.622-1.364-7.976-4.509-7.976-4.509c0.311,0.174,6.643,4.529,7.506,5.304c1.128,1.014,1.143,2.068,0.534,2.702
													c-0.867,0.904-8.902-4.227-9.392-4.207c0,0,4.725,2.799,4.669,4.414c-0.055,1.615-3.125,0.015-5.565-1.91
													c-2.236-1.765-7.084-4.641-9.183-6.655c-2.587-2.482-3.766-4.73-2.65-7.901
													C137.178,240.485,139.274,238.822,139.274,238.822z"/>
											</g>
										</g>
									</g>
								</g>
							</g>
						</g>
						
							<path style="opacity:0.3;fill:none;stroke:#000000;stroke-width:0.25;stroke-linecap:round;stroke-linejoin:round;stroke-miterlimit:10;" d="
							M157.979,253.197c-1.871-1.308-3.802-2.53-5.784-3.662"/>
					</g>
					<path style="fill:#E9B376;" d="M140.57,239.92c-0.192-0.144-4.482-3-4.482-3l-4.299,9.778l6.004,1.697L140.57,239.92z"/>
				</g>
				<g>
					<path style="fill:#407BFF;" d="M96.567,168.249c-0.277,0.329-1.9,2.485-4.823,12.131c-2.923,9.646-14.616,45.746-12.277,48.742
						c2.338,2.996,52.349,22.375,53.213,21.309c0.864-1.066,6.318-18.214,6.318-18.214l-39.53-14.714l8.364-30.939L96.567,168.249z"
						/>
					<path style="opacity:0.8;fill:#FFFFFF;" d="M96.567,168.249c-0.277,0.329-1.9,2.485-4.823,12.131
						c-2.923,9.646-14.616,45.746-12.277,48.742c2.338,2.996,52.349,22.375,53.213,21.309c0.864-1.066,6.318-18.214,6.318-18.214
						l-39.53-14.714l8.364-30.939L96.567,168.249z"/>
				</g>
			</g>
			<path style="opacity:0.3;fill:#FFFFFF;" d="M252.367,132.637c0,0-23.211,35.777-13.487,53.825
				c9.723,18.048,43.562,23.854,51.671,14.981C298.66,192.57,300.043,138.551,252.367,132.637z"/>
		</g>
		<g>
			<g>
				<path style="fill:#E6E6E6;" d="M225.228,148.094l-0.367-0.275c-2.066-1.55-1.721-4.759,0.633-5.822
					c0.682-0.308,1.371-0.594,2.064-0.859c3.739-1.428,6.333,3.727,3.048,6.014c-0.059,0.041-0.118,0.083-0.177,0.124
					c-0.366,0.257-0.726,0.52-1.08,0.786C228.127,148.982,226.453,149.012,225.228,148.094z"/>
				<path style="fill:#E6E6E6;" d="M223.829,157.298c-7.171,11.071-9.154,24.881-5.274,37.58c0.609,1.992-2.086,3.326-3.29,1.625
					c-0.022-0.031-0.043-0.061-0.065-0.092c-9.741-13.851-8.962-31.937,0.671-44.791c1.139-1.52,3.276-1.861,4.795-0.721
					l2.382,1.787C224.494,153.771,224.812,155.781,223.829,157.298z"/>
			</g>
		</g>
	</g>
</g>
</svg>
