<?xml version="1.0" encoding="utf-8"?>
<!-- Generator: Adobe Illustrator 27.5.0, SVG Export Plug-In . SVG Version: 6.00 Build 0)  -->
<svg version="1.1" xmlns="http://www.w3.org/2000/svg" xmlns:xlink="http://www.w3.org/1999/xlink" x="0px" y="0px"
	 viewBox="0 0 500 500" style="enable-background:new 0 0 500 500;" xml:space="preserve">
<g id="Background_Complete">
	<g>
		<rect y="382.398" style="fill:#EBEBEB;" width="500" height="0.25"/>
		<rect x="416.779" y="398.494" style="fill:#EBEBEB;" width="33.122" height="0.25"/>
		<rect x="322.527" y="401.208" style="fill:#EBEBEB;" width="8.693" height="0.25"/>
		<rect x="396.586" y="389.208" style="fill:#EBEBEB;" width="19.192" height="0.25"/>
		<rect x="52.459" y="390.888" style="fill:#EBEBEB;" width="43.193" height="0.25"/>
		<rect x="104.556" y="390.888" style="fill:#EBEBEB;" width="6.333" height="0.25"/>
		<rect x="131.471" y="395.111" style="fill:#EBEBEB;" width="93.676" height="0.25"/>
		<path style="fill:#EBEBEB;" d="M237.014,337.8H43.915c-3.147,0-5.708-2.561-5.708-5.708V60.66c0-3.147,2.561-5.708,5.708-5.708
			h193.099c3.146,0,5.707,2.561,5.707,5.708v271.432C242.721,335.239,240.16,337.8,237.014,337.8z M43.915,55.203
			c-3.01,0-5.458,2.448-5.458,5.458v271.432c0,3.01,2.448,5.458,5.458,5.458h193.099c3.009,0,5.457-2.448,5.457-5.458V60.66
			c0-3.009-2.448-5.458-5.457-5.458H43.915z"/>
		<path style="fill:#EBEBEB;" d="M453.31,337.8H260.212c-3.147,0-5.707-2.561-5.707-5.708V60.66c0-3.147,2.561-5.708,5.707-5.708
			H453.31c3.148,0,5.708,2.561,5.708,5.708v271.432C459.019,335.239,456.458,337.8,453.31,337.8z M260.212,55.203
			c-3.009,0-5.457,2.448-5.457,5.458v271.432c0,3.01,2.448,5.458,5.457,5.458H453.31c3.01,0,5.458-2.448,5.458-5.458V60.66
			c0-3.009-2.448-5.458-5.458-5.458H260.212z"/>
	</g>
	<g>
		<g>
			<path style="fill:#F5F5F5;" d="M196.166,414.932c-3.867,0-7.375-1.502-9.904-4.247c-7.022-7.624-2.442-19.091,2.964-29.303
				c4.755-8.98,12.323-20.766,23.137-36.028c19.7-27.804,47.185-62.898,73.765-96.837c20.93-26.725,40.76-52.044,56.425-73.269
				c-0.432,0.473-0.868,0.949-1.31,1.433c-20.695,22.68-45.621,51.561-72.01,82.138c-29.261,33.905-59.518,68.964-83.716,95.072
				c-40.596,43.798-49.482,46.531-56.88,45.559c-4.14-0.546-7.557-3.019-9.376-6.786c-6.876-14.236,10.072-39.719,106.675-160.39
				c24.903-31.107,50.653-63.274,69.787-88.924c7.134-9.563,12.657-17.313,16.933-23.589c-4.857,4.816-10.707,10.859-17.742,18.441
				c-20.468,22.059-45.816,51.489-70.329,79.95c-27.465,31.889-55.865,64.862-78.757,89.109
				c-35.185,37.268-46.942,43.236-56.331,41.202c-4.933-1.067-8.62-4.609-10.116-9.719c-2.869-9.797,1.292-24.182,30.92-62.546
				c19.602-25.381,46.311-56.018,72.14-85.645c22.424-25.723,43.605-50.018,59.725-70.296c11.308-14.224,17.652-23.44,21.203-29.359
				c-6.19,4.14-16.132,12.186-31.725,27.788c-20.415,20.428-43.77,46.89-66.356,72.481c-58.066,65.792-74.23,82.217-87.323,79.672
				c-4.417-0.855-7.981-3.988-9.535-8.378c-6.109-17.263,15.496-48.192,69.537-115.516c7.679-9.566,16.226-20.214,23.377-29.517
				c-2.241,1.754-4.656,3.698-7.253,5.848c-13.032,10.794-26.412,23.45-31.122,29.439c-3.414,4.342-9.701,5.093-14.042,1.68
				c-4.342-3.414-5.093-9.701-1.68-14.042c6.183-7.863,21.941-22.687,37.47-35.249c30.11-24.359,38.419-24.156,44.347-21.864
				c4.127,1.596,8.351,5.908,7.827,13.226c-0.652,9.095-11.757,23.669-43.327,62.999c-15.548,19.37-33.171,41.325-46.309,60.022
				c-5.401,7.687-9.34,13.845-12.209,18.754c2.751-2.683,5.954-5.914,9.677-9.809c13.053-13.656,28.848-31.553,45.57-50.5
				c23.743-26.901,48.293-54.719,69.731-75.896c28.772-28.422,44.8-38.202,57.171-34.887c4.9,1.314,8.531,4.759,9.961,9.452
				c2.597,8.519-0.904,19.839-26.483,52.489c-16.692,21.307-39.262,47.196-63.157,74.605
				c-24.821,28.472-50.487,57.912-69.551,82.363c-12.624,16.192-19.835,27.054-23.943,34.262
				c6.589-5.701,16.456-15.173,31.116-30.896c21.861-23.447,48.516-54.396,74.293-84.324
				c95.898-111.344,115.4-129.71,130.408-122.853c3.524,1.61,6.07,4.739,6.985,8.584c1.988,8.358-2.559,20.498-32.228,60.648
				c-19.655,26.598-46.797,60.503-73.047,93.293c-25.445,31.784-51.756,64.65-71.395,91.029
				c-6.28,8.434-11.342,15.501-15.422,21.417c5.483-5.572,12.085-12.514,20.027-21.163c23.258-25.329,51.765-58.36,79.334-90.305
				c28.022-32.469,54.489-63.137,76.002-86.507c35.921-39.023,43.468-41.794,50.225-41.453c3.653,0.186,6.932,1.984,8.994,4.934
				c8.5,12.155-2.94,30.228-87.44,138.122c-24.275,30.996-49.377,63.048-68.345,89.298c-10.404,14.398-17.314,24.814-21.899,32.331
				c5.037-4.733,11.534-11.242,19.883-20.189c18.178-19.479,40.194-45.137,61.486-69.951c22.406-26.113,45.576-53.115,63.882-72.418
				c26.62-28.07,38.348-35.559,48.266-30.808c3.619,1.732,6.127,4.876,7.063,8.854c3.27,13.894-14.964,38.995-64.034,101.958
				c-14.916,19.139-30.339,38.929-41.807,55.063c-5.572,7.84-9.459,13.786-12.171,18.273c3.767-2.905,8.628-7.04,14.834-12.924
				c12.904-12.232,26.954-27.484,39.35-40.94c7.975-8.657,14.863-16.135,20.253-21.512c3.122-3.115,5.48-5.267,7.42-6.77
				c7.533-5.838,12.937-3.443,15.488-1.499c10.653,8.128,4.109,24.921-9.903,49.382c-9.261,16.167-19.496,31.169-19.927,31.8
				c-3.116,4.56-9.337,5.729-13.898,2.612c-4.559-3.116-5.729-9.339-2.613-13.898c0.077-0.113,7.31-10.716,14.878-23.299
				c-38.481,41.655-61.44,64.014-77.449,64.016c-3.196,0.001-6.113-0.89-8.823-2.696c-3.034-2.021-5.039-5.198-5.646-8.945
				c-1.137-7.022,1.835-16.61,20.137-42.682c11.928-16.991,28.285-37.979,44.103-58.275c14.915-19.137,30.337-38.925,41.803-55.058
				c1.629-2.291,3.115-4.423,4.468-6.402c-3.47,3.501-7.465,7.663-12.061,12.61c-17.1,18.412-38.113,42.9-58.433,66.582
				c-22.308,25.998-45.374,52.881-64.297,72.978c-28.506,30.276-39.291,36.448-47.451,36.592
				C196.342,414.931,196.253,414.932,196.166,414.932z M137.891,386.604C137.892,386.604,137.892,386.604,137.891,386.604
				L137.891,386.604z M98.655,333.504L98.655,333.504L98.655,333.504z M87.396,256.224L87.396,256.224L87.396,256.224z"/>
		</g>
		<g>
			<path style="fill:#EBEBEB;" d="M207.409,406.417c-0.853,0.001-1.65-0.098-2.399-0.298c-2.065-0.555-3.46-1.841-4.033-3.721
				c-3.83-12.565,30.659-53.352,87.916-119.029c49.448-56.72,105.493-121.009,100.692-137.405c-0.383-1.309-1.009-1.601-1.512-1.71
				c-3.714-0.805-14.625,5.115-45.538,37.858c-22.712,24.056-51.025,56.93-78.406,88.721c-26.645,30.936-54.196,62.925-75.733,85.74
				c-32.167,34.076-40.646,36.777-44.701,34.927c-1.157-0.529-1.935-1.504-2.248-2.82c-2.942-12.366,37.193-63.658,103.642-146.664
				c27.199-33.976,55.325-69.109,75.45-96.5c27.336-37.206,31.318-48.65,29.846-51.7c-0.124-0.256-0.251-0.35-0.524-0.386
				c-3.272-0.415-14.064,6.501-46.943,41.975c-24.06,25.958-54.249,60.939-83.445,94.768
				c-67.065,77.709-108.663,125.023-119.189,125.028c-0.058,0-0.114-0.002-0.171-0.005c-1.045-0.053-1.896-0.508-2.461-1.315
				c-2.238-3.2-0.918-10.876,23.685-45.077c16.553-23.012,39.349-52.119,63.483-82.934c26.496-33.831,53.894-68.815,73.434-96.394
				c27.956-39.457,28.932-48.82,27.025-50.89c-0.22-0.239-0.616-0.567-1.506-0.538c-12.841,0.226-60.857,56.187-103.221,105.56
				c-22.339,26.034-45.438,52.956-63.599,72.104c-27.237,28.719-34.711,30.77-38.429,28.99c-1.269-0.607-2.12-1.691-2.459-3.134
				c-2.462-10.459,23.134-44.32,62.464-94.785c29.831-38.276,63.641-81.658,61.959-92.05c-0.124-0.771-0.442-1.062-0.67-1.214
				c-10.288-6.843-50.449,36.754-74.45,62.807c-23.612,25.632-28.945,30.926-31.754,28.781c-2.949-2.25-4.901-8.678,12.123-38.397
				c9.095-15.876,19.465-31.076,19.568-31.228c0.467-0.684,1.399-0.86,2.085-0.392c0.684,0.467,0.859,1.401,0.392,2.085
				c-0.103,0.151-10.414,15.265-19.449,31.039c-15.167,26.48-14.273,32.764-13.166,34.236c3.235-1.279,15.815-14.936,27.994-28.156
				c36.058-39.142,66.839-70.922,78.319-63.271c1.06,0.706,1.741,1.823,1.969,3.23c1.892,11.684-29.412,51.85-62.554,94.374
				c-30.105,38.628-64.227,82.409-61.91,92.253c0.133,0.565,0.383,0.899,0.835,1.116c2.074,0.987,9.372-1.373,34.956-28.35
				c18.109-19.095,41.184-45.987,63.499-71.993c46.93-54.695,91.258-106.356,105.445-106.605c1.529-0.045,2.834,0.493,3.766,1.505
				c9.116,9.897-31.814,63.712-100.305,151.166c-24.115,30.791-46.892,59.874-63.409,82.835
				c-24.145,33.565-24.591,40.279-23.662,41.607c0.088,0.054,2.037,0.948,12.296-8.201c6.673-5.95,15.565-14.948,27.186-27.509
				c21.671-23.424,48.842-54.907,77.608-88.239c72.69-84.227,121.246-139.281,133.051-137.757c1.268,0.167,2.274,0.897,2.833,2.055
				c5.451,11.286-36.28,64.719-105.655,151.38c-49.629,61.995-105.88,132.262-103.065,144.095c0.123,0.516,0.35,0.683,0.577,0.786
				c2.336,1.06,10.794-1.972,41.272-34.258c21.49-22.766,49.019-54.728,75.641-85.639c67.972-78.919,113.522-130.45,126.852-127.553
				c1.288,0.279,2.985,1.164,3.756,3.799c5.262,17.972-46.504,77.353-101.31,140.219c-44.704,51.278-90.929,104.303-87.308,116.184
				c0.182,0.597,0.567,1.328,1.94,1.696c16.664,4.463,71.358-57.495,115.303-107.286c43.141-48.88,70.049-78.739,79.331-76.952
				c1.04,0.202,2.429,0.863,3.139,2.869c5.515,15.584-33.622,64.341-68.151,107.359c-20.762,25.864-40.372,50.295-40.825,56.623
				c-0.104,1.442,0.353,1.619,0.504,1.678c7.517,2.898,55.967-37.393,68.629-53.496c0.512-0.652,1.455-0.766,2.107-0.252
				c0.651,0.512,0.764,1.455,0.252,2.105c-10.203,12.976-61.319,58.587-72.07,54.44c-1-0.387-2.642-1.51-2.414-4.69
				c0.495-6.91,16.084-26.65,41.478-58.286c30.647-38.181,72.621-90.471,67.663-104.48c-0.251-0.711-0.573-0.865-0.882-0.925
				c-2.352-0.463-9.004,2.932-27.283,21.689c-13.789,14.149-31.002,33.653-49.227,54.303
				C276.232,351.294,227.583,406.412,207.409,406.417z"/>
		</g>
	</g>
</g>
<g id="Background_Simple" style="display:none;">
	<g style="display:inline;">
		<path style="fill:#407BFF;" d="M85.544,120.637c27.919-59.449,127.059-51.062,165.317-9.255
			c38.258,41.806,50.696,68.599,85.208,52.983c34.512-15.616,78.518-11.44,81.043,38.164s-37.913,108.263-102.09,125.615
			c-64.177,17.352-64.161,78.759-149.1,66.368c-46.31-6.756-47.365-56.86-40.825-98.301
			C131.636,254.77,53.165,189.581,85.544,120.637z"/>
		<path style="opacity:0.9;fill:#FFFFFF;" d="M85.544,120.637c27.919-59.449,127.059-51.062,165.317-9.255
			c38.258,41.806,50.696,68.599,85.208,52.983c34.512-15.616,78.518-11.44,81.043,38.164s-37.913,108.263-102.09,125.615
			c-64.177,17.352-64.161,78.759-149.1,66.368c-46.31-6.756-47.365-56.86-40.825-98.301
			C131.636,254.77,53.165,189.581,85.544,120.637z"/>
	</g>
</g>
<g id="Shadow_1_">
	<ellipse id="_x3C_Path_x3E__359_" style="fill:#F5F5F5;" cx="250" cy="416.238" rx="193.889" ry="11.323"/>
</g>
<g id="Clouds">
	<g>
		<g>
			<g>
				<path style="fill:#263238;" d="M414.101,228.538c0-4.611-3.738-8.349-8.349-8.349c-0.834,0-1.638,0.126-2.397,0.353
					c0.122-0.837,0.187-1.692,0.187-2.563c0-9.765-7.916-17.681-17.681-17.681c-1.113,0-2.201,0.108-3.257,0.305
					c-2.718-4.447-7.603-7.426-13.196-7.426c-8.466,0-15.333,6.802-15.459,15.238c-0.087-0.001-0.171-0.013-0.258-0.013
					c-7.866,0-14.243,6.377-14.243,14.243c0,7.866,6.377,14.243,14.243,14.243h52.306l-0.011-0.012
					C410.488,236.75,414.101,233.07,414.101,228.538z"/>
			</g>
			<g style="opacity:0.7;">
				<path style="fill:#FFFFFF;" d="M414.101,228.538c0-4.611-3.738-8.349-8.349-8.349c-0.834,0-1.638,0.126-2.397,0.353
					c0.122-0.837,0.187-1.692,0.187-2.563c0-9.765-7.916-17.681-17.681-17.681c-1.113,0-2.201,0.108-3.257,0.305
					c-2.718-4.447-7.603-7.426-13.196-7.426c-8.466,0-15.333,6.802-15.459,15.238c-0.087-0.001-0.171-0.013-0.258-0.013
					c-7.866,0-14.243,6.377-14.243,14.243c0,7.866,6.377,14.243,14.243,14.243h52.306l-0.011-0.012
					C410.488,236.75,414.101,233.07,414.101,228.538z"/>
			</g>
		</g>
		<g>
			<polygon style="fill:#407BFF;" points="361.516,252.89 356.279,254.092 362,241.244 349.4,256.598 354.637,255.396 
				348.916,268.245 			"/>
		</g>
		<g>
			<polygon style="fill:#407BFF;" points="377.526,252.89 372.289,254.092 378.01,241.244 365.41,256.598 370.647,255.396 
				364.926,268.245 			"/>
		</g>
		<g>
			<polygon style="fill:#407BFF;" points="393.536,252.89 388.299,254.092 394.021,241.244 381.42,256.598 386.657,255.396 
				380.936,268.245 			"/>
		</g>
		<g style="opacity:0.7;">
			<polygon style="fill:#FFFFFF;" points="361.516,252.89 356.279,254.092 362,241.244 349.4,256.598 354.637,255.396 
				348.916,268.245 			"/>
		</g>
		<g style="opacity:0.7;">
			<polygon style="fill:#FFFFFF;" points="377.526,252.89 372.289,254.092 378.01,241.244 365.41,256.598 370.647,255.396 
				364.926,268.245 			"/>
		</g>
		<g style="opacity:0.7;">
			<polygon style="fill:#FFFFFF;" points="393.536,252.89 388.299,254.092 394.021,241.244 381.42,256.598 386.657,255.396 
				380.936,268.245 			"/>
		</g>
	</g>
	<g>
		<g>
			<g>
				<path style="fill:#263238;" d="M165.229,187.2c0-3.813-3.091-6.904-6.904-6.904c-0.689,0-1.354,0.104-1.982,0.292
					c0.101-0.692,0.155-1.4,0.155-2.12c0-8.075-6.546-14.62-14.62-14.62c-0.92,0-1.82,0.089-2.693,0.252
					c-2.247-3.678-6.287-6.141-10.912-6.141c-7.001,0-12.679,5.625-12.783,12.6c-0.072-0.001-0.141-0.011-0.213-0.011
					c-6.505,0-11.777,5.273-11.777,11.777c0,6.504,5.273,11.777,11.777,11.777h43.252l-0.009-0.01
					C162.242,193.991,165.229,190.948,165.229,187.2z"/>
			</g>
			<g style="opacity:0.7;">
				<path style="fill:#FFFFFF;" d="M165.229,187.2c0-3.813-3.091-6.904-6.904-6.904c-0.689,0-1.354,0.104-1.982,0.292
					c0.101-0.692,0.155-1.4,0.155-2.12c0-8.075-6.546-14.62-14.62-14.62c-0.92,0-1.82,0.089-2.693,0.252
					c-2.247-3.678-6.287-6.141-10.912-6.141c-7.001,0-12.679,5.625-12.783,12.6c-0.072-0.001-0.141-0.011-0.213-0.011
					c-6.505,0-11.777,5.273-11.777,11.777c0,6.504,5.273,11.777,11.777,11.777h43.252l-0.009-0.01
					C162.242,193.991,165.229,190.948,165.229,187.2z"/>
			</g>
		</g>
		<g>
			<g>
				<g>
					<path style="fill:#407BFF;" d="M152.469,204.228c2.823-0.977-3.095-7.051-3.095-7.051S149.646,205.205,152.469,204.228z"/>
				</g>
				<g>
					<path style="fill:#407BFF;" d="M154.447,208.733c0,0,0.272,8.028,3.095,7.051C160.365,214.807,154.447,208.733,154.447,208.733
						z"/>
				</g>
				<g>
					<path style="fill:#407BFF;" d="M159.519,220.288c0,0,0.272,8.028,3.095,7.051C165.437,226.362,159.519,220.288,159.519,220.288
						z"/>
				</g>
				<g>
					<path style="fill:#407BFF;" d="M143.1,204.3c2.823-0.977-3.095-7.051-3.095-7.051S140.276,205.277,143.1,204.3z"/>
				</g>
				<g>
					<path style="fill:#407BFF;" d="M145.077,208.805c0,0,0.272,8.028,3.095,7.051C150.995,214.879,145.077,208.805,145.077,208.805
						z"/>
				</g>
				<g>
					<path style="fill:#407BFF;" d="M150.149,220.36c0,0,0.272,8.028,3.095,7.051C156.067,226.434,150.149,220.36,150.149,220.36z"
						/>
				</g>
				<g>
					<path style="fill:#407BFF;" d="M133.73,204.372c2.823-0.977-3.095-7.051-3.095-7.051S130.906,205.349,133.73,204.372z"/>
				</g>
				<g>
					<path style="fill:#407BFF;" d="M135.707,208.876c0,0,0.272,8.028,3.095,7.051C141.625,214.951,135.707,208.876,135.707,208.876
						z"/>
				</g>
				<g>
					<path style="fill:#407BFF;" d="M140.779,220.432c0,0,0.272,8.028,3.095,7.051C146.697,226.506,140.779,220.432,140.779,220.432
						z"/>
				</g>
				<g>
					<path style="fill:#407BFF;" d="M121.265,197.393c0,0,0.272,8.028,3.095,7.051C127.183,203.467,121.265,197.393,121.265,197.393
						z"/>
				</g>
				<g>
					<path style="fill:#407BFF;" d="M126.337,208.948c0,0,0.272,8.028,3.095,7.051C132.255,215.022,126.337,208.948,126.337,208.948
						z"/>
				</g>
				<g>
					<path style="fill:#407BFF;" d="M131.409,220.504c0,0,0.272,8.028,3.095,7.051C137.327,226.578,131.409,220.504,131.409,220.504
						z"/>
				</g>
			</g>
			<g style="opacity:0.7;">
				<g>
					<path style="fill:#FFFFFF;" d="M152.469,204.228c2.823-0.977-3.095-7.051-3.095-7.051S149.646,205.205,152.469,204.228z"/>
				</g>
				<g>
					<path style="fill:#FFFFFF;" d="M154.447,208.733c0,0,0.272,8.028,3.095,7.051C160.365,214.807,154.447,208.733,154.447,208.733
						z"/>
				</g>
				<g>
					<path style="fill:#FFFFFF;" d="M159.519,220.288c0,0,0.272,8.028,3.095,7.051C165.437,226.362,159.519,220.288,159.519,220.288
						z"/>
				</g>
				<g>
					<path style="fill:#FFFFFF;" d="M143.1,204.3c2.823-0.977-3.095-7.051-3.095-7.051S140.276,205.277,143.1,204.3z"/>
				</g>
				<g>
					<path style="fill:#FFFFFF;" d="M145.077,208.805c0,0,0.272,8.028,3.095,7.051C150.995,214.879,145.077,208.805,145.077,208.805
						z"/>
				</g>
				<g>
					<path style="fill:#FFFFFF;" d="M150.149,220.36c0,0,0.272,8.028,3.095,7.051C156.067,226.434,150.149,220.36,150.149,220.36z"
						/>
				</g>
				<g>
					<path style="fill:#FFFFFF;" d="M133.73,204.372c2.823-0.977-3.095-7.051-3.095-7.051S130.906,205.349,133.73,204.372z"/>
				</g>
				<g>
					<path style="fill:#FFFFFF;" d="M135.707,208.876c0,0,0.272,8.028,3.095,7.051C141.625,214.951,135.707,208.876,135.707,208.876
						z"/>
				</g>
				<g>
					<path style="fill:#FFFFFF;" d="M140.779,220.432c0,0,0.272,8.028,3.095,7.051C146.697,226.506,140.779,220.432,140.779,220.432
						z"/>
				</g>
				<g>
					<path style="fill:#FFFFFF;" d="M121.265,197.393c0,0,0.272,8.028,3.095,7.051C127.183,203.467,121.265,197.393,121.265,197.393
						z"/>
				</g>
				<g>
					<path style="fill:#FFFFFF;" d="M126.337,208.948c0,0,0.272,8.028,3.095,7.051C132.255,215.022,126.337,208.948,126.337,208.948
						z"/>
				</g>
				<g>
					<path style="fill:#FFFFFF;" d="M131.409,220.504c0,0,0.272,8.028,3.095,7.051C137.327,226.578,131.409,220.504,131.409,220.504
						z"/>
				</g>
			</g>
		</g>
	</g>
</g>
<g id="Symbols">
	<g>
		<path style="fill:#407BFF;" d="M361.991,156.678c0.82-2.528-0.79-4.947-4.267-6.075c-3.342-1.085-6.19-0.611-8.489,1.089
			l-3.457-4.266c3.642-2.611,8.38-3.37,14.024-1.538c6.637,2.153,10.081,6.614,8.396,11.807
			c-2.388,7.359-10.329,5.531-12.058,10.859l-5.734-1.86C352.575,160.012,360.526,161.194,361.991,156.678z M347.326,173.729
			c0.63-1.941,2.618-2.993,4.741-2.304c2.077,0.674,3.069,2.691,2.439,4.633c-0.63,1.942-2.633,3.039-4.71,2.365
			C347.673,177.735,346.696,175.671,347.326,173.729z"/>
	</g>
	<g>
		<path style="fill:#407BFF;" d="M105.851,239.837c0.515-1.691-0.584-3.28-2.91-3.988c-2.235-0.682-4.123-0.333-5.631,0.825
			l-2.35-2.795c2.39-1.78,5.532-2.341,9.307-1.191c4.439,1.352,6.782,4.278,5.724,7.751c-1.5,4.922-6.802,3.802-7.888,7.365
			l-3.835-1.168C99.63,242.167,104.931,242.856,105.851,239.837z M96.304,251.351c0.396-1.299,1.705-2.021,3.125-1.59
			c1.389,0.424,2.073,1.754,1.677,3.053c-0.396,1.299-1.714,2.052-3.104,1.629C96.583,254.01,95.908,252.649,96.304,251.351z"/>
	</g>
	<g>
		<path style="fill:#407BFF;" d="M163.218,131.195l4.366-1.664l4.523,14.088l-2.92,1.112L163.218,131.195z M170.082,149.83
			c-0.483-1.269,0.138-2.654,1.524-3.183c1.357-0.517,2.713,0.115,3.196,1.384c0.483,1.269-0.097,2.672-1.454,3.189
			C171.962,151.749,170.565,151.099,170.082,149.83z"/>
	</g>
	<g>
		<path style="fill:#407BFF;" d="M109.844,365.589c0.173-2.105,1.975-3.634,4.277-3.444c2.252,0.186,3.731,1.983,3.558,4.089
			s-1.93,3.686-4.183,3.501C111.195,369.545,109.671,367.694,109.844,365.589z M112.721,334.816l7.247,0.596l-3.109,22.816
			l-4.848-0.398L112.721,334.816z"/>
	</g>
	<g>
		<path style="fill:#407BFF;" d="M301.931,263.346l4.551-1.06l2.584,14.568l-3.044,0.709L301.931,263.346z M306.222,282.736
			c-0.308-1.322,0.494-2.611,1.938-2.947c1.415-0.33,2.673,0.479,2.981,1.801c0.308,1.322-0.456,2.635-1.871,2.965
			C307.826,284.891,306.53,284.059,306.222,282.736z"/>
	</g>
</g>
<g id="Doodles">
	<g>
		<g>
			<path style="fill:#263238;" d="M312.396,159.775c-0.108,0-0.215-0.043-0.295-0.128c-0.078-0.083-7.71-8.324-2.705-14.072
				c0.647-0.743,1.36-1.288,2.111-1.626c-1.11-2.597-1.886-6.057-2.192-10.116c-0.163-2.162,0.781-3.621,2.66-4.107
				c1.039-0.27,2.352-0.212,3.74,0.083c0.017-1.124,0.263-2.142,0.798-2.912c0.872-1.253,2.816-2.331,7.129-0.349
				c0.203,0.093,0.293,0.333,0.199,0.537c-0.093,0.203-0.333,0.294-0.537,0.199c-2.101-0.965-4.867-1.736-6.127,0.076
				c-0.472,0.679-0.675,1.607-0.666,2.643c3.441,0.933,7.11,3.185,8.159,5.465c0.605,1.316,0.262,2.513-0.965,3.368
				c-1.483,1.034-3.165,0.738-4.736-0.832c-1.717-1.715-3.029-4.739-3.228-7.39c-1.303-0.297-2.55-0.365-3.563-0.105
				c-1.497,0.388-2.189,1.485-2.055,3.262c0.3,3.978,1.068,7.389,2.147,9.906c1.105-0.287,2.269-0.152,3.411,0.425
				c1.808,0.913,3.155,2.789,2.882,4.014c-0.064,0.291-0.333,0.971-1.422,1.003c-2.085,0.071-3.909-1.566-5.3-4.439
				c-0.597,0.268-1.218,0.717-1.835,1.425c-4.524,5.197,2.612,12.909,2.685,12.986c0.153,0.163,0.145,0.419-0.018,0.572
				C312.595,159.739,312.496,159.775,312.396,159.775z M312.613,144.429c1.227,2.504,2.816,3.964,4.503,3.884
				c0.578-0.017,0.635-0.273,0.656-0.37c0.149-0.671-0.754-2.256-2.456-3.116C314.691,144.512,313.721,144.192,312.613,144.429z
				 M316.56,130.83c0.251,2.369,1.448,5.072,2.98,6.604c0.893,0.893,2.261,1.746,3.701,0.74c0.907-0.632,1.134-1.406,0.693-2.366
				C323.065,133.918,319.757,131.768,316.56,130.83z"/>
		</g>
		<g>
			<path style="fill:#263238;" d="M307.019,246.303c-2.587,0-5.152-0.906-6.288-3.2c-0.921-1.86-0.565-4.048-0.15-5.745
				c0.605-2.484,2.51-9.039,6.472-13.014c-3.889,1.583-7.982,5.91-9.574,8.712c-0.111,0.194-0.357,0.263-0.552,0.151
				c-0.194-0.11-0.262-0.357-0.152-0.552c1.59-2.797,6.607-8.473,11.542-9.558c0.079-0.017,0.157-0.033,0.234-0.048
				c1.246-0.913,2.659-1.564,4.256-1.807c2.549-0.387,5.107,0.56,6.516,2.416c1.241,1.636,1.449,3.671,1.153,5.48
				c0.655,0.23,1.162,0.579,1.531,1.05c0.8,1.022,0.872,2.504,0.213,4.403c-1.896,5.464-6.742,9.919-12.346,11.351
				C308.968,246.174,307.992,246.303,307.019,246.303z M308.867,223.816c-4.656,3.53-6.85,11.065-7.5,13.733
				c-0.381,1.564-0.716,3.568,0.089,5.194c1.363,2.754,5.215,3.181,8.216,2.415c5.348-1.365,9.972-5.617,11.782-10.831
				c0.563-1.623,0.534-2.847-0.086-3.639c-0.253-0.323-0.604-0.571-1.06-0.748c-0.115,0.457-0.26,0.892-0.424,1.292
				c-1.762,4.292-7.059,10.6-12.421,11.279c-0.217,0.026-0.424-0.128-0.453-0.351c-0.028-0.222,0.129-0.424,0.351-0.452
				c4.991-0.633,10.129-6.777,11.774-10.784c0.153-0.372,0.287-0.775,0.393-1.2c-0.382-0.07-0.813-0.108-1.296-0.114
				c-0.813-0.008-1.633,0.039-2.444,0.144c0.08,4.059-2.701,7.96-6.59,9.17c-1.294,0.4-2.774,0.311-3.773-0.234
				c-0.658-0.358-1.105-0.902-1.293-1.574c-0.359-1.287,0.331-2.724,1.942-4.045c2.518-2.065,5.628-3.457,8.858-4.007
				c-0.209-1.886-1.097-3.546-2.419-4.492C311.491,223.841,310.264,223.589,308.867,223.816z M314.979,229.878
				c-3.061,0.537-6.005,1.862-8.392,3.82c-0.781,0.641-2.037,1.908-1.675,3.202c0.129,0.462,0.432,0.825,0.9,1.08
				c0.804,0.438,2.068,0.507,3.145,0.172C312.418,237.076,314.993,233.496,314.979,229.878z M310.241,222.937
				c1.01,0.067,1.928,0.394,2.744,0.978c1.5,1.074,2.508,2.931,2.749,5.032c0.834-0.105,1.669-0.156,2.508-0.145
				c0.532,0.006,1.014,0.05,1.447,0.131c0.249-1.6,0.06-3.373-1.012-4.785c-1.232-1.622-3.49-2.452-5.749-2.104
				C311.963,222.19,311.069,222.501,310.241,222.937z"/>
		</g>
		<g>
			<path style="fill:#263238;" d="M186.916,204.715c-0.103,0-0.206-0.039-0.285-0.118c-0.159-0.157-0.16-0.414-0.002-0.572
				c1.533-1.544,1.435-3.39,1.083-4.665c-0.127-0.46-0.304-0.912-0.523-1.35c-2.663,1.086-5.777,1.493-7.982,1.355
				c-2.258-0.141-3.729-0.803-4.139-1.864c-0.338-0.873,0.049-1.89,1.148-3.023c1.601-1.65,3.688-2.248,5.881-1.689
				c2.155,0.551,4.197,2.174,5.435,4.182c1.6-0.75,2.936-1.765,3.632-3.059c1.451-2.696,1.508-6.051,0.201-8.969
				c-0.908,0.117-1.73,0.169-2.406,0.149c-4.538-0.117-9.122-2.441-10.19-4.441c-0.376-0.705-0.23-1.208-0.04-1.507
				c0.48-0.758,1.805-1.09,3.935-0.988c3.82,0.183,7.083,2.185,8.954,5.493c0.078,0.138,0.153,0.278,0.226,0.419
				c4.026-0.608,9.456-2.482,11.325-5.658c0.904-1.536,0.825-3.227-0.236-5.026c-1.474-2.491-4.223-2.566-5.729-2.389
				c-0.574,0.067-1.146,0.188-1.702,0.354c0.261,0.675,0.453,1.396,0.568,2.156c0.304,2.008-0.389,5.548-2.168,6.523
				c-0.672,0.369-1.785,0.534-3.272-0.765c-1.612-1.409-1.583-2.891-1.274-3.885c0.572-1.843,2.586-3.57,5.046-4.513
				c-1.113-2.206-3.087-3.724-5.491-4.089c-0.221-0.034-0.373-0.24-0.339-0.461c0.034-0.22,0.235-0.367,0.461-0.339
				c2.709,0.412,4.925,2.133,6.143,4.624c0.629-0.192,1.279-0.331,1.935-0.408c2.936-0.346,5.255,0.642,6.521,2.782
				c1.222,2.072,1.302,4.039,0.237,5.848c-1.956,3.324-7.479,5.314-11.669,6.002c1.313,3.095,1.216,6.622-0.318,9.474
				c-0.787,1.463-2.238,2.58-3.947,3.389c0.236,0.473,0.427,0.963,0.564,1.46c0.578,2.095,0.12,4.031-1.29,5.451
				C187.124,204.675,187.02,204.715,186.916,204.715z M180.497,193.392c-1.145,0-2.469,0.38-3.7,1.649
				c-0.591,0.61-1.24,1.48-0.975,2.167c0.282,0.728,1.566,1.232,3.435,1.349c2.146,0.131,5.06-0.276,7.527-1.263
				c-1.131-1.788-2.96-3.228-4.888-3.721C181.481,193.468,181.007,193.392,180.497,193.392z M181.938,178.948
				c-1.963,0-2.428,0.472-2.527,0.629c-0.108,0.171-0.084,0.404,0.07,0.693c0.832,1.558,4.945,3.896,9.496,4.013
				c0.573,0.013,1.255-0.02,2.006-0.103c-0.024-0.045-0.049-0.089-0.074-0.133c-1.731-3.061-4.751-4.913-8.288-5.083
				C182.376,178.953,182.148,178.948,181.938,178.948z M194.729,171.608c-2.243,0.853-4.107,2.405-4.605,4.009
				c-0.345,1.113,0.003,2.135,1.034,3.036c0.911,0.795,1.702,1.02,2.35,0.665c1.403-0.769,2.023-3.934,1.757-5.692
				C195.157,172.914,194.976,172.238,194.729,171.608z"/>
		</g>
		<g>
			<path style="fill:#263238;" d="M131.305,343.844c-0.951,0-1.93-0.188-2.921-0.566c-0.209-0.079-0.314-0.313-0.234-0.522
				c0.08-0.208,0.314-0.315,0.522-0.233c2.208,0.841,4.341,0.638,6.17-0.59c2.517-1.688,4.267-5.221,4.354-8.79
				c0.007-0.293,0.008-0.612-0.009-0.944c-1.172,0.926-2.727,1.382-4.576,1.3c-1.522-0.065-2.788-0.65-3.473-1.608
				c-0.608-0.85-0.737-1.633-0.383-2.326c0.849-1.666,4.294-2.056,5.551-2.066c0.007,0,0.015,0,0.023,0
				c1.221,0,2.419,0.817,3.057,2.088c0.138,0.275,0.247,0.557,0.331,0.842c0.177-0.267,0.334-0.555,0.468-0.865
				c0.965-2.241,0.6-5.287-0.758-7.44c-1.018,2.275-4.902,3.361-7.293,2.952c-1.792-0.313-2.706-1.419-2.442-2.959
				c0.191-1.122,1.077-2.125,2.429-2.751c2.474-1.145,4.825-0.878,6.66,0.744c-0.247-0.955-0.964-1.967-2.145-3.022
				c-2.554-2.282-5.044-3.38-7.395-3.29c-0.222,0.007-0.412-0.164-0.421-0.388c-0.01-0.223,0.164-0.412,0.387-0.421
				c2.577-0.124,5.252,1.068,7.968,3.495c1.761,1.572,2.603,3.113,2.506,4.587c1.864,2.396,2.429,6.073,1.248,8.812
				c-0.261,0.605-0.594,1.14-0.993,1.599c0.077,0.597,0.082,1.175,0.069,1.68c-0.093,3.819-1.987,7.614-4.712,9.443
				C134.065,343.429,132.717,343.844,131.305,343.844z M136.33,328.308c-0.005,0-0.011,0-0.017,0.001
				c-1.623,0.012-4.282,0.536-4.836,1.623c-0.208,0.408-0.104,0.895,0.32,1.487c0.539,0.753,1.577,1.216,2.848,1.27
				c1.841,0.074,3.368-0.439,4.428-1.479c-0.081-0.431-0.21-0.859-0.411-1.26C138.252,329.131,137.373,328.308,136.33,328.308z
				 M135.051,319.482c-0.827,0-1.698,0.205-2.589,0.617c-0.523,0.243-1.764,0.938-1.971,2.153c-0.234,1.375,0.84,1.86,1.784,2.024
				c2.497,0.43,6.197-0.948,6.563-2.96c-0.121-0.142-0.248-0.277-0.38-0.405C137.482,319.963,136.318,319.482,135.051,319.482z"/>
		</g>
		<g>
			<path style="fill:#263238;" d="M146.846,262.354c-1.783,0-3.695-0.644-5.281-1.871c-2.948-2.283-4.009-5.895-2.913-9.908
				c0.061-0.224,0.123-0.444,0.185-0.66c-1.143-0.684-2.185-1.068-2.986-0.806c-0.733,0.241-1.279,1.02-1.669,2.38
				c-0.061,0.215-0.285,0.334-0.5,0.278c-0.215-0.063-0.339-0.286-0.278-0.501c0.469-1.639,1.187-2.596,2.194-2.927
				c1.032-0.338,2.214,0.045,3.485,0.778c0.316-0.941,0.704-1.795,1.31-2.541c2.065-2.542,6.305-1.647,9.21,0.687
				c1.651,1.326,2.58,2.859,2.72,4.341c0.411-0.253,0.895-0.318,1.406-0.184c0.708,0.187,1.397,0.756,1.756,1.451
				c1.237,2.396-0.304,5.345-2.519,6.594c-0.388,0.219-0.869,0.425-1.41,0.603c-0.415,0.622-0.964,1.134-1.64,1.521
				C149.019,262.104,147.958,262.354,146.846,262.354z M139.55,250.369c-0.039,0.138-0.078,0.277-0.116,0.419
				c-1.006,3.683-0.049,6.982,2.627,9.055c2.285,1.77,5.421,2.208,7.456,1.044c0.232-0.133,0.447-0.284,0.643-0.453
				c-1.964,0.391-4.284,0.371-5.935-0.558c-1.271-0.714-1.97-1.886-2.021-3.39c-0.007-0.224,0.167-0.411,0.391-0.418
				c0.249,0.007,0.411,0.167,0.419,0.391c0.041,1.223,0.582,2.135,1.608,2.711c1.722,0.969,4.42,0.811,6.399,0.222
				c0.593-1.023,0.804-2.37,0.601-3.953l-0.063-0.448c-0.024-0.162-0.048-0.329-0.07-0.5c-0.027,0.036-0.055,0.072-0.083,0.108
				c-2.381,2.998-6.071,0.15-9.326-2.361C141.231,251.583,140.373,250.921,139.55,250.369z M153.222,252.162
				c-0.18,0-0.345,0.048-0.491,0.145c-0.682,0.447-0.525,1.525-0.372,2.567l0.064,0.461c0.179,1.391,0.066,2.626-0.319,3.66
				c0.167-0.075,0.324-0.153,0.467-0.234c1.848-1.042,3.204-3.564,2.196-5.518c-0.254-0.493-0.753-0.911-1.242-1.039
				C153.42,252.176,153.319,252.162,153.222,252.162z M139.794,249.557c0.895,0.585,1.828,1.305,2.779,2.04
				c3.813,2.942,6.443,4.706,8.197,2.498c1.737-2.186,0.275-4.636-1.672-6.2c-2.542-2.04-6.351-2.929-8.075-0.808
				C140.457,247.785,140.095,248.621,139.794,249.557z"/>
		</g>
		<g>
			<path style="fill:#263238;" d="M373.783,355.857c-1.798,0-3.64-0.293-5.384-0.571l-0.354-0.057
				c-0.221-0.034-0.372-0.242-0.336-0.463c0.035-0.221,0.241-0.376,0.463-0.336l0.354,0.056c3.896,0.621,8.311,1.324,11.339-1.546
				c1.5-1.423,2.322-3.349,2.377-5.569c0.05-2.013-0.546-4.153-1.621-6.001c-0.25,2.693-1.498,5.384-3.646,7.389
				c-3.061,2.855-7.621,3.897-11.618,2.653c-4.112-1.281-6.374-4.698-5.628-8.504c0.488-2.491,2.189-4.781,4.668-6.282
				c0.372-0.225,0.756-0.427,1.15-0.605c0.099-0.716,0.28-1.371,0.541-1.901c0.918-1.874,2.595-3,4.719-3.172
				c2.971-0.237,6.399,1.388,8.158,3.868c1.067,1.505,1.622,3.288,1.695,5.127c1.56,2.179,2.455,4.907,2.392,7.449
				c-0.06,2.439-0.969,4.561-2.629,6.137C378.522,355.33,376.193,355.857,373.783,355.857z M365.466,336.957
				c-0.221,0.112-0.438,0.233-0.65,0.362c-2.283,1.382-3.848,3.477-4.292,5.745c-0.764,3.902,1.998,6.616,5.074,7.574
				c3.724,1.161,7.973,0.189,10.825-2.472c2.075-1.935,3.475-4.928,3.452-7.929c-0.272-0.364-0.564-0.712-0.875-1.038
				c-3.168-3.315-8.463-4.331-12.692-2.626c-0.16,2.018,0.345,4.474,1.533,5.69c0.839,0.86,1.912,0.997,3.188,0.407
				c0.524-0.242,0.963-0.759,1.118-1.315c0.076-0.273,0.115-0.675-0.131-1.036c-0.126-0.186-0.077-0.437,0.108-0.563
				c0.185-0.125,0.437-0.076,0.562,0.107c0.328,0.482,0.413,1.089,0.241,1.708c-0.219,0.788-0.816,1.491-1.559,1.833
				c-2.019,0.934-3.347,0.201-4.106-0.575C365.963,341.502,365.385,339.088,365.466,336.957z M370.599,334.956
				c3.332,0,6.683,1.275,8.985,3.686c0.058,0.06,0.115,0.121,0.171,0.183c-0.202-1.231-0.668-2.436-1.451-3.54
				c-1.579-2.227-4.777-3.746-7.433-3.529c-1.294,0.105-3.048,0.661-4.058,2.721c-0.166,0.339-0.293,0.742-0.383,1.186
				C367.761,335.187,369.179,334.956,370.599,334.956z"/>
		</g>
	</g>
</g>
<g id="Speech_bubble_4">
	<g>
		<g>
			<g>
				<path style="fill:#407BFF;" d="M374.113,316.334l-24.592-15.175c-3.833-2.365-5.022-7.389-2.657-11.222l3.339-5.411
					c2.365-3.833,7.389-5.022,11.222-2.657l24.591,15.175c3.833,2.365,5.022,7.389,2.657,11.222l-3.339,5.41
					C382.97,317.51,377.945,318.699,374.113,316.334z"/>
			</g>
		</g>
		<g style="opacity:0.7;">
			<g>
				<path style="fill:#FFFFFF;" d="M374.113,316.334l-24.592-15.175c-3.833-2.365-5.022-7.389-2.657-11.222l3.339-5.411
					c2.365-3.833,7.389-5.022,11.222-2.657l24.591,15.175c3.833,2.365,5.022,7.389,2.657,11.222l-3.339,5.41
					C382.97,317.51,377.945,318.699,374.113,316.334z"/>
			</g>
		</g>
		<g>
			<g>
				<path style="fill:#263238;" d="M355.913,295.27c0.183-0.297,0.556-0.376,0.852-0.194c0.306,0.189,0.402,0.559,0.22,0.855
					c-0.176,0.285-0.563,0.385-0.869,0.196C355.82,295.944,355.736,295.555,355.913,295.27z M360.918,291.678
					c0.454-0.735,0.167-1.616-0.874-2.259c-0.868-0.535-1.677-0.641-2.46-0.377l-0.289-0.742c0.967-0.333,2.054-0.198,3.196,0.507
					c1.429,0.882,1.926,2.134,1.252,3.226c-1.077,1.745-2.995,0.674-3.895,2.134l-0.756-0.467
					C358.131,292.016,360.093,293.015,360.918,291.678z"/>
			</g>
			<g>
				<path style="fill:#263238;" d="M360.162,297.892c0.183-0.297,0.556-0.377,0.862-0.188c0.306,0.189,0.392,0.552,0.209,0.849
					c-0.176,0.285-0.552,0.392-0.858,0.202C360.069,298.567,359.985,298.177,360.162,297.892z M364.386,291.296l0.858,0.528
					l-3.239,4.907l-0.562-0.347L364.386,291.296z"/>
			</g>
			<g>
				<path style="fill:#263238;" d="M364.276,300.431c0.183-0.297,0.556-0.377,0.852-0.194c0.306,0.189,0.402,0.559,0.22,0.855
					c-0.176,0.285-0.563,0.385-0.869,0.196C364.183,301.106,364.1,300.716,364.276,300.431z M369.282,296.839
					c0.454-0.734,0.167-1.617-0.874-2.259c-0.868-0.536-1.677-0.641-2.46-0.377l-0.289-0.742c0.967-0.333,2.054-0.198,3.196,0.507
					c1.43,0.882,1.926,2.133,1.252,3.226c-1.077,1.745-2.995,0.674-3.896,2.134l-0.756-0.467
					C366.495,297.177,368.457,298.177,369.282,296.839z"/>
			</g>
			<g>
				<path style="fill:#263238;" d="M368.525,303.052c0.183-0.296,0.556-0.376,0.862-0.187c0.306,0.189,0.392,0.552,0.209,0.849
					c-0.176,0.285-0.552,0.392-0.858,0.202C368.432,303.728,368.349,303.337,368.525,303.052z M372.75,296.456l0.857,0.529
					l-3.239,4.906l-0.561-0.346L372.75,296.456z"/>
			</g>
			<g>
				<path style="fill:#263238;" d="M372.64,305.592c0.183-0.297,0.556-0.376,0.852-0.194c0.307,0.189,0.402,0.559,0.22,0.855
					c-0.176,0.285-0.563,0.385-0.869,0.196C372.547,306.267,372.463,305.877,372.64,305.592z M377.646,302
					c0.454-0.735,0.166-1.616-0.874-2.259c-0.868-0.535-1.677-0.641-2.46-0.377l-0.289-0.742c0.967-0.333,2.053-0.198,3.197,0.508
					c1.429,0.881,1.925,2.133,1.251,3.225c-1.077,1.745-2.996,0.674-3.896,2.134l-0.755-0.467
					C374.859,302.338,376.821,303.337,377.646,302z"/>
			</g>
			<g>
				<path style="fill:#263238;" d="M376.889,308.214c0.183-0.297,0.556-0.377,0.862-0.188c0.306,0.189,0.392,0.552,0.209,0.849
					c-0.177,0.285-0.552,0.392-0.858,0.202C376.795,308.889,376.712,308.499,376.889,308.214z M381.114,301.618l0.857,0.529
					l-3.239,4.906l-0.561-0.347L381.114,301.618z"/>
			</g>
		</g>
		<g>
			<g>
				<polygon style="fill:#407BFF;" points="354.976,304.046 345.842,305.538 351.613,300.421 				"/>
			</g>
		</g>
		<g style="opacity:0.7;">
			<g>
				<polygon style="fill:#FFFFFF;" points="354.976,304.046 345.842,305.538 351.613,300.421 				"/>
			</g>
		</g>
	</g>
</g>
<g id="Speech_bubble_3">
	<g>
		<g>
			<path style="fill:#407BFF;" d="M323.241,197.618l-37.571,10.095c-4.349,1.169-8.823-1.41-9.991-5.759l-1.65-6.14
				c-1.169-4.349,1.41-8.823,5.759-9.991l37.571-10.095c4.349-1.169,8.823,1.41,9.991,5.759l1.65,6.14
				C330.169,191.976,327.59,196.449,323.241,197.618z"/>
		</g>
		<g style="opacity:0.7;">
			<path style="fill:#FFFFFF;" d="M323.241,197.618l-37.571,10.095c-4.349,1.169-8.823-1.41-9.991-5.759l-1.65-6.14
				c-1.169-4.349,1.41-8.823,5.759-9.991l37.571-10.095c4.349-1.169,8.823,1.41,9.991,5.759l1.65,6.14
				C330.169,191.976,327.59,196.449,323.241,197.618z"/>
		</g>
		<g>
			<path style="fill:#263238;" d="M284.261,193.309l1.521,0.39l-0.124,0.514l-1.541-0.42l0.406,1.513l-0.49,0.132l-0.395-1.516
				l-1.124,1.136l-0.376-0.379l1.132-1.103l-1.532-0.388l0.133-0.527l1.544,0.431l-0.418-1.51l0.49-0.132l0.407,1.513l1.119-1.146
				l0.368,0.392L284.261,193.309z"/>
			<path style="fill:#263238;" d="M297.13,193.232c0.486,1.812,0.102,3.057-0.996,3.352c-0.692,0.186-1.275-0.114-1.517-0.837
				c-0.227,0.849-0.881,1.481-1.818,1.733c-1.513,0.406-2.951-0.441-3.384-2.049c-0.429-1.598,0.393-3.042,1.907-3.448
				c0.916-0.246,1.781-0.045,2.41,0.552l-0.289-1.076l0.692-0.186l1.085,4.038c0.16,0.597,0.516,0.73,0.878,0.633
				c0.66-0.178,0.866-1.113,0.479-2.551c-0.673-2.504-2.92-3.683-5.498-2.99c-2.61,0.702-3.92,2.926-3.241,5.452
				c0.679,2.525,2.911,3.821,5.5,3.126c0.64-0.172,1.388-0.533,1.92-1.019l0.321,0.473c-0.551,0.503-1.381,0.898-2.095,1.089
				c-2.93,0.787-5.474-0.688-6.232-3.512c-0.762-2.834,0.74-5.362,3.681-6.152C293.822,189.083,296.379,190.441,297.13,193.232z
				 M294.178,194.15c-0.346-1.289-1.443-1.885-2.594-1.576c-1.183,0.318-1.809,1.389-1.465,2.667
				c0.343,1.278,1.428,1.913,2.61,1.595C293.88,196.527,294.528,195.451,294.178,194.15z"/>
			<path style="fill:#263238;" d="M302.656,189.577l0.323,2.312l1.513-0.406l0.157,0.585l-1.587,0.426l0.299,2.09l-0.575,0.155
				l-0.299-2.09l-2.185,0.587l0.289,2.093l-0.575,0.154l-0.299-2.09l-1.514,0.407l-0.157-0.585l1.588-0.427l-0.324-2.312
				l-1.523,0.409l-0.158-0.586l1.599-0.429l-0.299-2.09l0.586-0.158l0.288,2.093l2.195-0.59l-0.3-2.09l0.575-0.155l0.3,2.09
				l1.502-0.404l0.157,0.586L302.656,189.577z M302.079,189.732l-2.184,0.586l0.313,2.315l2.194-0.589L302.079,189.732z"/>
			<path style="fill:#263238;" d="M312.443,192.271l-1.319-0.788c-0.448,0.84-1.209,1.41-2.222,1.682
				c-1.46,0.393-2.71-0.095-3.013-1.224c-0.238-0.884,0.099-1.671,1.251-2.827c-0.925-0.551-1.259-0.941-1.413-1.516
				c-0.255-0.948,0.309-1.785,1.459-2.094c1.055-0.284,1.886,0.087,2.135,1.014c0.2,0.746-0.107,1.388-1.132,2.418l2.612,1.56
				c0.117-0.454,0.159-0.979,0.114-1.573l0.669,0.026c0.042,0.708-0.027,1.344-0.199,1.893l1.359,0.812L312.443,192.271z
				 M306.427,187.398c0.118,0.438,0.36,0.703,1.229,1.212c0.91-0.907,1.161-1.374,1.019-1.907c-0.149-0.554-0.644-0.821-1.336-0.635
				C306.592,186.269,306.267,186.801,306.427,187.398z M310.553,191.145l-2.87-1.708c-1.01,1.003-1.246,1.569-1.068,2.23
				c0.218,0.809,1.085,1.147,2.161,0.858C309.585,192.307,310.193,191.847,310.553,191.145z"/>
			<path style="fill:#263238;" d="M311.538,186.505c-0.326-1.214,0.139-2.208,1.14-2.477c0.991-0.266,1.898,0.347,2.228,1.572
				c0.329,1.226-0.148,2.211-1.14,2.477C312.764,188.346,311.864,187.719,311.538,186.505z M314.372,185.743
				c-0.261-0.97-0.874-1.422-1.566-1.236c-0.703,0.189-0.993,0.895-0.735,1.854c0.258,0.959,0.862,1.425,1.565,1.236
				C314.328,187.411,314.632,186.713,314.372,185.743z M317.209,182.867l0.628-0.169l-3.089,8.826l-0.628,0.169L317.209,182.867z
				 M317.053,188.792c-0.326-1.215,0.148-2.21,1.14-2.477c1.001-0.269,1.9,0.357,2.227,1.572c0.327,1.215-0.138,2.208-1.14,2.477
				C318.289,190.63,317.379,190.007,317.053,188.792z M319.887,188.031c-0.257-0.959-0.862-1.425-1.566-1.236
				c-0.692,0.186-0.995,0.884-0.735,1.854c0.261,0.969,0.874,1.421,1.566,1.235C319.855,189.696,320.145,188.99,319.887,188.031z"/>
		</g>
		<g>
			<polygon style="fill:#407BFF;" points="293.31,204.593 289.24,212.904 288.408,205.238 			"/>
		</g>
		<g style="opacity:0.7;">
			<polygon style="fill:#FFFFFF;" points="293.31,204.593 289.24,212.904 288.408,205.238 			"/>
		</g>
	</g>
</g>
<g id="Speech_bubble_2">
	<g>
		<g>
			<g>
				<polygon style="fill:#407BFF;" points="199.692,117.288 218.083,98.355 286.651,105.006 297.727,152.086 265.683,169.207 
					247.135,163.286 239.709,171.303 244.391,175.971 233.653,184.657 239.709,175.971 231.86,171.303 236.616,161.569 
					205.057,150.507 				"/>
			</g>
			<g style="opacity:0.7;">
				<polygon style="fill:#FFFFFF;" points="199.692,117.288 218.083,98.355 286.651,105.006 297.727,152.086 265.683,169.207 
					247.135,163.286 239.709,171.303 244.391,175.971 233.653,184.657 239.709,175.971 231.86,171.303 236.616,161.569 
					205.057,150.507 				"/>
			</g>
		</g>
		<g>
			<path style="fill:#263238;" d="M254.758,155.856c-2.639,0-5.281-0.521-7.689-1.553c-0.984-0.421-2.407-1.121-3.387-2.331
				c-1.568-1.936-1.569-4.468-0.92-6.683c-0.102,0.009-0.204,0.019-0.306,0.026c-2.527,0.206-4.625-0.026-6.258-0.682
				c-0.614,0.34-1.223,0.641-1.803,0.909c0.412,0.47,0.79,1.005,1.13,1.613c0.655,1.169,0.797,2.228,0.41,3.062
				c-0.515,1.11-1.525,1.665-2.925,1.629c-2.304-0.072-5.466-1.853-7.272-3.62c-0.352,0.044-0.701,0.077-1.048,0.102
				c-3.325,0.233-6.479-0.496-8.89-2.053c-3.257-2.103-5.486-5.929-5.962-10.233c-0.407-3.678,0.41-7.729,2.365-11.714
				c0.524-1.069,1.109-2.095,1.75-3.072c-0.88,0.009-1.758-0.026-2.642-0.115c-0.32-0.032-1.171-0.118-1.509-0.781
				c-0.378-0.741,0.114-1.603,1.252-2.195c3.623-1.885,7.392-3.567,11.222-5.01c0.604-0.362,1.224-0.697,1.855-1.002
				c5.376-2.593,11.699-2.9,16.913-0.82c0.464,0.185,0.919,0.39,1.364,0.613c2.424-0.689,4.91-1.237,7.53-1.572
				c7.203-0.919,13.494-0.676,19.232,0.743c6.554,1.621,9.982,4.439,10.481,8.615c0.405,3.389-1.304,5.963-3.544,8.156
				c0.776,1.101,1.411,2.215,1.901,3.337c0.573,0.114,1.139,0.28,1.686,0.499c2.498,1.001,4.647,3.075,5.897,5.69
				c1.152,2.409,1.709,5.983-0.181,8.785c-1.087,1.613-2.883,2.827-5.492,3.711c-2.423,0.821-4.954,1.226-7.507,1.199
				c-1.24-0.013-3.071-0.128-4.664-0.973c-2.166-1.149-3.36-3.317-3.74-5.587c-0.277,0.612-0.711,1.232-1.302,1.857
				c1.643,1.044,2.832,3.083,2.217,5.042c-0.494,1.573-2.017,2.797-4.403,3.542C258.666,155.57,256.713,155.856,254.758,155.856z
				 M243.637,145.193c-0.684,2.072-0.774,4.482,0.673,6.27c0.66,0.814,1.638,1.481,3.077,2.097c4.019,1.719,8.717,1.96,12.892,0.66
				c1.48-0.461,3.353-1.358,3.872-3.011c0.519-1.652-0.583-3.388-2.038-4.216c-1.833,1.693-4.157,2.833-6.625,3.236
				c-0.54,0.088-1.224,0.135-1.733-0.29c-0.648-0.541-0.602-1.515-0.182-2.143c0.379-0.569,0.982-0.897,1.578-1.168
				c2.442-1.109,4.71-1.354,6.559-0.707c0.083,0.029,0.166,0.061,0.248,0.096c0.048-0.049,0.096-0.099,0.144-0.148
				c1.029-1.082,1.518-2.113,1.451-3.066c-0.1-1.442-1.394-2.427-2.765-2.961c-0.049,0.119-0.102,0.237-0.158,0.354
				c-1.115,2.342-3.293,4.336-6.473,5.927c-0.943,0.472-2.068,0.955-3.252,0.963c-0.01,0-0.02,0-0.03,0
				c-1.341,0-2.53-0.662-3.035-1.691c-0.157-0.322-0.242-0.652-0.264-0.986C246.219,144.77,244.911,145.031,243.637,145.193z
				 M226.778,148.072c1.67,1.443,4.275,2.904,6.257,2.966c1.09,0.027,1.787-0.346,2.165-1.161c0.345-0.743-0.018-1.675-0.382-2.326
				c-0.356-0.635-0.761-1.183-1.207-1.657c-0.041,0.018-0.081,0.036-0.122,0.053C231.02,147.017,228.839,147.71,226.778,148.072z
				 M275.513,128.453c-0.896,0.823-1.851,1.594-2.774,2.34c-0.885,0.715-1.721,1.391-2.465,2.074c-3.02,2.775-4.783,5.448-5.39,8.17
				c-0.645,2.889,0.272,6.811,3.242,8.387c1.094,0.58,2.458,0.859,4.293,0.879c2.475,0.045,4.903-0.364,7.239-1.156
				c2.434-0.826,4.097-1.936,5.081-3.397c1.698-2.52,1.176-5.776,0.121-7.984c-1.163-2.434-3.156-4.361-5.467-5.287
				c-0.334-0.134-0.674-0.246-1.019-0.336c0.156,0.426,0.291,0.853,0.405,1.28c0.698,2.612,0.517,5.106-0.509,7.023
				c-1.249,2.333-3.829,3.677-6.145,3.197c-2.342-0.487-4.172-2.871-4.167-5.427c0.004-2.307,1.414-4.643,3.592-5.953
				c1.599-0.961,3.563-1.36,5.503-1.174C276.635,130.204,276.121,129.325,275.513,128.453z M259.531,146.376
				c-1.491,0-2.949,0.491-4.046,0.989c-0.486,0.221-0.973,0.48-1.239,0.88c-0.213,0.319-0.254,0.837,0.027,1.072
				c0.258,0.215,0.715,0.173,1.084,0.113c2.193-0.358,4.266-1.338,5.939-2.793C260.716,146.453,260.121,146.376,259.531,146.376z
				 M211.242,129.13c-0.633,2.349-0.839,4.657-0.599,6.823c0.45,4.065,2.543,7.67,5.597,9.643c2.263,1.461,5.241,2.143,8.394,1.925
				c0.143-0.01,0.285-0.021,0.428-0.035c-0.282-0.354-0.495-0.696-0.618-1.014c-0.482-1.233-0.488-2.542-0.393-3.839
				c-0.175-0.015-0.349-0.029-0.523-0.044l-0.948-0.08c-2.729-0.239-6.148-0.819-8.378-3.199c-0.153-0.163-0.145-0.419,0.019-0.572
				c0.164-0.153,0.419-0.145,0.572,0.018c2.042,2.179,5.273,2.719,7.858,2.946l0.945,0.08c0.175,0.015,0.35,0.029,0.525,0.044
				c0.008-0.087,0.016-0.174,0.024-0.26l0.046-0.505c0.06-0.676,0.104-1.354,0.131-2.031c-1.319-0.168-2.458-0.705-3.241-1.563
				c-1.267-1.39-1.619-3.519-1.048-6.326c0.155-0.763,0.403-1.726,0.794-2.742c-0.885,0.521-1.8,0.99-2.738,1.4
				c-1.199,0.524-2.781,1.104-4.381,0.907c-0.981-0.12-1.771-0.534-2.226-1.165C211.384,129.409,211.305,129.271,211.242,129.13z
				 M224.857,142.705c-0.086,1.201-0.08,2.397,0.34,3.474c0.135,0.344,0.431,0.755,0.842,1.191c2.12-0.307,4.363-0.982,6.933-2.082
				C230.794,143.441,227.845,142.981,224.857,142.705z M248.373,144.186c-0.002,0.285,0.057,0.571,0.194,0.852
				c0.423,0.864,1.492,1.246,2.332,1.238c1.016-0.007,1.993-0.426,2.896-0.878c3.015-1.508,5.069-3.376,6.104-5.551
				c0.041-0.085,0.08-0.172,0.117-0.26c-0.088-0.024-0.177-0.046-0.264-0.066c-0.241-0.055-0.483-0.103-0.727-0.143
				c-2.126,1.409-4.623,2.654-7.515,3.751C250.432,143.539,249.388,143.89,248.373,144.186z M224.925,141.898
				c3.271,0.301,6.507,0.811,8.873,3.027c0.481-0.218,0.984-0.458,1.496-0.725c-0.062-0.036-0.124-0.072-0.184-0.108
				c-1.303-0.795-2.445-2.394-1.874-4.026c0.253-0.722,0.755-1.302,1.164-1.726c2.138-2.215,4.966-3.851,7.747-5.044
				c-0.009-0.054-0.018-0.108-0.028-0.163c-0.082-0.453-0.202-0.893-0.353-1.319c-1.326,0.783-2.842,1.464-4.478,1.482
				c-0.503-0.008-1.003-0.055-1.47-0.178c-2.498,2.61-5.355,5.13-9.046,5.822c-0.563,0.105-1.117,0.154-1.643,0.146
				c-0.028,0.683-0.072,1.365-0.132,2.047l-0.047,0.509C224.941,141.728,224.933,141.813,224.925,141.898z M237.115,144.095
				c1.428,0.436,3.216,0.581,5.275,0.414c0.217-0.018,0.436-0.039,0.655-0.062c0.231-0.609,0.506-1.183,0.804-1.699
				c0.806-1.398,1.827-2.667,2.814-3.894c0.935-1.162,1.902-2.363,2.664-3.654c0.699-1.183,1.233-2.462,1.594-3.791
				c-1.07,0.225-2.109,0.511-3.049,0.771l-0.19,0.052c-1.413,0.389-3.02,0.904-4.658,1.574c0.237,2.812-0.864,5.8-2.977,7.973
				C239.154,142.696,238.142,143.456,237.115,144.095z M251.8,131.242c-0.378,1.534-0.974,3.014-1.776,4.371
				c-0.792,1.34-1.777,2.565-2.73,3.75c-0.968,1.203-1.968,2.447-2.744,3.79c-0.21,0.365-0.409,0.761-0.587,1.179
				c1.192-0.172,2.417-0.431,3.689-0.782c0.291-1.252,1.343-2.452,2.592-3.221c2.553-1.572,5.627-2.205,8.592-1.797
				c0.609-0.414,1.186-0.842,1.73-1.285c0.122-1.785-0.395-3.661-1.845-4.864C256.859,130.841,254.29,130.818,251.8,131.242z
				 M242.234,134.14c-2.621,1.146-5.257,2.696-7.253,4.763c-0.352,0.364-0.781,0.856-0.981,1.431
				c-0.404,1.153,0.464,2.416,1.531,3.067c0.194,0.119,0.4,0.229,0.619,0.329c1.161-0.672,2.322-1.493,3.315-2.515
				C241.351,139.276,242.364,136.643,242.234,134.14z M257.065,139.22c-2.242,0-4.478,0.616-6.398,1.798
				c-0.782,0.481-1.695,1.324-2.092,2.263c0.86-0.262,1.741-0.564,2.647-0.908c2.463-0.934,4.631-1.975,6.517-3.134
				C257.515,139.226,257.29,139.22,257.065,139.22z M276.122,131.851c-1.482,0-2.935,0.373-4.153,1.105
				c-1.94,1.166-3.196,3.231-3.2,5.261c-0.004,2.186,1.543,4.221,3.523,4.632c1.937,0.401,4.2-0.795,5.266-2.786
				c0.929-1.735,1.085-4.02,0.44-6.433c-0.15-0.562-0.338-1.123-0.565-1.683C276.997,131.883,276.558,131.851,276.122,131.851z
				 M261.06,139.08c1.192,0.464,2.349,1.244,2.927,2.349c0.03-0.192,0.066-0.382,0.108-0.569c0.645-2.889,2.487-5.699,5.632-8.589
				c0.763-0.701,1.608-1.384,2.504-2.108c0.956-0.772,1.919-1.551,2.807-2.367c-0.551-0.732-1.168-1.459-1.85-2.179
				c-4.909-5.188-13.314-9.264-21.03-6.679c-0.439,0.148-0.879,0.317-1.318,0.509c3.98,0.228,7.844,1.141,11.318,2.688
				c1.516,0.675,3.375,1.677,4.304,3.442c1.128,2.145,0.635,5.115-1.318,7.947c-1.031,1.496-2.292,2.868-3.794,4.126
				C261.297,138.129,261.201,138.608,261.06,139.08z M259.952,138.737c0.11,0.026,0.222,0.054,0.334,0.085
				c0.04-0.135,0.075-0.273,0.107-0.412C260.248,138.52,260.101,138.629,259.952,138.737z M225.153,138.278
				c0.471,0.003,0.964-0.038,1.469-0.133c3.335-0.625,6.008-2.902,8.358-5.325c-0.533-0.245-1.007-0.58-1.395-0.993
				c-1.291-1.376-1.564-3.704-0.663-5.66c0.341-0.741,0.83-1.438,1.461-2.087c-2.153-1.08-4.659-1.699-6.989-1.142
				c-1.145,1.316-2.423,2.521-3.805,3.589c0.403,0.977,0.646,2.005,0.815,2.892C224.965,132.341,225.215,135.31,225.153,138.278z
				 M222.034,127.644c-0.645,1.331-1.009,2.673-1.21,3.659c-0.517,2.541-0.23,4.431,0.854,5.619c0.638,0.7,1.572,1.143,2.666,1.296
				c0.058-2.897-0.188-5.795-0.735-8.646c-0.15-0.782-0.359-1.683-0.691-2.541C222.627,127.241,222.333,127.445,222.034,127.644z
				 M254.327,130.192c1.783,0,3.501,0.401,4.91,1.568c1.344,1.114,2.093,2.891,2.155,4.782c1.201-1.076,2.227-2.233,3.085-3.479
				c1.779-2.579,2.253-5.237,1.268-7.11c-0.813-1.545-2.52-2.457-3.916-3.08c-3.424-1.524-7.238-2.417-11.167-2.627
				c0.598,1.226,1.044,2.513,1.31,3.83c0.419,2.073,0.415,4.231,0.016,6.313C252.765,130.268,253.552,130.192,254.327,130.192z
				 M242.469,131.381c0.191,0.512,0.343,1.044,0.444,1.597c1.604-0.645,3.17-1.145,4.553-1.526l0.19-0.052
				c1.066-0.294,2.251-0.621,3.475-0.86c0.439-2.071,0.464-4.232,0.046-6.303c-0.281-1.391-0.772-2.746-1.439-4.026
				c-0.141-0.004-0.282-0.006-0.423-0.008c-0.96,0.533-1.913,1.171-2.852,1.91c-2.194,1.727-4.129,3.809-5.983,5.882
				c0.638,0.788,1.221,1.668,1.67,2.63c1.631-1.052,3.755-2.852,4.633-5.462c0.072-0.212,0.303-0.323,0.513-0.255
				c0.212,0.071,0.326,0.301,0.255,0.513c-0.955,2.836-3.23,4.769-4.971,5.89C242.544,131.334,242.506,131.358,242.469,131.381z
				 M236.47,132.427c0.264,0.042,0.53,0.057,0.809,0.06c1.497-0.017,2.925-0.68,4.18-1.432c-0.405-0.891-0.938-1.71-1.524-2.449
				c-0.086,0.097-0.172,0.193-0.257,0.29c-0.682,0.767-1.363,1.534-2.056,2.286l-0.243,0.264
				C237.08,131.77,236.778,132.098,236.47,132.427z M235.128,124.48c-0.648,0.63-1.14,1.307-1.471,2.026
				c-0.766,1.665-0.553,3.626,0.519,4.768c0.371,0.396,0.857,0.708,1.406,0.917c0.409-0.433,0.808-0.867,1.2-1.293l0.243-0.264
				c0.69-0.749,1.368-1.511,2.046-2.275c0.112-0.126,0.224-0.252,0.336-0.378c-0.697-0.785-1.437-1.462-2.115-2.016
				C236.652,125.441,235.92,124.933,235.128,124.48z M218.519,123.628c-1.778,0-3.743,0.809-5.099,1.858
				c-1.029,0.796-2.107,2.435-1.283,3.583c0.433,0.602,1.23,0.781,1.667,0.834c1.405,0.169,2.854-0.361,3.959-0.845
				c1.264-0.553,2.484-1.215,3.644-1.972c0.242-0.478,0.52-0.954,0.837-1.413c-0.474-0.743-1.098-1.362-1.932-1.713
				C219.763,123.731,219.152,123.628,218.519,123.628z M235.766,123.916c0.743,0.439,1.43,0.924,2.04,1.421
				c0.687,0.561,1.434,1.244,2.145,2.035c1.855-2.073,3.795-4.152,6.012-5.897c0.58-0.456,1.165-0.875,1.755-1.257
				c-4.082,0.137-7.561,1.014-10.341,2.607C236.777,123.168,236.24,123.532,235.766,123.916z M257.129,117.33
				c6.401,0,12.65,3.507,16.646,7.729c0.68,0.718,1.297,1.443,1.852,2.174c2.083-2.052,3.583-4.371,3.22-7.404
				c-0.455-3.802-3.684-6.394-9.872-7.925c-5.641-1.395-11.835-1.633-18.936-0.727c-2.285,0.292-4.471,0.751-6.606,1.326
				c2.694,1.577,4.965,3.838,6.528,6.453c0.644-0.307,1.291-0.57,1.939-0.787C253.626,117.591,255.383,117.33,257.129,117.33z
				 M223.211,125.724c0.009,0.018,0.018,0.034,0.027,0.051c0.863-0.677,1.684-1.41,2.454-2.191
				C224.68,124.127,223.865,124.88,223.211,125.724z M218.542,122.826c0.733,0,1.441,0.12,2.084,0.39
				c0.912,0.383,1.604,1.018,2.136,1.774c0.703-0.853,1.569-1.611,2.637-2.166c0.504-0.262,1.022-0.462,1.547-0.605
				c0.777-0.911,1.488-1.874,2.125-2.883c0.247-0.393,0.702-1.179,0.998-2.09c-0.697,0.274-1.399,0.548-2.105,0.821
				c-3.641,1.403-8.213,2.923-13.016,3.16c-0.748,1.09-1.423,2.246-2.019,3.459c-0.042,0.085-0.083,0.17-0.124,0.255
				c0.04-0.032,0.079-0.063,0.119-0.095C214.403,123.702,216.56,122.826,218.542,122.826z M229.205,121.923
				c2.011,0,4.032,0.644,5.803,1.57c0.567-0.488,1.224-0.946,1.966-1.371c2.915-1.671,6.548-2.585,10.798-2.717
				c0.446-0.014,0.89-0.021,1.339-0.016c0.042-0.023,0.085-0.046,0.128-0.069c-1.626-2.701-4.046-5.004-6.914-6.507
				c-3.771,1.092-7.406,2.523-11.167,4.003c-0.049,0.02-0.098,0.039-0.147,0.058c-0.294,1.26-0.928,2.375-1.254,2.892
				c-0.482,0.764-1.005,1.502-1.567,2.212C228.526,121.941,228.866,121.923,229.205,121.923z M219.434,115.15
				c-2.724,1.13-5.404,2.379-8.007,3.733c-0.467,0.243-1.093,0.739-0.904,1.109c0.123,0.241,0.555,0.311,0.869,0.343
				c1.044,0.105,2.087,0.134,3.122,0.098C215.933,118.428,217.592,116.647,219.434,115.15z M222.629,113.889
				c-2.697,1.629-5.104,3.841-7.075,6.489c4.458-0.329,8.703-1.75,12.119-3.067c0.884-0.341,1.76-0.684,2.63-1.026
				c0.154-1.012-0.003-2.057-0.895-2.822c-1.499-1.285-3.969-0.6-5.697,0.026C223.35,113.62,222.989,113.753,222.629,113.889z
				 M227.171,111.926c1.002,0,1.972,0.242,2.765,0.922c1.021,0.876,1.297,2.001,1.219,3.101c3.391-1.334,6.686-2.623,10.082-3.657
				c-0.163-0.071-0.327-0.14-0.492-0.206c-4.282-1.707-9.347-1.737-13.961-0.148C226.913,111.93,227.042,111.926,227.171,111.926z"
				/>
		</g>
	</g>
</g>
<g id="Speech_bubble_1">
	<g>
		<g>
			<polygon style="fill:#407BFF;" points="131.077,296.216 139.029,300.95 135.534,294.075 			"/>
		</g>
		<g style="opacity:0.7;">
			<polygon style="fill:#FFFFFF;" points="131.077,296.216 139.029,300.95 135.534,294.075 			"/>
		</g>
		<g>
			<path style="fill:#407BFF;" d="M139.707,296.01l-33.365,5.997c-4.433,0.797-8.672-2.151-9.468-6.583l-1.125-6.258
				c-0.797-4.433,2.151-8.672,6.584-9.469l33.365-5.997c4.433-0.797,8.672,2.151,9.469,6.583l1.125,6.258
				C147.087,290.974,144.139,295.213,139.707,296.01z"/>
		</g>
		<g style="opacity:0.7;">
			<path style="fill:#FFFFFF;" d="M139.707,296.01l-33.365,5.997c-4.433,0.797-8.672-2.151-9.468-6.583l-1.125-6.258
				c-0.797-4.433,2.151-8.672,6.584-9.469l33.365-5.997c4.433-0.797,8.672,2.151,9.469,6.583l1.125,6.258
				C147.087,290.974,144.139,295.213,139.707,296.01z"/>
		</g>
		<g>
			<g>
				<path style="fill:#263238;" d="M105.28,290.11c-0.145-0.805,0.372-1.514,1.125-1.65c0.753-0.135,1.51,0.345,1.655,1.15
					c0.145,0.805-0.393,1.546-1.146,1.681C106.16,291.427,105.424,290.915,105.28,290.11z"/>
			</g>
			<g>
				<path style="fill:#263238;" d="M112.086,288.887c-0.145-0.805,0.372-1.514,1.125-1.65c0.753-0.135,1.51,0.345,1.655,1.15
					c0.145,0.806-0.393,1.546-1.146,1.681C112.967,290.204,112.231,289.692,112.086,288.887z"/>
			</g>
			<g>
				<path style="fill:#263238;" d="M118.893,287.663c-0.145-0.806,0.372-1.514,1.125-1.65c0.753-0.135,1.51,0.345,1.655,1.15
					c0.145,0.805-0.393,1.546-1.146,1.681C119.774,288.98,119.038,288.469,118.893,287.663z"/>
			</g>
			<g>
				<path style="fill:#263238;" d="M125.7,286.44c-0.145-0.805,0.372-1.514,1.125-1.65c0.753-0.135,1.51,0.345,1.655,1.15
					c0.145,0.805-0.393,1.546-1.146,1.681C126.58,287.757,125.845,287.245,125.7,286.44z"/>
			</g>
			<g>
				<path style="fill:#263238;" d="M132.507,285.216c-0.145-0.805,0.372-1.514,1.125-1.65c0.753-0.135,1.51,0.345,1.655,1.15
					c0.145,0.805-0.393,1.546-1.146,1.681C133.387,286.534,132.652,286.022,132.507,285.216z"/>
			</g>
		</g>
	</g>
</g>
<g id="Character">
	<g>
		<g>
			<path style="fill:#263238;" d="M223.991,192.519c0,0-9.475-1.987-17.803,2.619c-8.328,4.606-7.687,27.331-13.88,29.421
				c-6.193,2.09-7.901,4.656-6.62,8.391c1.281,3.735-4.933,4.376-5.563,6.297c-0.63,1.922-1.057,4.484-1.057,4.484
				s5.612-2.076,8.755,2.99c3.143,5.066,9.381,12.385,16.008,12.171c6.627-0.214,13.064,3.417,18.493,5.659
				c5.43,2.242,12.904-5.965,17.815-9.122s4.861,1.021,10.02,0c5.159-1.021,6.208-4.865,6.208-4.865s-5.125-3.518-1.708-10.087
				c3.417-6.569-7.495-13.07-4.5-21.58C253.155,210.388,243.075,194.477,223.991,192.519z"/>
			<path style="fill:#263238;" d="M260.392,247.66c-0.026,0-0.052-0.003-0.078-0.008c-0.11-0.021-2.723-0.549-3.901-2.374
				c-0.548-0.849-0.695-1.832-0.438-2.921c0.106-0.449,0.221-0.886,0.333-1.314c0.842-3.2,1.507-5.729-2.569-9.649
				c-3.77-3.627-3.792-6.145-3.829-10.314c-0.011-1.282-0.024-2.735-0.154-4.427c-0.017-0.223,0.15-0.417,0.373-0.434
				c0.221-0.011,0.418,0.15,0.435,0.373c0.131,1.719,0.145,3.187,0.156,4.482c0.036,4.093,0.056,6.347,3.581,9.738
				c4.418,4.25,3.664,7.119,2.79,10.439c-0.111,0.421-0.224,0.851-0.328,1.293c-0.204,0.866-0.094,1.638,0.329,2.294
				c0.988,1.534,3.354,2.016,3.378,2.021c0.219,0.043,0.362,0.256,0.319,0.476C260.751,247.525,260.582,247.66,260.392,247.66z"/>
			<path style="fill:#263238;" d="M177.467,238.852c-0.177,0-0.34-0.117-0.39-0.297c-0.06-0.215,0.065-0.438,0.281-0.498
				c0.036-0.01,3.581-1.021,4.69-3.032c0.345-0.625,0.412-1.266,0.205-1.959c-1.261-4.222,1.665-7.554,8.698-9.903
				c5.05-1.687,5.576-6.166,6.185-11.352c0.228-1.944,0.464-3.954,0.945-5.978c2.021-8.509,7.064-12.418,14.98-11.602
				c0.223,0.023,0.384,0.222,0.362,0.444c-0.023,0.223-0.229,0.388-0.444,0.362c-7.554-0.776-12.171,2.819-14.11,10.984
				c-0.47,1.978-0.703,3.964-0.929,5.885c-0.615,5.233-1.195,10.176-6.732,12.025c-6.539,2.186-9.291,5.181-8.179,8.903
				c0.269,0.9,0.177,1.77-0.272,2.584c-1.274,2.309-5.022,3.375-5.181,3.419C177.54,238.848,177.503,238.852,177.467,238.852z"/>
		</g>
		<path style="fill:#263238;" d="M337.263,317.95c-3.337-5.309-6.738-10.261-10.146-14.623c-7.496-9.595-20.634-12.789-31.62-7.54
			c-1.983,0.947-3.952,1.918-5.906,2.91c-44.644,22.589-81.662,55.655-81.662,55.655l1.425,2.737l0.01,0.019
			c-30.333,11.087-58.207,43.743-40.545,54.782c20.499,12.812,43.24,6.053,65.825-6.067l0.003,0.006c0,0,0.032-0.016,0.113-0.065
			c0.065-0.032,0.162-0.081,0.275-0.146c3.66-1.943,32.581-18.201,71.266-62.586c16.193,19.918,39.46,36.361,56.09,58.869
			c2.494,0.729,16.585,1.176,16.132-1.172C378.524,400.731,359.35,353.17,337.263,317.95z"/>
		<path style="opacity:0.2;fill:#FFFFFF;" d="M378.523,400.729c0.454,2.348-13.634,1.895-16.128,1.166
			c-13.699-18.541-31.901-32.953-46.944-48.595c-3.222-3.352-6.299-6.753-9.149-10.266c-38.685,44.385-67.606,60.643-71.266,62.586
			c-0.113,0.065-0.21,0.113-0.275,0.146c-0.081,0.049-0.113,0.065-0.113,0.065c-18.508,9.926-37.131,16.258-54.522,11.157
			c-3.838-1.117-7.594-2.785-11.303-5.101c-17.667-11.027,10.201-43.689,40.548-54.781l-0.016-0.016l-1.425-2.737
			c0,0,4.906-4.372,13.294-11.027c14.541-11.562,39.576-29.973,67.703-44.288c0.227-0.113,0.437-0.227,0.664-0.34
			c1.959-0.988,3.919-1.959,5.91-2.915c10.979-5.247,24.128-2.056,31.609,7.546c3.417,4.356,6.817,9.311,10.153,14.622
			C359.35,353.17,378.523,400.729,378.523,400.729z"/>
		<path style="opacity:0.2;enable-background:new    ;" d="M315.451,353.3c-3.222-3.352-6.299-6.753-9.149-10.266
			c-38.685,44.385-67.606,60.643-71.266,62.586c-0.113,0.065-0.21,0.113-0.275,0.146c-0.081,0.049-0.113,0.065-0.113,0.065
			c-18.508,9.926-37.131,16.258-54.522,11.157c1.927-16.679,19.885-46.717,41.098-73.662c14.541-11.562,39.576-29.973,67.703-44.288
			C294.724,307.619,303.387,323.602,315.451,353.3z"/>
		<g>
			<path style="fill:#EBB376;" d="M258.85,208.998l-6.298-13.86l-11.082,7.371c0,0,3.04,10.307,11.873,11.054L258.85,208.998z"/>
			<polygon style="fill:#EBB376;" points="243.963,188.531 237.018,196.003 241.47,202.509 252.552,195.138 			"/>
		</g>
		<path style="fill:#E9B376;" d="M239.827,265.324c12.968-6.782,26.005-14.429,36.412-24.78c0,0-0.998,1.404-0.998,1.404
			c-0.178,0.32-0.257,0.685-0.288,0.93c-0.293-2.983-5.327-9.891-8.513-13.738c-5.101-6.28-10.912-12.387-16.521-18.265
			c-3.571-3.822,1.177-9.623,5.62-6.907c3.756,2.335,7.223,4.808,10.694,7.439c9.888,7.789,32.374,25.778,22.185,39.908
			c-10.725,12.801-24.622,22.306-39.457,29.624c0,0-1.56,0.724-1.56,0.724c-4.509,2.092-9.861,0.133-11.954-4.376
			C233.339,272.767,235.351,267.406,239.827,265.324L239.827,265.324z"/>
		<path style="fill:#407BFF;" d="M258.5,281.208c0,0-7.141,4.081-14.476,7.125c-4.809,2.008-9.7,3.563-12.712,3.222l-0.664-2.299
			l-8.323-28.775c0,0,14.574,1.976,35.106-6.963C257.431,253.518,263.31,266.683,258.5,281.208z"/>
		<path style="opacity:0.2;enable-background:new    ;" d="M244.023,288.333c-4.809,2.008-9.7,3.563-12.712,3.222l-0.664-2.299
			c0.988-4.664,3.611-10.121,8.695-15.756C239.343,273.5,244.169,279.832,244.023,288.333z"/>
		<path style="fill:#407BFF;" d="M166.445,273.832c-1.712,5.591-3.587,9.689-6.476,23.361c-2.662,11.512-4.937,22.936-8.384,42.06
			l57.344,15.637c3.253-16.468,10.155-34.364,30.363-67.902c4.685-7.776,11.997-22.351,3.731-25.532
			c-2.209-0.85-14.995,3.331-17.435,2.537c-9.488-3.087-17.287-5.545-26.039-7.1c-2.9-0.515-5.93-0.959-8.841-1.334
			C180.203,254.203,169.512,263.813,166.445,273.832z"/>
		<g>
			<path style="fill:#407BFF;" d="M193.813,252.514c0,0,3.727-1.093,11.948-0.775c11.965,0.463,20.713,13.773,20.713,13.773
				s1.281,11.637-3.203,19.271l-7.794-7.634l-10.677,6.94C204.8,284.09,191.891,262.23,193.813,252.514z"/>
			<path style="opacity:0.7;fill:#FFFFFF;" d="M193.813,252.514c0,0,3.727-1.093,11.948-0.775
				c11.965,0.463,20.713,13.773,20.713,13.773s1.281,11.637-3.203,19.271l-7.794-7.634l-10.677,6.94
				C204.8,284.09,191.891,262.23,193.813,252.514z"/>
		</g>
		<g>
			<path style="fill:#EBB376;" d="M210.773,231.102c-1.059,8.001-4.292,22.074-11.563,24.426c0,0,4.061,10.411,16.266,19.7
				c5.974-4.529,5.433-12.273,5.433-12.273s-4.472-5.343,0.695-13.106L210.773,231.102z"/>
			<path style="opacity:0.1;enable-background:new    ;" d="M210.773,231.102c-1.059,8.001-4.292,22.074-11.563,24.426
				c0,0,4.061,10.411,16.266,19.7c5.974-4.529,5.433-12.273,5.433-12.273s-4.472-5.343,0.695-13.106L210.773,231.102z"/>
		</g>
		<g>
			<path style="fill:#EBB376;" d="M211.241,212.166c-3.408,13.855-5.138,19.632-0.64,29.067
				c6.765,14.193,24.033,16.169,31.392,3.811c6.624-11.123,11.085-31.911-0.15-42.109
				C230.775,192.889,214.65,198.312,211.241,212.166z"/>
			<path style="fill:#263238;" d="M242.675,227.002l2.859,0.172C245.534,227.174,243.555,228.835,242.675,227.002z"/>
			<path style="fill:#D58745;" d="M235.661,227.376c0,0,0.407,5.637,1.75,8.78c-1.858,0.885-4.122-0.668-4.122-0.668
				L235.661,227.376z"/>
			<path style="fill:#263238;" d="M226.173,233.934c-0.514-0.349-1.087-0.672-1.727-0.956c-0.173-0.077-0.366,0.009-0.433,0.192
				c-0.066,0.182,0.016,0.389,0.193,0.47c4.671,2.072,5.599,6.498,5.608,6.543c0.038,0.196,0.217,0.325,0.397,0.289
				c0.181-0.035,0.297-0.222,0.258-0.417C230.436,239.884,229.691,236.319,226.173,233.934z"/>
			<path style="fill:#263238;" d="M233.925,216.624c-0.182-0.013-0.363,0.048-0.498,0.183c-2.104,2.115-4.596,1.505-4.624,1.498
				c-0.369-0.091-0.73,0.13-0.798,0.506c-0.067,0.375,0.18,0.756,0.555,0.853c0.13,0.033,3.257,0.801,5.868-1.824
				c0.26-0.262,0.247-0.705-0.028-0.991C234.266,216.711,234.095,216.636,233.925,216.624z"/>
			<path style="fill:#263238;" d="M243.531,218.971c-0.154-0.078-0.333-0.097-0.502-0.039c-0.349,0.12-0.526,0.521-0.395,0.896
				c1.313,3.756,4.348,4.669,4.478,4.706c0.364,0.105,0.725-0.117,0.805-0.497c0.081-0.379-0.148-0.77-0.511-0.877
				c-0.119-0.034-2.464-0.777-3.508-3.764C243.831,219.202,243.695,219.053,243.531,218.971z"/>
			<path style="fill:#263238;" d="M242.675,227.002c0,0-1.057,1.962-3.33,0.076c0,0,1.426,3.455,4.27,0.751L242.675,227.002z"/>
			<path style="fill:#263238;" d="M228.637,223.547l2.859,0.172C231.496,223.719,229.517,225.38,228.637,223.547z"/>
			<path style="fill:#263238;" d="M228.637,223.547c0,0-1.057,1.962-3.33,0.076c0,0,1.426,3.455,4.27,0.751L228.637,223.547z"/>
			<path style="fill:#263238;" d="M211.188,200.129c0,0,9.441-16.029,29.512-6.604c20.071,9.425,10.002,30.179,10.002,30.179
				l-4.07-2.69l0.115-7.943c0,0-2.086,4.09-6.59,5.386c0,0,4.261-3.086,5.719-6.538c0,0-3.866,4.45-8.694,4.571l-10.253-2.418
				c0,0,5.088-1.715,7.613-4.461c0,0-8.934,4.644-16.14,5.454l-7.385,8.851l-7.184-6.381
				C203.832,217.535,203.598,201.448,211.188,200.129z"/>
			<path style="fill:#EBB376;" d="M203.398,221.708c0.635,3.302,2.615,5.922,4.774,7.331c3.247,2.12,5.968-0.87,5.985-4.851
				c0.015-3.583-1.656-9.004-5.357-9.499C205.152,214.2,202.672,217.932,203.398,221.708z"/>
			<path style="opacity:0.1;enable-background:new    ;" d="M224.268,252.773c-5.441-1.231-10.606-5.149-13.667-11.546
				c-2.17-4.534-2.882-8.226-2.672-12.372c-0.032,0-0.065-0.032-0.081-0.065c0.502-4.874,0.923-10.072,0.988-14.104
				c0.599,0.081,1.133,0.308,1.619,0.632c0.259-1.004,0.518-2.057,0.793-3.158c0.567-2.332,1.506-4.421,2.72-6.234
				c2.235,0.453,4.34,1.538,4.34,1.538S227.234,231.902,224.268,252.773z"/>
		</g>
		<path style="opacity:0.2;enable-background:new    ;" d="M204.693,270.477c0,0-15.214,23.809-35.553,14.307
			C169.139,284.784,180.51,262.469,204.693,270.477z"/>
		<path style="fill:#E9B376;" d="M182.676,255.547c8.395-0.502,18.012-0.417,25.787-3.16c-0.483,0.364-1.007,0.955-1.294,1.455
			c-0.137,0.262-0.142,0.271-0.178,0.39c0.623-1.322,0.874-3.63,1.14-5.535c1.258-11.568,1.224-28.962,1.586-40.801
			c0.177-5.31,7.688-6.032,8.878-0.865c2.193,10.472,3.705,20.945,4.512,31.619c0.321,7.151,1.765,20.089-3.678,25.678
			c-8.43,7.889-25.851,9.318-36.822,9.228C170.835,272.892,170.922,256.121,182.676,255.547L182.676,255.547z"/>
		<path style="fill:#407BFF;" d="M162.767,285.521c0,0,1.355-23.09,11.391-30.091c10.036-7,23.489-2.265,23.489-2.265
			s2.469,13.357-1.114,23.529C196.532,276.694,176.573,287.378,162.767,285.521z"/>
		<g>
			<path style="fill:#EBB376;" d="M209.49,207.173l4.127-14.654l12.07,5.608c0,0-1.445,10.648-10.063,12.724L209.49,207.173z"/>
			<polygon style="fill:#EBB376;" points="221.106,184.688 229.102,191.022 225.686,198.127 213.616,192.519 			"/>
		</g>
		<path style="fill:#263238;" d="M291.129,304.964c-0.33-0.991-0.665-1.969-1.004-2.932c-5.652-16.04-25.515-21.873-38.973-11.476
			c-1.308,1.01-2.604,2.03-3.889,3.057c-24.905,19.885-45.535,42.474-56.368,55.153c-0.002,0.002-0.003,0.003-0.004,0.005
			l-39.305-9.519c0,0-28.248,51.499,5.398,74.327c8.462,5.742,14.62,5.219,22.534,5.219c19.251,0,38.725-14.258,38.725-14.258
			l-0.002-0.012l0.005,0.007c0,0,20.986-15.934,47.98-56.886c9.683,19.011,21.294,39.786,28.565,59.008
			c2.218,1.376,14.719,2.056,14.93-0.308C309.719,406.348,304.488,345.138,291.129,304.964z"/>
		<path style="opacity:0.2;fill:#FFFFFF;" d="M291.129,304.964c-0.33-0.991-0.665-1.969-1.004-2.932
			c-5.652-16.04-25.515-21.873-38.973-11.476c-1.308,1.01-2.604,2.03-3.889,3.057c-24.905,19.885-45.535,42.474-56.368,55.153
			c-0.002,0.002-0.003,0.003-0.004,0.005l-39.305-9.519c0,0-28.248,51.499,5.398,74.327c8.462,5.742,14.62,5.219,22.534,5.219
			c19.251,0,38.725-14.258,38.725-14.258l-0.002-0.012l0.005,0.007c0,0,20.986-15.934,47.98-56.886
			c9.683,19.011,21.294,39.786,28.565,59.008c2.218,1.376,14.719,2.056,14.93-0.308
			C309.719,406.348,304.488,345.138,291.129,304.964z"/>
		<path style="fill:#263238;" d="M322.37,418.604c-11.011,0-12.466-0.17-18.653-0.378c-5.298-0.189-6.565,0.473-10.822,0.378
			c-3.557-0.076-3.425-3.481-2.327-7.398c0.549-1.967,1.395-6.126,2.151-9.304l16.132-1.172c2.27,4.333,7.392,10.513,13.598,11.346
			C328.37,412.872,326.76,418.604,322.37,418.604z"/>
		<path style="fill:#263238;" d="M392.044,418.604c-11.011,0-12.466-0.17-18.653-0.378c-5.298-0.189-6.565,0.473-10.822,0.378
			c-3.557-0.076-3.425-3.481-2.327-7.398c0.549-1.967,1.395-6.126,2.151-9.304l16.132-1.172c2.27,4.333,7.392,10.513,13.598,11.346
			C398.044,412.872,396.434,418.604,392.044,418.604z"/>
		<path style="opacity:0.2;enable-background:new    ;" d="M190.89,348.771c0,0-10.326,12.192-14.383,18.811
			C176.506,367.582,176.233,350.886,190.89,348.771z"/>
	</g>
</g>
</svg>
