<svg xmlns="http://www.w3.org/2000/svg" xmlns:xlink="http://www.w3.org/1999/xlink" width="1400" zoomAndPan="magnify" viewBox="0 0 1050 1049.999947" height="1400" preserveAspectRatio="xMidYMid meet" version="1.0"><rect x="-105" width="1260" fill="#ffffff" y="-104.999995" height="1259.999936" fill-opacity="1"/><rect x="-105" width="1260" fill="#004aad" y="-104.999995" height="1259.999936" fill-opacity="1"/><path fill="#f3adc0" d="M 802.3125 699.382812 C 798.566406 698.945312 795.152344 697.039062 792.804688 694.085938 L 787.503906 687.433594 L 791.164062 660.886719 L 775.03125 658.65625 L 770.742188 689.742188 L 770.308594 702.714844 C 770.269531 703.886719 771.199219 704.847656 772.367188 704.847656 L 806.914062 704.847656 L 806.914062 704.570312 C 806.914062 701.925781 804.9375 699.695312 802.3125 699.382812 " fill-opacity="1" fill-rule="nonzero"/><path fill="#fa722d" d="M 787.550781 515.515625 L 785.042969 538.132812 L 791.851562 537.6875 C 789.886719 547.539062 788.011719 557.421875 786.25 567.320312 C 783.976562 580.039062 781.714844 592.769531 779.734375 605.539062 C 776.207031 631.160156 772.875 656.808594 770.261719 682.554688 L 790.640625 685.796875 C 795.421875 663.746094 818.644531 563.757812 824.390625 539.03125 C 825.246094 535.351562 825.59375 531.570312 825.410156 527.789062 L 824.304688 504.988281 L 787.550781 515.515625 " fill-opacity="1" fill-rule="nonzero"/><path fill="#f3adc0" d="M 776.148438 541.714844 C 776.148438 541.714844 787.242188 538.796875 790.65625 541.160156 C 794.0625 543.527344 789.332031 579.246094 787.214844 583.636719 C 785.085938 588.027344 782.679688 588.148438 782.152344 587.601562 C 781.847656 587.296875 781.960938 585.535156 782.125 584.070312 C 782.277344 582.617188 782.152344 581.144531 781.769531 579.738281 L 776.488281 560.339844 L 773.652344 559.179688 C 773.652344 559.179688 776.828125 555.320312 777.484375 549.410156 C 778.144531 543.496094 776.148438 541.714844 776.148438 541.714844 " fill-opacity="1" fill-rule="nonzero"/><path fill="#fa722d" d="M 787.550781 515.515625 L 765.460938 509.84375 L 765.652344 508.46875 C 765.652344 508.46875 764.394531 508.648438 762.265625 509.023438 L 760.109375 508.46875 L 756.929688 510.0625 C 751.328125 511.246094 743.730469 513.148438 736.242188 515.9375 C 721.75 521.347656 691.003906 536.257812 691.003906 551.492188 C 691.003906 558.660156 697.253906 564.277344 704.417969 564.027344 L 777.492188 564.035156 L 778.632812 540.601562 L 754.636719 539.773438 L 785.042969 538.132812 L 787.550781 515.515625 " fill-opacity="1" fill-rule="nonzero"/><path fill="#05065f" d="M 715.148438 543.648438 C 714.808594 543.648438 714.539062 543.378906 714.539062 543.042969 C 714.539062 542.710938 714.800781 542.441406 715.132812 542.4375 C 715.269531 542.429688 715.996094 542.324219 716.921875 542.195312 C 723.09375 541.339844 741.878906 538.726562 754.660156 539.164062 C 754.992188 539.179688 755.253906 539.460938 755.246094 539.796875 C 755.230469 540.136719 754.992188 540.382812 754.617188 540.382812 C 741.933594 539.957031 723.234375 542.542969 717.089844 543.398438 C 715.585938 543.609375 715.273438 543.648438 715.148438 543.648438 " fill-opacity="1" fill-rule="nonzero"/><path fill="#235ecb" d="M 834.527344 420.695312 C 834.527344 420.140625 834.457031 419.605469 834.324219 419.074219 L 834.523438 416.746094 L 833.207031 416.636719 C 828.710938 409.878906 813.265625 404.902344 794.890625 404.902344 C 773.003906 404.902344 755.253906 411.972656 755.253906 420.695312 C 755.253906 424.730469 759.0625 428.410156 765.3125 431.199219 L 758.765625 508.761719 C 778.425781 521.582031 803.121094 523.9375 824.84375 515.0625 L 826.273438 514.480469 L 833.964844 423.34375 C 834.332031 422.480469 834.527344 421.59375 834.527344 420.695312 " fill-opacity="1" fill-rule="nonzero"/><path fill="#f3adc0" d="M 796.558594 415.378906 C 791.269531 415.425781 786.953125 411.171875 786.910156 405.878906 L 786.78125 389.894531 L 805.917969 389.722656 L 806.046875 405.722656 C 806.082031 411.011719 801.839844 415.335938 796.558594 415.378906 " fill-opacity="1" fill-rule="nonzero"/><path fill="#05065f" d="M 805.917969 389.722656 L 786.78125 389.894531 L 786.859375 399.230469 C 790.296875 402.925781 794.550781 405.019531 799.0625 404.78125 C 801.5625 404.640625 803.902344 403.78125 806.019531 402.359375 L 805.917969 389.722656 " fill-opacity="1" fill-rule="nonzero"/><path fill="#f3adc0" d="M 816.585938 374.53125 C 817.40625 389.539062 809.707031 402.160156 799.394531 402.726562 C 789.085938 403.292969 780.066406 391.585938 779.246094 376.578125 C 778.433594 361.574219 786.132812 348.945312 796.445312 348.386719 C 806.753906 347.820312 815.773438 359.523438 816.585938 374.53125 " fill-opacity="1" fill-rule="nonzero"/><path fill="#05065f" d="M 800.863281 387.28125 C 802.390625 387.464844 803.648438 387.097656 804.242188 386.15625 C 804.800781 385.261719 804.6875 384.050781 803.902344 382.75 C 803.203125 381.582031 802.023438 380.429688 800.582031 379.523438 C 800.296875 379.335938 799.917969 379.421875 799.734375 379.714844 C 799.554688 379.996094 799.640625 380.378906 799.925781 380.5625 C 801.203125 381.375 802.242188 382.375 802.851562 383.386719 C 803.367188 384.257812 803.492188 385.023438 803.203125 385.496094 C 802.589844 386.460938 800.035156 386.347656 797.34375 384.640625 C 797.0625 384.457031 796.679688 384.539062 796.496094 384.832031 C 796.320312 385.121094 796.402344 385.496094 796.6875 385.679688 C 798.121094 386.585938 799.589844 387.125 800.863281 387.28125 " fill-opacity="1" fill-rule="nonzero"/><path fill="#05065f" d="M 778.6875 376.246094 C 783.5 373.582031 789.355469 363.21875 789.355469 363.21875 C 789.703125 365.6875 786.167969 374.546875 786.300781 374.566406 C 789.863281 373.914062 808.394531 370.433594 808.796875 362.183594 C 808.796875 362.183594 812.410156 371.804688 818.320312 375.324219 C 818.636719 374.21875 823.484375 343.679688 794.898438 347.019531 C 770.191406 349.902344 775.761719 373.335938 778.6875 376.246094 " fill-opacity="1" fill-rule="nonzero"/><path fill="#f3adc0" d="M 826.851562 379.925781 C 827.132812 384.109375 823.980469 387.726562 819.804688 388.011719 C 815.617188 388.292969 812 385.136719 811.714844 380.953125 C 811.433594 376.773438 814.585938 373.15625 818.765625 372.867188 C 822.949219 372.585938 826.570312 375.75 826.851562 379.925781 " fill-opacity="1" fill-rule="nonzero"/><path fill="#05065f" d="M 821.484375 383.371094 C 821.726562 383.386719 821.964844 383.265625 822.09375 383.039062 C 822.261719 382.730469 822.148438 382.339844 821.839844 382.167969 L 818.460938 380.308594 L 821.535156 378.410156 C 821.839844 378.226562 821.929688 377.828125 821.746094 377.53125 C 821.5625 377.226562 821.160156 377.136719 820.863281 377.320312 L 816.847656 379.789062 C 816.65625 379.910156 816.535156 380.125 816.542969 380.351562 C 816.550781 380.582031 816.679688 380.789062 816.875 380.902344 L 821.222656 383.296875 C 821.308594 383.335938 821.394531 383.367188 821.484375 383.371094 " fill-opacity="1" fill-rule="nonzero"/><path fill="#f3adc0" d="M 771.816406 383.296875 C 771.878906 387.484375 775.328125 390.828125 779.523438 390.757812 C 783.707031 390.691406 787.050781 387.238281 786.988281 383.046875 C 786.917969 378.855469 783.464844 375.515625 779.28125 375.585938 C 775.089844 375.65625 771.746094 379.105469 771.816406 383.296875 " fill-opacity="1" fill-rule="nonzero"/><path fill="#05065f" d="M 777.449219 386.28125 C 777.210938 386.316406 776.960938 386.21875 776.8125 386 C 776.617188 385.703125 776.699219 385.304688 776.992188 385.105469 L 780.207031 382.96875 L 776.984375 381.339844 C 776.664062 381.179688 776.539062 380.796875 776.699219 380.476562 C 776.863281 380.160156 777.253906 380.03125 777.5625 380.195312 L 781.769531 382.316406 C 781.976562 382.425781 782.109375 382.628906 782.125 382.855469 C 782.136719 383.082031 782.023438 383.300781 781.839844 383.429688 L 777.703125 386.175781 C 777.628906 386.234375 777.542969 386.269531 777.449219 386.28125 " fill-opacity="1" fill-rule="nonzero"/><path fill="#f3adc0" d="M 787.734375 427.40625 L 787.90625 426.761719 L 787.957031 431.382812 L 787.6875 431.222656 Z M 796.578125 436.828125 C 796.585938 435.929688 796.574219 435.023438 796.558594 434.132812 C 796.542969 433.167969 796.515625 432.210938 796.472656 431.257812 L 796.691406 426.535156 C 796.707031 426.300781 796.65625 426.074219 796.566406 425.871094 C 796.578125 425.542969 796.601562 425.210938 796.609375 424.878906 C 796.65625 423.335938 796.691406 421.785156 796.644531 420.226562 C 796.617188 419.386719 795.910156 418.71875 795.058594 418.753906 C 794.714844 418.761719 794.402344 418.890625 794.15625 419.085938 L 794.332031 418.335938 C 794.523438 417.523438 794.015625 416.710938 793.199219 416.511719 C 792.472656 416.339844 791.738281 416.730469 791.453125 417.394531 L 788.570312 424.191406 L 789.820312 419.363281 C 790.027344 418.550781 789.539062 417.722656 788.734375 417.515625 C 788.003906 417.324219 787.269531 417.699219 786.964844 418.359375 L 783.339844 426.378906 C 783.253906 426.5625 783.210938 426.753906 783.210938 426.945312 L 783.210938 427.109375 L 783.191406 428.382812 L 783.164062 428.363281 L 782.273438 432.550781 C 781.480469 436.304688 781.191406 440.132812 781.375 443.949219 L 756.921875 448.75 L 769.78125 424.460938 L 755.585938 416.921875 L 734.828125 456.117188 L 734.707031 456.339844 C 733.824219 458.023438 733.535156 460.035156 734.042969 462.023438 C 735.132812 466.269531 739.460938 468.828125 743.699219 467.734375 L 792.140625 455.25 L 792.113281 455.113281 C 793.265625 455.058594 794.382812 454.519531 795.128906 453.5625 L 795.414062 453.203125 C 796.382812 451.976562 796.890625 450.449219 796.855469 448.890625 L 796.578125 436.828125 " fill-opacity="1" fill-rule="nonzero"/><path fill="#235ecb" d="M 762.957031 447.058594 L 743.136719 435.597656 L 754.179688 416.453125 C 757.335938 410.976562 764.328125 409.097656 769.808594 412.257812 C 775.28125 415.421875 777.160156 422.429688 774 427.910156 L 762.957031 447.058594 " fill-opacity="1" fill-rule="nonzero"/><path fill="#f3adc0" d="M 805.683594 427.257812 L 805.734375 431.074219 L 805.472656 431.242188 L 805.523438 426.621094 Z M 856.613281 460.28125 L 856.523438 460.0625 L 839.109375 419.273438 L 824.335938 425.59375 L 835.171875 450.980469 L 812 444.515625 C 812.265625 440.46875 811.992188 436.394531 811.148438 432.402344 L 810.265625 428.21875 L 810.230469 428.242188 L 810.21875 426.960938 L 810.21875 426.796875 C 810.210938 426.613281 810.167969 426.414062 810.089844 426.238281 L 806.457031 418.210938 C 806.160156 417.550781 805.417969 417.183594 804.695312 417.367188 C 803.882812 417.578125 803.394531 418.40625 803.605469 419.222656 L 804.859375 424.042969 L 801.96875 417.253906 C 801.683594 416.589844 800.957031 416.199219 800.226562 416.371094 C 799.40625 416.558594 798.90625 417.382812 799.097656 418.195312 L 799.273438 418.945312 C 799.019531 418.742188 798.707031 418.621094 798.363281 418.605469 C 797.519531 418.578125 796.8125 419.234375 796.785156 420.085938 C 796.734375 421.644531 796.769531 423.1875 796.8125 424.738281 C 796.828125 425.0625 796.847656 425.394531 796.855469 425.726562 C 796.769531 425.933594 796.722656 426.152344 796.734375 426.394531 L 796.953125 431.113281 C 796.914062 432.070312 796.878906 433.027344 796.871094 433.980469 C 796.855469 434.882812 796.847656 435.78125 796.855469 436.671875 L 796.574219 448.742188 C 796.539062 450.308594 797.046875 451.828125 798.007812 453.054688 L 798.289062 453.414062 C 798.941406 454.234375 799.847656 454.746094 800.816406 454.910156 L 800.773438 455.050781 L 846.746094 470.90625 C 848.539062 471.523438 850.570312 471.503906 852.441406 470.703125 C 856.464844 468.980469 858.339844 464.316406 856.613281 460.28125 " fill-opacity="1" fill-rule="nonzero"/><path fill="#235ecb" d="M 829.246094 448.679688 L 849.953125 438.917969 L 840.550781 418.917969 C 837.859375 413.191406 831.042969 410.734375 825.324219 413.429688 C 819.605469 416.128906 817.152344 422.953125 819.84375 428.679688 L 829.246094 448.679688 " fill-opacity="1" fill-rule="nonzero"/><path fill="#fd68b2" d="M 626.957031 630.191406 C 626.957031 642.410156 617.066406 652.3125 604.863281 652.3125 C 592.664062 652.3125 582.773438 642.410156 582.773438 630.191406 C 582.773438 617.972656 592.664062 608.066406 604.863281 608.066406 C 617.066406 608.066406 626.957031 617.972656 626.957031 630.191406 " fill-opacity="1" fill-rule="nonzero"/><path fill="#f3adc0" d="M 716.730469 697.710938 C 716.730469 697.710938 717.035156 687.253906 719.96875 684.878906 C 722.910156 682.5 752.871094 695.800781 756.148438 698.789062 C 759.429688 701.769531 758.929688 703.90625 758.3125 704.230469 C 758.101562 704.34375 741.394531 702.085938 728.679688 702.09375 C 720.839844 702.09375 698.804688 700.742188 698.804688 700.742188 L 716.730469 697.710938 " fill-opacity="1" fill-rule="nonzero"/><path fill="#fd68b2" d="M 672.214844 678.421875 C 663.582031 676.855469 655.878906 679.425781 652.617188 680.777344 L 622.121094 631.691406 L 601.515625 649.699219 L 637.441406 697.292969 L 638.019531 698.066406 C 639.84375 700.453125 642.722656 701.988281 645.960938 701.980469 L 717 701.886719 L 717.59375 685.664062 C 717.59375 685.664062 684.933594 680.730469 672.214844 678.421875 " fill-opacity="1" fill-rule="nonzero"/><path fill="#f3adc0" d="M 604.449219 541.722656 L 589.253906 538.335938 L 594.535156 514.550781 L 609.730469 517.933594 L 604.449219 541.722656 " fill-opacity="1" fill-rule="nonzero"/><path fill="#05065f" d="M 591.339844 528.921875 C 598.070312 529.542969 605.089844 525.503906 609.585938 518.585938 L 609.730469 517.933594 L 594.535156 514.550781 L 591.339844 528.921875 " fill-opacity="1" fill-rule="nonzero"/><path fill="#f3adc0" d="M 614.402344 505 C 612.910156 517.679688 603.636719 527.003906 593.6875 525.835938 C 583.734375 524.660156 576.878906 513.433594 578.367188 500.753906 C 579.859375 488.066406 589.136719 478.738281 599.082031 479.914062 C 609.035156 481.085938 615.894531 492.316406 614.402344 505 " fill-opacity="1" fill-rule="nonzero"/><path fill="#f3adc0" d="M 580.941406 509.027344 C 578.269531 509.269531 576.007812 508.449219 575.894531 507.1875 C 575.78125 505.929688 577.859375 504.703125 580.53125 504.464844 L 580.941406 509.027344 " fill-opacity="1" fill-rule="nonzero"/><path fill="#05065f" d="M 580 509.75 C 577.34375 509.75 575.355469 508.753906 575.222656 507.246094 C 575.144531 506.359375 575.710938 505.519531 576.828125 504.859375 C 577.789062 504.300781 579.082031 503.917969 580.46875 503.789062 C 580.808594 503.769531 581.167969 504.03125 581.203125 504.40625 C 581.238281 504.773438 580.964844 505.105469 580.597656 505.144531 C 579.414062 505.242188 578.292969 505.566406 577.507812 506.027344 C 576.898438 506.386719 576.539062 506.804688 576.566406 507.125 C 576.628906 507.785156 578.347656 508.589844 580.886719 508.355469 C 581.226562 508.34375 581.585938 508.597656 581.621094 508.964844 C 581.648438 509.339844 581.378906 509.667969 581.003906 509.703125 C 580.667969 509.738281 580.328125 509.75 580 509.75 " fill-opacity="1" fill-rule="nonzero"/><path fill="#05065f" d="M 625.410156 488.011719 C 620.382812 478.179688 610.476562 473.125 603.097656 476.824219 C 595.722656 480.527344 593.75 491.542969 598.695312 501.417969 C 601.691406 507.40625 605.996094 510.648438 610.996094 512.207031 L 606.441406 521.75 L 615.023438 522.527344 C 615.023438 522.527344 632.492188 501.859375 625.410156 488.011719 " fill-opacity="1" fill-rule="nonzero"/><path fill="#05065f" d="M 596.382812 475.113281 C 582.617188 476.117188 580.050781 490.652344 580.050781 490.652344 C 580.050781 490.652344 592.613281 491.605469 602.113281 495.953125 L 600.523438 501.816406 L 608.972656 504.109375 L 609.757812 501.226562 C 610.683594 502.277344 611.425781 503.414062 611.90625 504.675781 C 616.464844 516.632812 619.246094 473.441406 596.382812 475.113281 " fill-opacity="1" fill-rule="nonzero"/><path fill="#f3adc0" d="M 613.242188 507.386719 C 613.375 510.574219 610.910156 513.261719 607.726562 513.398438 C 604.546875 513.53125 601.859375 511.0625 601.71875 507.875 C 601.585938 504.691406 604.058594 502 607.234375 501.863281 C 610.414062 501.722656 613.109375 504.199219 613.242188 507.386719 " fill-opacity="1" fill-rule="nonzero"/><path fill="#05065f" d="M 609.171875 509.992188 C 609.0625 510 608.949219 509.976562 608.851562 509.914062 L 605.601562 508.007812 C 605.421875 507.910156 605.308594 507.71875 605.308594 507.515625 C 605.308594 507.300781 605.421875 507.117188 605.601562 507.011719 L 608.695312 505.207031 C 608.972656 505.050781 609.324219 505.144531 609.488281 505.417969 C 609.652344 505.695312 609.550781 506.046875 609.277344 506.210938 L 607.042969 507.515625 L 609.4375 508.914062 C 609.714844 509.078125 609.804688 509.433594 609.644531 509.707031 C 609.546875 509.886719 609.359375 509.984375 609.171875 509.992188 " fill-opacity="1" fill-rule="nonzero"/><path fill="#05065f" d="M 580.050781 490.652344 C 580.050781 490.652344 586.457031 496.046875 603.339844 496.046875 C 620.21875 496.046875 580.050781 490.652344 580.050781 490.652344 " fill-opacity="1" fill-rule="nonzero"/><path fill="#f3adc0" d="M 610.71875 608.875 C 601.769531 613.3125 593.695312 618.847656 584.746094 623.289062 C 577.691406 611.1875 574.464844 593.730469 571.703125 580 C 581.332031 577.351562 592.089844 579.097656 601.71875 576.445312 C 604.109375 588.28125 604.640625 598.445312 610.71875 608.875 " fill-opacity="1" fill-rule="nonzero"/><path fill="#f3adc0" d="M 590.117188 534.421875 L 578.417969 548.402344 L 609.324219 552.027344 L 606.066406 534.421875 L 590.117188 534.421875 " fill-opacity="1" fill-rule="nonzero"/><path fill="#fa722d" d="M 583.761719 542.019531 L 568.761719 556.425781 C 565.472656 559.433594 564.5 564.226562 566.351562 568.28125 L 572.679688 582.136719 C 572.679688 582.136719 589.136719 590.355469 603.726562 587.566406 C 603.726562 587.566406 615.117188 553.410156 609.324219 543.292969 C 603.535156 533.167969 583.761719 542.019531 583.761719 542.019531 " fill-opacity="1" fill-rule="nonzero"/><path fill="#f3adc0" d="M 617.074219 420.113281 C 616.332031 419.273438 615.050781 419.199219 614.210938 419.945312 C 613.417969 420.714844 613.292969 421.21875 613.09375 421.621094 C 612.902344 422.0625 612.789062 422.429688 612.667969 422.804688 C 612.4375 423.546875 612.265625 424.242188 612.109375 424.941406 C 611.90625 425.847656 611.742188 426.726562 611.59375 427.609375 C 610.859375 426.394531 610.621094 424.515625 610.546875 423.171875 L 611.914062 411.386719 C 612.035156 410.359375 611.355469 409.382812 610.324219 409.164062 C 609.453125 408.976562 608.605469 409.382812 608.171875 410.105469 C 608.054688 409.242188 607.394531 408.503906 606.492188 408.355469 C 605.585938 408.207031 604.730469 408.695312 604.347656 409.480469 C 604.058594 409.191406 603.691406 408.984375 603.261719 408.914062 C 602.15625 408.730469 601.109375 409.480469 600.925781 410.59375 L 600.226562 414.882812 C 600.035156 414.140625 599.4375 413.53125 598.628906 413.382812 C 597.527344 413.183594 596.464844 413.917969 596.269531 415.015625 L 595.441406 419.605469 C 595.425781 419.6875 595.421875 419.78125 595.421875 419.875 L 595.433594 420.09375 L 595.773438 429.027344 C 595.78125 429.0625 595.78125 429.105469 595.789062 429.140625 L 595.6875 433.875 C 595.871094 435.144531 595.851562 442.9375 595.164062 445.824219 C 594.15625 450.320312 593.164062 454.816406 592.226562 459.324219 C 590.308594 468.335938 588.542969 477.371094 586.800781 486.410156 L 586.695312 486.964844 L 586.691406 487.882812 C 586.5625 498.316406 586.464844 508.753906 586.519531 519.1875 C 586.535156 524.40625 586.589844 529.621094 586.667969 534.832031 C 586.730469 537.15625 586.773438 539.476562 586.824219 541.800781 C 586.929688 546.613281 590.875 550.464844 595.6875 550.429688 C 600.496094 550.398438 604.390625 546.507812 604.433594 541.6875 C 604.453125 539.363281 604.46875 537.046875 604.503906 534.726562 C 604.519531 529.507812 604.511719 524.292969 604.460938 519.074219 C 604.382812 508.816406 604.164062 498.566406 603.917969 488.308594 C 605.148438 479.5 606.355469 470.695312 607.425781 461.859375 C 607.988281 457.292969 608.503906 452.714844 609.007812 448.132812 C 609.347656 444.628906 609.714844 441.132812 610.039062 437.621094 C 610.089844 437.578125 610.144531 437.542969 610.1875 437.492188 L 616.035156 431.113281 C 616.429688 430.675781 616.699219 430.089844 616.742188 429.445312 C 616.714844 428.199219 616.726562 426.867188 616.792969 425.621094 C 616.828125 424.992188 616.867188 424.363281 616.945312 423.800781 C 616.980469 423.527344 617.023438 423.242188 617.074219 423.050781 C 617.082031 422.820312 617.242188 422.707031 616.902344 422.980469 C 617.738281 422.238281 617.816406 420.949219 617.074219 420.113281 " fill-opacity="1" fill-rule="nonzero"/><path fill="#f3adc0" d="M 547.503906 688.714844 C 547.503906 688.714844 551.5625 698.355469 549.871094 701.738281 C 548.183594 705.125 515.410156 705.464844 511.1875 704.113281 C 506.960938 702.757812 506.542969 700.601562 506.960938 700.046875 C 507.207031 699.738281 508.804688 699.617188 510.140625 699.574219 C 511.472656 699.523438 512.777344 699.21875 514.003906 698.6875 L 530.785156 691.425781 L 531.457031 688.714844 C 531.457031 688.714844 535.34375 691.085938 540.746094 690.914062 C 546.152344 690.746094 547.503906 688.714844 547.503906 688.714844 " fill-opacity="1" fill-rule="nonzero"/><path fill="#fd68b2" d="M 608.351562 635.8125 L 610.753906 629.574219 L 596.691406 624.710938 C 575.667969 609.257812 524.542969 599.722656 524.542969 599.722656 L 523.730469 599.4375 C 521.53125 598.671875 519.085938 598.546875 516.675781 599.210938 C 510.324219 600.953125 506.585938 607.523438 508.324219 613.878906 L 529.484375 691.164062 L 548.289062 690.835938 L 546.964844 684.121094 C 545.941406 675.3125 543.757812 656.128906 543.128906 647.257812 C 542.625 640.214844 539.359375 634.535156 537.253906 631.550781 L 538.976562 632.074219 C 543 635.613281 554.953125 644.007812 584.046875 651.429688 C 622.085938 661.132812 625.246094 637.113281 625.246094 637.113281 L 608.351562 635.8125 " fill-opacity="1" fill-rule="nonzero"/><path fill="#05065f" d="M 602.398438 654.414062 C 602.023438 654.414062 601.71875 654.109375 601.71875 653.734375 C 601.71875 653.359375 602.023438 653.0625 602.398438 653.0625 C 612.839844 653.0625 621.335938 644.554688 621.335938 634.097656 C 621.335938 633.722656 621.640625 633.417969 622.015625 633.417969 C 622.390625 633.417969 622.6875 633.722656 622.6875 634.097656 C 622.6875 645.296875 613.589844 654.414062 602.398438 654.414062 " fill-opacity="1" fill-rule="nonzero"/><path fill="#05065f" d="M 455.332031 605.503906 C 454.394531 605.441406 440.777344 608.082031 439.867188 608.28125 L 440.570312 607.105469 L 430.652344 602.886719 L 426.816406 623.289062 C 425.855469 626.269531 425.210938 629.554688 424.976562 633.027344 C 424.015625 647.414062 430.363281 659.546875 439.152344 660.136719 C 447.945312 660.722656 458.519531 650.257812 459.484375 635.882812 C 460.445312 621.503906 464.128906 606.09375 455.332031 605.503906 " fill-opacity="1" fill-rule="nonzero"/><path fill="#f3adc0" d="M 438.191406 694.527344 L 438.078125 694.179688 C 437.746094 693.175781 436.988281 692.304688 435.976562 692.011719 C 435.398438 691.851562 434.773438 691.835938 434.167969 692.019531 C 432.464844 692.515625 429.996094 693.664062 426.660156 695.375 C 423.738281 696.875 422.75 697.824219 421.988281 698.40625 C 420.050781 699.890625 418.980469 701.648438 418.445312 702.851562 C 418.164062 703.488281 418.65625 704.195312 419.351562 704.175781 L 430.539062 703.523438 C 430.949219 703.496094 431.367188 703.496094 431.785156 703.507812 L 447.980469 704.203125 L 447.980469 694.527344 L 438.191406 694.527344 " fill-opacity="1" fill-rule="nonzero"/><path fill="#235ecb" d="M 498.238281 694.867188 C 498.222656 694.835938 498.222656 694.800781 498.203125 694.773438 L 498.1875 694.746094 C 498.144531 694.667969 498.097656 694.597656 498.054688 694.527344 C 497.96875 694.382812 497.875 694.234375 497.769531 694.09375 C 497.628906 693.882812 497.488281 693.683594 497.316406 693.492188 C 493.019531 688.125 479.191406 679.136719 479.191406 679.136719 L 461.335938 677.960938 L 454.894531 675.335938 L 454.019531 677.480469 L 446.367188 676.976562 C 446.367188 676.976562 441.441406 681.082031 444.113281 688.183594 C 444.425781 689.019531 444.984375 689.78125 445.738281 690.503906 L 441.054688 691.886719 L 440.90625 704.238281 L 492.015625 704.847656 C 492.039062 704.847656 492.066406 704.847656 492.09375 704.847656 C 495.367188 704.847656 498.195312 702.539062 498.84375 699.320312 C 499.164062 697.761719 498.910156 696.203125 498.238281 694.867188 " fill-opacity="1" fill-rule="nonzero"/><path fill="#05065f" d="M 441.054688 692.496094 C 440.796875 692.496094 440.558594 692.332031 440.472656 692.070312 C 440.375 691.75 440.550781 691.410156 440.867188 691.304688 C 441.730469 691.027344 462.15625 684.585938 476.074219 689.933594 C 476.386719 690.058594 476.542969 690.40625 476.421875 690.71875 C 476.300781 691.035156 475.949219 691.183594 475.636719 691.070312 C 462.113281 685.875 441.449219 692.402344 441.238281 692.464844 C 441.179688 692.488281 441.117188 692.496094 441.054688 692.496094 " fill-opacity="1" fill-rule="nonzero"/><path fill="#f3adc0" d="M 461.417969 621.703125 L 457.078125 611.035156 L 470.484375 607.644531 L 477.382812 621.941406 L 461.417969 621.703125 " fill-opacity="1" fill-rule="nonzero"/><path fill="#05065f" d="M 470.484375 607.644531 L 464.996094 609.03125 L 463.773438 611.175781 L 462.628906 613.773438 C 466.285156 613.640625 469.550781 612.691406 472.046875 611.140625 L 470.484375 607.644531 " fill-opacity="1" fill-rule="nonzero"/><path fill="#f3adc0" d="M 451.304688 614.558594 C 460.769531 617.007812 470.003906 612.960938 471.925781 605.511719 C 473.839844 598.066406 467.726562 590.042969 458.265625 587.59375 C 448.800781 585.144531 439.566406 589.195312 437.644531 596.640625 C 435.722656 604.089844 441.835938 612.109375 451.304688 614.558594 " fill-opacity="1" fill-rule="nonzero"/><path fill="#f3adc0" d="M 466.820312 596.140625 C 468.085938 595.007812 468.6875 593.605469 468.15625 593.011719 C 467.625 592.410156 466.171875 592.839844 464.898438 593.964844 L 466.820312 596.140625 " fill-opacity="1" fill-rule="nonzero"/><path fill="#05065f" d="M 466.820312 596.699219 C 466.664062 596.699219 466.511719 596.632812 466.398438 596.515625 C 466.191406 596.28125 466.214844 595.917969 466.445312 595.714844 C 466.992188 595.234375 467.429688 594.660156 467.648438 594.148438 C 467.816406 593.746094 467.816406 593.46875 467.738281 593.386719 C 467.527344 593.152344 466.4375 593.355469 465.273438 594.390625 C 465.039062 594.597656 464.6875 594.574219 464.480469 594.339844 C 464.269531 594.105469 464.289062 593.753906 464.523438 593.546875 C 466.078125 592.167969 467.816406 591.777344 468.582031 592.636719 C 468.992188 593.09375 469.027344 593.796875 468.679688 594.597656 C 468.398438 595.261719 467.867188 595.953125 467.195312 596.558594 C 467.082031 596.65625 466.957031 596.699219 466.820312 596.699219 " fill-opacity="1" fill-rule="nonzero"/><path fill="#05065f" d="M 452.582031 601.539062 C 452.902344 599.585938 452.886719 597.730469 452.605469 596.210938 L 459.488281 587.359375 C 459.488281 587.359375 451.609375 579.488281 444.214844 583.390625 C 437.03125 587.175781 436.585938 592.457031 436.5625 592.753906 C 435.601562 593.300781 434.386719 594.320312 432.859375 596.140625 C 424.757812 605.78125 438.953125 617.554688 438.953125 617.554688 L 441.984375 611.246094 C 442.199219 611.453125 442.410156 611.648438 442.636719 611.855469 C 447.230469 615.945312 452.378906 617.660156 454.132812 615.683594 C 455.617188 614.015625 454.171875 610.21875 450.902344 606.609375 C 451.65625 605.257812 452.257812 603.5 452.582031 601.539062 " fill-opacity="1" fill-rule="nonzero"/><path fill="#f3adc0" d="M 446.964844 615.300781 C 448.976562 617.261719 452.195312 617.207031 454.144531 615.1875 C 456.097656 613.171875 456.046875 609.949219 454.03125 607.996094 C 452.015625 606.042969 448.800781 606.09375 446.851562 608.109375 C 444.890625 610.128906 444.949219 613.347656 446.964844 615.300781 " fill-opacity="1" fill-rule="nonzero"/><path fill="#05065f" d="M 451.0625 614.148438 C 451.132812 614.078125 451.175781 613.992188 451.199219 613.894531 L 451.855469 610.628906 C 451.890625 610.453125 451.828125 610.269531 451.691406 610.148438 C 451.558594 610.027344 451.367188 609.984375 451.191406 610.042969 L 448.191406 611.035156 C 447.925781 611.117188 447.78125 611.410156 447.867188 611.679688 C 447.953125 611.945312 448.242188 612.089844 448.511719 612.003906 L 450.679688 611.289062 L 450.199219 613.6875 C 450.144531 613.972656 450.320312 614.242188 450.597656 614.289062 C 450.773438 614.332031 450.949219 614.269531 451.0625 614.148438 " fill-opacity="1" fill-rule="nonzero"/><path fill="#fd68b2" d="M 451.316406 633.589844 C 451.316406 633.589844 452.285156 622.097656 457.347656 619.605469 C 462.402344 617.121094 475.734375 618.53125 475.734375 618.53125 C 475.734375 618.53125 484.785156 622.609375 486.183594 633.589844 C 487.582031 644.5625 479.191406 679.226562 479.191406 679.226562 L 446.367188 677.378906 L 451.316406 633.589844 " fill-opacity="1" fill-rule="nonzero"/><path fill="#f3adc0" d="M 438.402344 680.996094 L 438.378906 680.96875 L 446.164062 666.648438 L 439.757812 663.15625 L 432.351562 676.800781 L 431.019531 678.222656 L 431.042969 678.242188 C 430.421875 678.789062 429.8125 679.425781 429.210938 680.140625 C 427.960938 681.691406 427.046875 683.269531 426.597656 684.652344 C 426.460938 684.878906 426.363281 685.109375 426.347656 685.371094 L 426.042969 688.261719 L 426.007812 688.542969 L 426.300781 691.332031 C 426.328125 691.6875 426.617188 692 427 692.054688 C 427.113281 692.070312 427.230469 692.070312 427.339844 692.042969 L 427.394531 692.679688 C 427.429688 693.039062 427.699219 693.351562 428.082031 693.421875 C 428.40625 693.476562 428.71875 693.328125 428.902344 693.074219 L 428.867188 694.496094 C 428.851562 694.894531 429.121094 695.25 429.515625 695.332031 C 429.96875 695.425781 430.40625 695.136719 430.5 694.6875 L 430.695312 693.726562 L 430.683594 695.671875 C 430.675781 696.0625 430.945312 696.410156 431.339844 696.492188 C 431.785156 696.585938 432.222656 696.296875 432.316406 695.851562 L 433.171875 691.722656 L 433.128906 691.933594 L 434.625 688.28125 C 434.667969 688.183594 434.703125 688.0625 434.726562 687.949219 C 434.726562 687.929688 434.726562 687.90625 434.734375 687.886719 L 434.738281 687.886719 C 435.023438 687.929688 435.179688 687.992188 435.207031 688.078125 C 435.433594 689.0625 435.703125 690.007812 436 690.980469 C 436.148438 691.476562 436.632812 691.816406 437.179688 691.75 C 437.785156 691.695312 438.21875 691.140625 438.140625 690.535156 L 438.148438 690.511719 C 438.035156 689.585938 437.949219 688.621094 437.898438 687.6875 C 437.886719 687.214844 437.871094 686.753906 437.871094 686.320312 C 437.886719 686.09375 437.894531 685.898438 437.921875 685.710938 L 437.929688 685.648438 C 437.933594 685.628906 437.957031 685.613281 437.957031 685.59375 C 437.984375 685.535156 438.042969 685.457031 438.070312 685.402344 C 438.132812 685.246094 438.160156 685.1875 438.195312 685.066406 C 438.304688 684.652344 438.332031 682.613281 438.265625 681.902344 C 438.246094 681.699219 438.21875 681.515625 438.195312 681.316406 L 438.316406 681.082031 L 438.402344 680.996094 " fill-opacity="1" fill-rule="nonzero"/><path fill="#fd68b2" d="M 466.191406 619.0625 C 470.582031 620.578125 472.679688 624.902344 470.859375 628.660156 L 459.339844 652.375 L 459.179688 652.722656 L 459.085938 652.863281 L 442.960938 679.835938 L 429.585938 674.136719 L 444.664062 646.726562 L 444.410156 647.214844 L 455.113281 623.222656 C 456.8125 619.414062 461.792969 617.539062 466.191406 619.0625 " fill-opacity="1" fill-rule="nonzero"/><path fill="#05065f" d="M 442.960938 680.445312 C 442.882812 680.445312 442.800781 680.425781 442.722656 680.394531 L 429.347656 674.695312 C 429.191406 674.625 429.0625 674.5 429.015625 674.335938 C 428.957031 674.171875 428.972656 673.996094 429.054688 673.847656 L 443.929688 646.796875 L 454.554688 622.96875 C 454.691406 622.664062 455.050781 622.53125 455.355469 622.664062 C 455.664062 622.800781 455.800781 623.160156 455.664062 623.472656 L 445.273438 646.777344 C 445.265625 646.855469 445.246094 646.933594 445.203125 647.003906 L 444.949219 647.492188 C 444.925781 647.542969 444.898438 647.578125 444.871094 647.613281 L 430.441406 673.839844 L 442.714844 679.070312 L 458.796875 652.105469 L 465.808594 637.664062 C 465.957031 637.363281 466.320312 637.242188 466.621094 637.382812 C 466.917969 637.53125 467.046875 637.890625 466.898438 638.195312 L 459.609375 653.175781 L 443.484375 680.148438 C 443.371094 680.339844 443.167969 680.445312 442.960938 680.445312 " fill-opacity="1" fill-rule="nonzero"/><path fill="#f3adc0" d="M 394.160156 701.273438 C 393.984375 701.039062 392.789062 700.953125 391.792969 700.917969 C 390.804688 700.882812 389.828125 700.65625 388.921875 700.261719 L 376.617188 694.9375 L 377.726562 634.550781 C 377.773438 631.578125 375.980469 628.738281 373.039062 627.621094 L 372.691406 627.484375 L 321.53125 608.066406 L 315.5625 625.460938 L 362.90625 640.09375 L 363.875 693.023438 C 363.425781 694.15625 361.054688 700.253906 362.195312 702.53125 C 363.453125 705.054688 387.871094 705.308594 391.015625 704.296875 C 394.160156 703.289062 394.480469 701.683594 394.160156 701.273438 " fill-opacity="1" fill-rule="nonzero"/><path fill="#f3adc0" d="M 278.964844 618.636719 L 271.28125 626.8125 L 263.644531 635.046875 L 248.476562 651.597656 L 249.039062 651.09375 L 230.152344 668.226562 L 220.75 676.84375 L 216.613281 679.992188 L 207.585938 688.15625 C 206.503906 689.132812 205.777344 690.441406 205.523438 691.878906 L 204.113281 699.792969 C 204.113281 699.792969 206.363281 706.738281 214.964844 704.351562 C 216.535156 703.914062 217.609375 702.449219 217.609375 700.8125 L 217.609375 692.34375 L 227.5625 685.222656 L 237.890625 677.742188 L 258.464844 662.675781 C 258.492188 662.65625 258.519531 662.628906 258.550781 662.605469 L 259.023438 662.167969 L 275.558594 646.976562 L 283.78125 639.328125 L 291.953125 631.632812 L 278.964844 618.636719 " fill-opacity="1" fill-rule="nonzero"/><path fill="#235ecb" d="M 352.933594 619.988281 L 334.191406 641.730469 L 306.367188 631.519531 L 281.566406 650.761719 C 281.566406 650.761719 261.679688 648.417969 258.238281 640.949219 L 280.074219 605.117188 L 325.914062 604.25 L 352.933594 619.988281 " fill-opacity="1" fill-rule="nonzero"/><path fill="#fa722d" d="M 268.480469 543.535156 C 268.480469 543.535156 284.226562 533.234375 303.644531 533.234375 C 323.066406 533.234375 338.808594 543.535156 338.808594 543.535156 L 336.667969 547.085938 C 334.035156 551.441406 332.355469 556.304688 331.730469 561.351562 L 328.640625 604.25 C 325 607.53125 292.269531 613.679688 277.890625 604.875 L 274.894531 556.835938 C 274.539062 553.679688 273.410156 550.65625 271.597656 548.042969 L 268.480469 543.535156 " fill-opacity="1" fill-rule="nonzero"/><path fill="#f3adc0" d="M 423.34375 526.976562 C 423.230469 526.113281 422.472656 525.496094 421.617188 525.558594 L 421.507812 525.566406 C 420.09375 525.671875 418.394531 525.601562 416.785156 525.53125 C 415.152344 525.453125 413.503906 525.339844 411.863281 525.210938 C 408.574219 524.957031 405.273438 524.652344 401.996094 524.3125 C 401.761719 524.292969 401.527344 524.3125 401.316406 524.363281 L 401.289062 524.304688 L 391.714844 527.34375 C 391.328125 527.441406 376.53125 530.253906 376.53125 530.253906 C 371.199219 531.117188 365.863281 531.929688 360.539062 532.851562 L 328.640625 538.414062 L 331.980469 552.976562 L 363.042969 544.0625 C 368.222656 542.589844 373.425781 541.21875 378.617188 539.796875 L 394.203125 535.546875 L 394.191406 535.464844 L 403.089844 532.058594 C 405.140625 532.113281 407.210938 532.183594 409.261719 532.292969 C 410.359375 532.347656 411.453125 532.410156 412.535156 532.496094 L 414.117188 532.636719 L 414.824219 532.730469 L 415.109375 532.773438 C 415.15625 532.78125 415.007812 532.714844 415.003906 532.660156 C 416.007812 533.3125 417.34375 533.019531 417.992188 532.015625 C 418.636719 531.023438 418.359375 529.699219 417.382812 529.042969 C 418.855469 529.019531 420.304688 529 421.9375 528.789062 C 422.828125 528.675781 423.457031 527.859375 423.34375 526.976562 " fill-opacity="1" fill-rule="nonzero"/><path fill="#fa722d" d="M 340.300781 552.417969 L 337.4375 535.257812 L 324.40625 537.429688 C 319.679688 538.222656 316.484375 542.703125 317.269531 547.441406 C 318.058594 552.183594 322.535156 555.382812 327.265625 554.597656 L 340.300781 552.417969 " fill-opacity="1" fill-rule="nonzero"/><path fill="#f3adc0" d="M 254.1875 532.78125 C 248.871094 531.867188 243.527344 531.050781 238.203125 530.183594 L 223.972656 527.902344 C 223.738281 527.597656 223.40625 527.371094 223.011719 527.28125 L 213.445312 524.234375 L 213.417969 524.292969 C 213.199219 524.25 212.980469 524.226562 212.738281 524.25 C 209.464844 524.589844 206.15625 524.894531 202.871094 525.148438 C 201.222656 525.269531 199.582031 525.390625 197.949219 525.46875 C 196.339844 525.539062 194.640625 525.601562 193.222656 525.503906 L 193.113281 525.488281 C 192.257812 525.433594 191.496094 526.046875 191.390625 526.902344 C 191.277344 527.796875 191.90625 528.609375 192.796875 528.722656 C 194.429688 528.9375 195.878906 528.957031 197.34375 528.976562 C 196.375 529.636719 196.097656 530.960938 196.742188 531.953125 C 197.390625 532.957031 198.726562 533.238281 199.730469 532.589844 C 199.71875 532.652344 199.570312 532.714844 199.617188 532.710938 L 199.910156 532.667969 L 200.617188 532.574219 L 202.199219 532.433594 C 203.273438 532.347656 204.371094 532.277344 205.472656 532.226562 C 207.523438 532.121094 209.59375 532.042969 211.644531 531.988281 L 220.542969 535.398438 L 220.523438 535.484375 L 236.109375 539.726562 C 241.308594 541.15625 246.511719 542.527344 251.691406 544 L 282.746094 552.914062 L 286.089844 538.351562 L 254.1875 532.78125 " fill-opacity="1" fill-rule="nonzero"/><path fill="#fa722d" d="M 266.234375 550.238281 L 269.964844 533.238281 L 282.867188 536.085938 C 287.554688 537.113281 290.515625 541.757812 289.492188 546.449219 C 288.460938 551.144531 283.824219 554.109375 279.136719 553.074219 L 266.234375 550.238281 " fill-opacity="1" fill-rule="nonzero"/><path fill="#f3adc0" d="M 298.484375 534.371094 L 299.355469 524.949219 L 313.351562 527.101562 L 312.699219 535.578125 C 312.402344 539.460938 309.046875 542.386719 305.164062 542.152344 C 301.140625 541.917969 298.117188 538.386719 298.484375 534.371094 " fill-opacity="1" fill-rule="nonzero"/><path fill="#05065f" d="M 312.007812 538.109375 C 306.789062 536.707031 301.957031 532.375 299.242188 526.230469 L 299.332031 525.191406 L 299.355469 524.949219 L 313.351562 527.101562 L 312.699219 535.578125 C 312.628906 536.480469 312.382812 537.332031 312.007812 538.109375 " fill-opacity="1" fill-rule="nonzero"/><path fill="#f3adc0" d="M 293.246094 518.777344 C 296.640625 529.367188 306.125 535.796875 314.433594 533.125 C 322.746094 530.457031 326.734375 519.710938 323.339844 509.113281 C 319.953125 498.523438 310.46875 492.101562 302.152344 494.773438 C 293.847656 497.441406 289.859375 508.1875 293.246094 518.777344 " fill-opacity="1" fill-rule="nonzero"/><path fill="#05065f" d="M 325.113281 509.519531 C 324.988281 505.984375 324.210938 503.011719 323.234375 501.914062 C 322.902344 499.160156 321.332031 495.847656 316.539062 493.285156 C 308.980469 489.234375 303.257812 492.25 300.867188 494.015625 C 298.5 494.460938 295.945312 495.316406 293.621094 496.910156 C 283.949219 503.515625 282.59375 525.027344 298.957031 529.226562 L 299.035156 528.433594 C 296.71875 526.097656 294.785156 523.089844 293.535156 519.585938 C 297.027344 519.398438 301.574219 516.234375 304.980469 511.222656 C 305.667969 510.210938 306.261719 509.183594 306.777344 508.164062 C 306.785156 510.339844 306.253906 512.242188 306.253906 512.242188 C 309.171875 511.117188 311.117188 508.046875 312.09375 506.125 C 311.074219 508.519531 310.078125 511.28125 310.078125 511.28125 C 315.632812 508.875 317.9375 504.703125 317.9375 504.703125 C 320.238281 507.40625 315.855469 510.679688 315.855469 510.679688 C 317.648438 510.054688 321.453125 508.710938 322.464844 507.324219 C 322.464844 507.324219 322.507812 507.222656 322.578125 507.054688 C 322.851562 507.726562 323.113281 508.40625 323.339844 509.113281 C 324.039062 511.300781 324.40625 513.480469 324.507812 515.605469 C 324.960938 514.097656 325.191406 511.933594 325.113281 509.519531 " fill-opacity="1" fill-rule="nonzero"/><path fill="#f3adc0" d="M 289.910156 519.816406 C 289.867188 523.011719 292.425781 525.628906 295.613281 525.671875 C 298.800781 525.707031 301.417969 523.152344 301.453125 519.960938 C 301.488281 516.765625 298.9375 514.148438 295.75 514.113281 C 292.558594 514.070312 289.945312 516.625 289.910156 519.816406 " fill-opacity="1" fill-rule="nonzero"/><path fill="#05065f" d="M 294.066406 522.308594 C 294.171875 522.308594 294.277344 522.28125 294.378906 522.21875 L 297.578125 520.214844 C 297.75 520.109375 297.855469 519.910156 297.847656 519.703125 C 297.839844 519.5 297.726562 519.308594 297.542969 519.210938 L 294.390625 517.503906 C 294.109375 517.347656 293.753906 517.453125 293.605469 517.738281 C 293.449219 518.019531 293.558594 518.375 293.839844 518.523438 L 296.117188 519.761719 L 293.761719 521.234375 C 293.492188 521.402344 293.410156 521.765625 293.578125 522.035156 C 293.683594 522.210938 293.875 522.300781 294.066406 522.308594 " fill-opacity="1" fill-rule="nonzero"/><path fill="#05065f" d="M 319.167969 523.507812 C 318.222656 523.507812 316.992188 522.917969 315.875 521.851562 C 315.640625 521.628906 315.632812 521.269531 315.855469 521.042969 C 316.074219 520.808594 316.433594 520.800781 316.667969 521.019531 C 318.03125 522.324219 319.261719 522.523438 319.515625 522.261719 C 319.613281 522.152344 319.65625 521.851562 319.460938 521.320312 C 319.226562 520.722656 318.746094 520.050781 318.136719 519.472656 C 317.910156 519.25 317.902344 518.890625 318.125 518.65625 C 318.34375 518.429688 318.703125 518.421875 318.9375 518.644531 C 319.671875 519.34375 320.238281 520.144531 320.527344 520.902344 C 320.875 521.808594 320.808594 522.570312 320.34375 523.058594 C 320.054688 523.363281 319.644531 523.507812 319.167969 523.507812 " fill-opacity="1" fill-rule="nonzero"/></svg>